solid OpenSCAD_Model
  facet normal 0 0 -1
    outer loop
      vertex -15 0 0
      vertex -14.6722 3.11867 0
      vertex -14.6722 -3.11867 0
    endloop
  endfacet
  facet normal 0 0 -1
    outer loop
      vertex -14.6722 -3.11867 0
      vertex -14.6722 3.11867 0
      vertex -13.7032 6.10105 0
    endloop
  endfacet
  facet normal 0 0 -1
    outer loop
      vertex -14.6722 -3.11867 0
      vertex -13.7032 6.10105 0
      vertex -12.1353 8.81678 0
    endloop
  endfacet
  facet normal 0 0 -1
    outer loop
      vertex -14.6722 -3.11867 0
      vertex -12.1353 8.81678 0
      vertex -10.037 11.1472 0
    endloop
  endfacet
  facet normal 0 0 -1
    outer loop
      vertex -14.6722 -3.11867 0
      vertex -10.037 11.1472 0
      vertex -7.5 12.9904 0
    endloop
  endfacet
  facet normal 0 0 -1
    outer loop
      vertex -14.6722 -3.11867 0
      vertex -7.5 12.9904 0
      vertex -4.63525 14.2658 0
    endloop
  endfacet
  facet normal 0 0 -1
    outer loop
      vertex -14.6722 -3.11867 0
      vertex -4.63525 14.2658 0
      vertex -1.56793 14.9178 0
    endloop
  endfacet
  facet normal 0 0 -1
    outer loop
      vertex -14.6722 -3.11867 0
      vertex -1.56793 14.9178 0
      vertex 1.56793 14.9178 0
    endloop
  endfacet
  facet normal 0 0 -1
    outer loop
      vertex -14.6722 -3.11867 0
      vertex 1.56793 14.9178 0
      vertex 4.63525 14.2658 0
    endloop
  endfacet
  facet normal 0 0 -1
    outer loop
      vertex -14.6722 -3.11867 0
      vertex 4.63525 14.2658 0
      vertex 7.5 12.9904 0
    endloop
  endfacet
  facet normal 0 0 -1
    outer loop
      vertex -14.6722 -3.11867 0
      vertex 7.5 12.9904 0
      vertex 10.037 11.1472 0
    endloop
  endfacet
  facet normal 0 0 -1
    outer loop
      vertex 0.482147 3.97083 0
      vertex 10.037 11.1472 0
      vertex 12.1353 8.81678 0
    endloop
  endfacet
  facet normal 0 0 -1
    outer loop
      vertex 2.27226 3.29194 0
      vertex 12.1353 8.81678 0
      vertex 13.7032 6.10105 0
    endloop
  endfacet
  facet normal 0 0 -1
    outer loop
      vertex 3.54182 1.85889 0
      vertex 13.7032 6.10105 0
      vertex 14.6722 3.11867 0
    endloop
  endfacet
  facet normal 0 0 -1
    outer loop
      vertex 4 0 0
      vertex 14.6722 3.11867 0
      vertex 15 0 0
    endloop
  endfacet
  facet normal 0 0 -1
    outer loop
      vertex 3.54182 -1.85889 0
      vertex 15 0 0
      vertex 14.6722 -3.11867 0
    endloop
  endfacet
  facet normal 0 0 -1
    outer loop
      vertex 0.482147 -3.97083 0
      vertex 14.6722 -3.11867 0
      vertex 13.7032 -6.10105 0
    endloop
  endfacet
  facet normal 0 0 -1
    outer loop
      vertex -14.6722 -3.11867 0
      vertex 13.7032 -6.10105 0
      vertex 12.1353 -8.81678 0
    endloop
  endfacet
  facet normal 0 0 -1
    outer loop
      vertex -14.6722 -3.11867 0
      vertex 12.1353 -8.81678 0
      vertex 10.037 -11.1472 0
    endloop
  endfacet
  facet normal 0 0 -1
    outer loop
      vertex -14.6722 -3.11867 0
      vertex 10.037 -11.1472 0
      vertex 7.5 -12.9904 0
    endloop
  endfacet
  facet normal 0 0 -1
    outer loop
      vertex -14.6722 -3.11867 0
      vertex 7.5 -12.9904 0
      vertex 4.63525 -14.2658 0
    endloop
  endfacet
  facet normal 0 0 -1
    outer loop
      vertex -14.6722 -3.11867 0
      vertex 4.63525 -14.2658 0
      vertex 1.56793 -14.9178 0
    endloop
  endfacet
  facet normal 0 0 -1
    outer loop
      vertex -14.6722 -3.11867 0
      vertex 1.56793 -14.9178 0
      vertex -1.56793 -14.9178 0
    endloop
  endfacet
  facet normal 0 0 -1
    outer loop
      vertex -14.6722 -3.11867 0
      vertex -1.56793 -14.9178 0
      vertex -4.63525 -14.2658 0
    endloop
  endfacet
  facet normal 0 0 -1
    outer loop
      vertex -14.6722 -3.11867 0
      vertex -4.63525 -14.2658 0
      vertex -7.5 -12.9904 0
    endloop
  endfacet
  facet normal 0 0 -1
    outer loop
      vertex -14.6722 -3.11867 0
      vertex -7.5 -12.9904 0
      vertex -10.037 -11.1472 0
    endloop
  endfacet
  facet normal 0 0 -1
    outer loop
      vertex -14.6722 -3.11867 0
      vertex -10.037 -11.1472 0
      vertex -12.1353 -8.81678 0
    endloop
  endfacet
  facet normal 0 0 -1
    outer loop
      vertex -14.6722 -3.11867 0
      vertex -12.1353 -8.81678 0
      vertex -13.7032 -6.10105 0
    endloop
  endfacet
  facet normal 0 0 -1
    outer loop
      vertex -3.88377 -0.957263 0
      vertex -14.6722 -3.11867 0
      vertex -3.88377 0.957263 0
    endloop
  endfacet
  facet normal 0 0 -1
    outer loop
      vertex -2.99404 -2.65249 0
      vertex -14.6722 -3.11867 0
      vertex -3.88377 -0.957263 0
    endloop
  endfacet
  facet normal 0 0 -1
    outer loop
      vertex -1.41842 -3.74006 0
      vertex -14.6722 -3.11867 0
      vertex -2.99404 -2.65249 0
    endloop
  endfacet
  facet normal 0 0 -1
    outer loop
      vertex 3.54182 -1.85889 0
      vertex 14.6722 -3.11867 0
      vertex 2.27226 -3.29194 0
    endloop
  endfacet
  facet normal 0 0 -1
    outer loop
      vertex -14.6722 -3.11867 0
      vertex -1.41842 -3.74006 0
      vertex 13.7032 -6.10105 0
    endloop
  endfacet
  facet normal 0 0 -1
    outer loop
      vertex -1.41842 -3.74006 0
      vertex 0.482147 -3.97083 0
      vertex 13.7032 -6.10105 0
    endloop
  endfacet
  facet normal 0 0 -1
    outer loop
      vertex 2.27226 -3.29194 0
      vertex 14.6722 -3.11867 0
      vertex 0.482147 -3.97083 0
    endloop
  endfacet
  facet normal 0 0 -1
    outer loop
      vertex 4 0 0
      vertex 15 0 0
      vertex 3.54182 -1.85889 0
    endloop
  endfacet
  facet normal 0 0 -1
    outer loop
      vertex 3.54182 1.85889 0
      vertex 14.6722 3.11867 0
      vertex 4 0 0
    endloop
  endfacet
  facet normal 0 0 -1
    outer loop
      vertex 0.482147 3.97083 0
      vertex 12.1353 8.81678 0
      vertex 2.27226 3.29194 0
    endloop
  endfacet
  facet normal 0 0 -1
    outer loop
      vertex -1.41842 3.74006 0
      vertex 10.037 11.1472 0
      vertex 0.482147 3.97083 0
    endloop
  endfacet
  facet normal 0 0 -1
    outer loop
      vertex -14.6722 -3.11867 0
      vertex 10.037 11.1472 0
      vertex -1.41842 3.74006 0
    endloop
  endfacet
  facet normal 0 0 -1
    outer loop
      vertex -14.6722 -3.11867 0
      vertex -1.41842 3.74006 0
      vertex -2.99404 2.65249 0
    endloop
  endfacet
  facet normal 0 0 -1
    outer loop
      vertex 2.27226 3.29194 0
      vertex 13.7032 6.10105 0
      vertex 3.54182 1.85889 0
    endloop
  endfacet
  facet normal 0 0 -1
    outer loop
      vertex -3.88377 0.957263 0
      vertex -14.6722 -3.11867 0
      vertex -2.99404 2.65249 0
    endloop
  endfacet
  facet normal -0.994522 0.104528 0
    outer loop
      vertex -15 0 0
      vertex -15 0 1.7
      vertex -14.6722 3.11867 0
    endloop
  endfacet
  facet normal -0.994522 0.104528 0
    outer loop
      vertex -14.6722 3.11867 0
      vertex -15 0 1.7
      vertex -14.6722 3.11867 1.7
    endloop
  endfacet
  facet normal -0.994522 -0.104528 0
    outer loop
      vertex -15 0 0
      vertex -14.6722 -3.11867 0
      vertex -15 0 1.7
    endloop
  endfacet
  facet normal -0.994522 -0.104528 0
    outer loop
      vertex -15 0 1.7
      vertex -14.6722 -3.11867 0
      vertex -14.6722 -3.11867 1.7
    endloop
  endfacet
  facet normal -0.951057 -0.309017 0
    outer loop
      vertex -14.6722 -3.11867 0
      vertex -13.7032 -6.10105 0
      vertex -14.6722 -3.11867 1.7
    endloop
  endfacet
  facet normal -0.951057 -0.309017 0
    outer loop
      vertex -14.6722 -3.11867 1.7
      vertex -13.7032 -6.10105 0
      vertex -13.7032 -6.10105 1.7
    endloop
  endfacet
  facet normal -0.866025 -0.5 0
    outer loop
      vertex -13.7032 -6.10105 0
      vertex -12.1353 -8.81678 0
      vertex -13.7032 -6.10105 1.7
    endloop
  endfacet
  facet normal -0.866025 -0.5 0
    outer loop
      vertex -13.7032 -6.10105 1.7
      vertex -12.1353 -8.81678 0
      vertex -12.1353 -8.81678 1.7
    endloop
  endfacet
  facet normal -0.743145 -0.669131 0
    outer loop
      vertex -12.1353 -8.81678 0
      vertex -10.037 -11.1472 0
      vertex -12.1353 -8.81678 1.7
    endloop
  endfacet
  facet normal -0.743145 -0.669131 0
    outer loop
      vertex -12.1353 -8.81678 1.7
      vertex -10.037 -11.1472 0
      vertex -10.037 -11.1472 1.7
    endloop
  endfacet
  facet normal -0.587785 -0.809017 0
    outer loop
      vertex -10.037 -11.1472 1.7
      vertex -10.037 -11.1472 0
      vertex -7.5 -12.9904 0
    endloop
  endfacet
  facet normal -0.587785 -0.809017 0
    outer loop
      vertex -7.5 -12.9904 1.7
      vertex -10.037 -11.1472 1.7
      vertex -7.5 -12.9904 0
    endloop
  endfacet
  facet normal -0.406737 -0.913545 0
    outer loop
      vertex -7.5 -12.9904 1.7
      vertex -7.5 -12.9904 0
      vertex -4.63525 -14.2658 0
    endloop
  endfacet
  facet normal -0.406737 -0.913545 0
    outer loop
      vertex -4.63525 -14.2658 1.7
      vertex -7.5 -12.9904 1.7
      vertex -4.63525 -14.2658 0
    endloop
  endfacet
  facet normal -0.207911 -0.978148 0
    outer loop
      vertex -4.63525 -14.2658 1.7
      vertex -4.63525 -14.2658 0
      vertex -1.56793 -14.9178 0
    endloop
  endfacet
  facet normal -0.207911 -0.978148 0
    outer loop
      vertex -1.56793 -14.9178 1.7
      vertex -4.63525 -14.2658 1.7
      vertex -1.56793 -14.9178 0
    endloop
  endfacet
  facet normal 0 -1 0
    outer loop
      vertex -1.56793 -14.9178 1.7
      vertex -1.56793 -14.9178 0
      vertex 1.56793 -14.9178 0
    endloop
  endfacet
  facet normal 0 -1 0
    outer loop
      vertex 1.56793 -14.9178 1.7
      vertex -1.56793 -14.9178 1.7
      vertex 1.56793 -14.9178 0
    endloop
  endfacet
  facet normal 0.207911 -0.978148 0
    outer loop
      vertex 1.56793 -14.9178 1.7
      vertex 1.56793 -14.9178 0
      vertex 4.63525 -14.2658 0
    endloop
  endfacet
  facet normal 0.207911 -0.978148 0
    outer loop
      vertex 4.63525 -14.2658 1.7
      vertex 1.56793 -14.9178 1.7
      vertex 4.63525 -14.2658 0
    endloop
  endfacet
  facet normal 0.406737 -0.913545 0
    outer loop
      vertex 4.63525 -14.2658 1.7
      vertex 4.63525 -14.2658 0
      vertex 7.5 -12.9904 0
    endloop
  endfacet
  facet normal 0.406737 -0.913545 0
    outer loop
      vertex 7.5 -12.9904 1.7
      vertex 4.63525 -14.2658 1.7
      vertex 7.5 -12.9904 0
    endloop
  endfacet
  facet normal 0.587785 -0.809017 0
    outer loop
      vertex 7.5 -12.9904 1.7
      vertex 7.5 -12.9904 0
      vertex 10.037 -11.1472 0
    endloop
  endfacet
  facet normal 0.587785 -0.809017 0
    outer loop
      vertex 10.037 -11.1472 1.7
      vertex 7.5 -12.9904 1.7
      vertex 10.037 -11.1472 0
    endloop
  endfacet
  facet normal 0.743145 -0.669131 0
    outer loop
      vertex 10.037 -11.1472 1.7
      vertex 10.037 -11.1472 0
      vertex 12.1353 -8.81678 0
    endloop
  endfacet
  facet normal 0.743145 -0.669131 0
    outer loop
      vertex 12.1353 -8.81678 1.7
      vertex 10.037 -11.1472 1.7
      vertex 12.1353 -8.81678 0
    endloop
  endfacet
  facet normal 0.866025 -0.5 0
    outer loop
      vertex 12.1353 -8.81678 1.7
      vertex 12.1353 -8.81678 0
      vertex 13.7032 -6.10105 0
    endloop
  endfacet
  facet normal 0.866025 -0.5 0
    outer loop
      vertex 13.7032 -6.10105 1.7
      vertex 12.1353 -8.81678 1.7
      vertex 13.7032 -6.10105 0
    endloop
  endfacet
  facet normal 0.951057 -0.309017 0
    outer loop
      vertex 13.7032 -6.10105 1.7
      vertex 13.7032 -6.10105 0
      vertex 14.6722 -3.11867 0
    endloop
  endfacet
  facet normal 0.951057 -0.309017 0
    outer loop
      vertex 14.6722 -3.11867 1.7
      vertex 13.7032 -6.10105 1.7
      vertex 14.6722 -3.11867 0
    endloop
  endfacet
  facet normal 0.994522 -0.104528 0
    outer loop
      vertex 14.6722 -3.11867 1.7
      vertex 14.6722 -3.11867 0
      vertex 15 0 0
    endloop
  endfacet
  facet normal 0.994522 -0.104528 0
    outer loop
      vertex 15 0 1.7
      vertex 14.6722 -3.11867 1.7
      vertex 15 0 0
    endloop
  endfacet
  facet normal 0.994522 0.104528 0
    outer loop
      vertex 15 0 0
      vertex 14.6722 3.11867 0
      vertex 14.6722 3.11867 1.7
    endloop
  endfacet
  facet normal 0.994522 0.104528 0
    outer loop
      vertex 15 0 1.7
      vertex 15 0 0
      vertex 14.6722 3.11867 1.7
    endloop
  endfacet
  facet normal 0.951057 0.309017 0
    outer loop
      vertex 14.6722 3.11867 0
      vertex 13.7032 6.10105 0
      vertex 13.7032 6.10105 1.7
    endloop
  endfacet
  facet normal 0.951057 0.309017 0
    outer loop
      vertex 14.6722 3.11867 1.7
      vertex 14.6722 3.11867 0
      vertex 13.7032 6.10105 1.7
    endloop
  endfacet
  facet normal 0.866025 0.5 0
    outer loop
      vertex 13.7032 6.10105 0
      vertex 12.1353 8.81678 0
      vertex 12.1353 8.81678 1.7
    endloop
  endfacet
  facet normal 0.866025 0.5 0
    outer loop
      vertex 13.7032 6.10105 1.7
      vertex 13.7032 6.10105 0
      vertex 12.1353 8.81678 1.7
    endloop
  endfacet
  facet normal 0.743145 0.669131 0
    outer loop
      vertex 12.1353 8.81678 0
      vertex 10.037 11.1472 0
      vertex 10.037 11.1472 1.7
    endloop
  endfacet
  facet normal 0.743145 0.669131 0
    outer loop
      vertex 12.1353 8.81678 1.7
      vertex 12.1353 8.81678 0
      vertex 10.037 11.1472 1.7
    endloop
  endfacet
  facet normal 0.587785 0.809017 0
    outer loop
      vertex 7.5 12.9904 0
      vertex 7.5 12.9904 1.7
      vertex 10.037 11.1472 0
    endloop
  endfacet
  facet normal 0.587785 0.809017 0
    outer loop
      vertex 10.037 11.1472 0
      vertex 7.5 12.9904 1.7
      vertex 10.037 11.1472 1.7
    endloop
  endfacet
  facet normal 0.406737 0.913545 0
    outer loop
      vertex 4.63525 14.2658 0
      vertex 4.63525 14.2658 1.7
      vertex 7.5 12.9904 0
    endloop
  endfacet
  facet normal 0.406737 0.913545 0
    outer loop
      vertex 7.5 12.9904 0
      vertex 4.63525 14.2658 1.7
      vertex 7.5 12.9904 1.7
    endloop
  endfacet
  facet normal 0.207911 0.978148 0
    outer loop
      vertex 1.56793 14.9178 0
      vertex 1.56793 14.9178 1.7
      vertex 4.63525 14.2658 0
    endloop
  endfacet
  facet normal 0.207911 0.978148 0
    outer loop
      vertex 4.63525 14.2658 0
      vertex 1.56793 14.9178 1.7
      vertex 4.63525 14.2658 1.7
    endloop
  endfacet
  facet normal 0 1 0
    outer loop
      vertex -1.56793 14.9178 0
      vertex -1.56793 14.9178 1.7
      vertex 1.56793 14.9178 0
    endloop
  endfacet
  facet normal 0 1 0
    outer loop
      vertex 1.56793 14.9178 0
      vertex -1.56793 14.9178 1.7
      vertex 1.56793 14.9178 1.7
    endloop
  endfacet
  facet normal -0.207911 0.978148 0
    outer loop
      vertex -4.63525 14.2658 0
      vertex -4.63525 14.2658 1.7
      vertex -1.56793 14.9178 0
    endloop
  endfacet
  facet normal -0.207911 0.978148 0
    outer loop
      vertex -1.56793 14.9178 0
      vertex -4.63525 14.2658 1.7
      vertex -1.56793 14.9178 1.7
    endloop
  endfacet
  facet normal -0.406737 0.913545 0
    outer loop
      vertex -7.5 12.9904 0
      vertex -7.5 12.9904 1.7
      vertex -4.63525 14.2658 0
    endloop
  endfacet
  facet normal -0.406737 0.913545 0
    outer loop
      vertex -4.63525 14.2658 0
      vertex -7.5 12.9904 1.7
      vertex -4.63525 14.2658 1.7
    endloop
  endfacet
  facet normal -0.587785 0.809017 0
    outer loop
      vertex -10.037 11.1472 0
      vertex -10.037 11.1472 1.7
      vertex -7.5 12.9904 0
    endloop
  endfacet
  facet normal -0.587785 0.809017 0
    outer loop
      vertex -7.5 12.9904 0
      vertex -10.037 11.1472 1.7
      vertex -7.5 12.9904 1.7
    endloop
  endfacet
  facet normal -0.743145 0.669131 0
    outer loop
      vertex -12.1353 8.81678 0
      vertex -12.1353 8.81678 1.7
      vertex -10.037 11.1472 0
    endloop
  endfacet
  facet normal -0.743145 0.669131 0
    outer loop
      vertex -10.037 11.1472 0
      vertex -12.1353 8.81678 1.7
      vertex -10.037 11.1472 1.7
    endloop
  endfacet
  facet normal -0.866025 0.5 0
    outer loop
      vertex -13.7032 6.10105 0
      vertex -13.7032 6.10105 1.7
      vertex -12.1353 8.81678 0
    endloop
  endfacet
  facet normal -0.866025 0.5 0
    outer loop
      vertex -12.1353 8.81678 0
      vertex -13.7032 6.10105 1.7
      vertex -12.1353 8.81678 1.7
    endloop
  endfacet
  facet normal -0.951057 0.309017 0
    outer loop
      vertex -14.6722 3.11867 0
      vertex -14.6722 3.11867 1.7
      vertex -13.7032 6.10105 0
    endloop
  endfacet
  facet normal -0.951057 0.309017 0
    outer loop
      vertex -13.7032 6.10105 0
      vertex -14.6722 3.11867 1.7
      vertex -13.7032 6.10105 1.7
    endloop
  endfacet
  facet normal 0.885456 -0.464723 0
    outer loop
      vertex -2.99404 2.65249 0
      vertex -2.99404 2.65249 2
      vertex -3.88377 0.957263 2
    endloop
  endfacet
  facet normal 0.885456 -0.464723 0
    outer loop
      vertex -3.88377 0.957263 0
      vertex -2.99404 2.65249 0
      vertex -3.88377 0.957263 2
    endloop
  endfacet
  facet normal 1 0 0
    outer loop
      vertex -3.88377 0.957263 0
      vertex -3.88377 0.957263 2
      vertex -3.88377 -0.957263 2
    endloop
  endfacet
  facet normal 1 0 0
    outer loop
      vertex -3.88377 -0.957263 0
      vertex -3.88377 0.957263 0
      vertex -3.88377 -0.957263 2
    endloop
  endfacet
  facet normal 0.568065 -0.822984 0
    outer loop
      vertex -1.41842 3.74006 0
      vertex -1.41842 3.74006 2
      vertex -2.99404 2.65249 2
    endloop
  endfacet
  facet normal 0.568065 -0.822984 0
    outer loop
      vertex -2.99404 2.65249 0
      vertex -1.41842 3.74006 0
      vertex -2.99404 2.65249 2
    endloop
  endfacet
  facet normal 0.120536 -0.992709 0
    outer loop
      vertex 0.482147 3.97083 0
      vertex 0.482147 3.97083 2
      vertex -1.41842 3.74006 2
    endloop
  endfacet
  facet normal 0.120536 -0.992709 0
    outer loop
      vertex -1.41842 3.74006 0
      vertex 0.482147 3.97083 0
      vertex -1.41842 3.74006 2
    endloop
  endfacet
  facet normal -0.354605 -0.935016 0
    outer loop
      vertex 2.27226 3.29194 0
      vertex 2.27226 3.29194 2
      vertex 0.482147 3.97083 2
    endloop
  endfacet
  facet normal -0.354605 -0.935016 0
    outer loop
      vertex 0.482147 3.97083 0
      vertex 2.27226 3.29194 0
      vertex 0.482147 3.97083 2
    endloop
  endfacet
  facet normal -0.748511 -0.663123 0
    outer loop
      vertex 3.54182 1.85889 2
      vertex 2.27226 3.29194 2
      vertex 3.54182 1.85889 0
    endloop
  endfacet
  facet normal -0.748511 -0.663123 0
    outer loop
      vertex 3.54182 1.85889 0
      vertex 2.27226 3.29194 2
      vertex 2.27226 3.29194 0
    endloop
  endfacet
  facet normal -0.970942 -0.239316 0
    outer loop
      vertex 4 0 2
      vertex 3.54182 1.85889 2
      vertex 4 0 0
    endloop
  endfacet
  facet normal -0.970942 -0.239316 0
    outer loop
      vertex 4 0 0
      vertex 3.54182 1.85889 2
      vertex 3.54182 1.85889 0
    endloop
  endfacet
  facet normal -0.970942 0.239316 0
    outer loop
      vertex 4 0 2
      vertex 4 0 0
      vertex 3.54182 -1.85889 2
    endloop
  endfacet
  facet normal -0.970942 0.239316 0
    outer loop
      vertex 3.54182 -1.85889 2
      vertex 4 0 0
      vertex 3.54182 -1.85889 0
    endloop
  endfacet
  facet normal -0.748511 0.663123 0
    outer loop
      vertex 3.54182 -1.85889 2
      vertex 3.54182 -1.85889 0
      vertex 2.27226 -3.29194 2
    endloop
  endfacet
  facet normal -0.748511 0.663123 0
    outer loop
      vertex 2.27226 -3.29194 2
      vertex 3.54182 -1.85889 0
      vertex 2.27226 -3.29194 0
    endloop
  endfacet
  facet normal -0.354605 0.935016 0
    outer loop
      vertex 2.27226 -3.29194 2
      vertex 2.27226 -3.29194 0
      vertex 0.482147 -3.97083 2
    endloop
  endfacet
  facet normal -0.354605 0.935016 0
    outer loop
      vertex 0.482147 -3.97083 2
      vertex 2.27226 -3.29194 0
      vertex 0.482147 -3.97083 0
    endloop
  endfacet
  facet normal 0.120536 0.992709 0
    outer loop
      vertex 0.482147 -3.97083 2
      vertex 0.482147 -3.97083 0
      vertex -1.41842 -3.74006 2
    endloop
  endfacet
  facet normal 0.120536 0.992709 0
    outer loop
      vertex -1.41842 -3.74006 2
      vertex 0.482147 -3.97083 0
      vertex -1.41842 -3.74006 0
    endloop
  endfacet
  facet normal 0.568065 0.822984 0
    outer loop
      vertex -1.41842 -3.74006 2
      vertex -1.41842 -3.74006 0
      vertex -2.99404 -2.65249 2
    endloop
  endfacet
  facet normal 0.568065 0.822984 0
    outer loop
      vertex -2.99404 -2.65249 2
      vertex -1.41842 -3.74006 0
      vertex -2.99404 -2.65249 0
    endloop
  endfacet
  facet normal 0.885456 0.464723 0
    outer loop
      vertex -3.88377 -0.957263 2
      vertex -2.99404 -2.65249 2
      vertex -2.99404 -2.65249 0
    endloop
  endfacet
  facet normal 0.885456 0.464723 0
    outer loop
      vertex -3.88377 -0.957263 0
      vertex -3.88377 -0.957263 2
      vertex -2.99404 -2.65249 0
    endloop
  endfacet
  facet normal 0 0 1
    outer loop
      vertex -14.6722 3.11867 1.7
      vertex -15 0 1.7
      vertex -14.6722 -3.11867 1.7
    endloop
  endfacet
  facet normal 0 0 1
    outer loop
      vertex -12.1353 -8.81678 1.7
      vertex -14.6722 3.11867 1.7
      vertex -13.7032 -6.10105 1.7
    endloop
  endfacet
  facet normal 0 0 1
    outer loop
      vertex -13.7032 -6.10105 1.7
      vertex -14.6722 3.11867 1.7
      vertex -14.6722 -3.11867 1.7
    endloop
  endfacet
  facet normal 0 0 1
    outer loop
      vertex -10.037 -11.1472 1.7
      vertex -14.6722 3.11867 1.7
      vertex -12.1353 -8.81678 1.7
    endloop
  endfacet
  facet normal 0 0 1
    outer loop
      vertex -7.5 -12.9904 1.7
      vertex -14.6722 3.11867 1.7
      vertex -10.037 -11.1472 1.7
    endloop
  endfacet
  facet normal 0 0 1
    outer loop
      vertex -4.63525 -14.2658 1.7
      vertex -14.6722 3.11867 1.7
      vertex -7.5 -12.9904 1.7
    endloop
  endfacet
  facet normal 0 0 1
    outer loop
      vertex -1.56793 -14.9178 1.7
      vertex -14.6722 3.11867 1.7
      vertex -4.63525 -14.2658 1.7
    endloop
  endfacet
  facet normal 0 0 1
    outer loop
      vertex 1.56793 -14.9178 1.7
      vertex -14.6722 3.11867 1.7
      vertex -1.56793 -14.9178 1.7
    endloop
  endfacet
  facet normal 0 0 1
    outer loop
      vertex 4.63525 -14.2658 1.7
      vertex -14.6722 3.11867 1.7
      vertex 1.56793 -14.9178 1.7
    endloop
  endfacet
  facet normal 0 0 1
    outer loop
      vertex 7.5 -12.9904 1.7
      vertex -14.6722 3.11867 1.7
      vertex 4.63525 -14.2658 1.7
    endloop
  endfacet
  facet normal 0 0 1
    outer loop
      vertex -1.91342 -4.6194 1.7
      vertex -14.6722 3.11867 1.7
      vertex 7.5 -12.9904 1.7
    endloop
  endfacet
  facet normal 0 0 1
    outer loop
      vertex 4.6194 -1.91342 1.7
      vertex 3.53553 -3.53553 1.7
      vertex 13.7032 -6.10105 1.7
    endloop
  endfacet
  facet normal 0 0 1
    outer loop
      vertex -3.53553 3.53553 1.7
      vertex -1.91342 4.6194 1.7
      vertex -14.6722 3.11867 1.7
    endloop
  endfacet
  facet normal 0 0 1
    outer loop
      vertex 10.037 11.1472 1.7
      vertex -14.6722 3.11867 1.7
      vertex 12.1353 8.81678 1.7
    endloop
  endfacet
  facet normal 0 0 1
    outer loop
      vertex 7.5 12.9904 1.7
      vertex -14.6722 3.11867 1.7
      vertex 10.037 11.1472 1.7
    endloop
  endfacet
  facet normal 0 0 1
    outer loop
      vertex 4.63525 14.2658 1.7
      vertex -14.6722 3.11867 1.7
      vertex 7.5 12.9904 1.7
    endloop
  endfacet
  facet normal 0 0 1
    outer loop
      vertex 1.56793 14.9178 1.7
      vertex -14.6722 3.11867 1.7
      vertex 4.63525 14.2658 1.7
    endloop
  endfacet
  facet normal 0 0 1
    outer loop
      vertex -1.56793 14.9178 1.7
      vertex -14.6722 3.11867 1.7
      vertex 1.56793 14.9178 1.7
    endloop
  endfacet
  facet normal 0 0 1
    outer loop
      vertex -4.63525 14.2658 1.7
      vertex -14.6722 3.11867 1.7
      vertex -1.56793 14.9178 1.7
    endloop
  endfacet
  facet normal 0 0 1
    outer loop
      vertex -7.5 12.9904 1.7
      vertex -14.6722 3.11867 1.7
      vertex -4.63525 14.2658 1.7
    endloop
  endfacet
  facet normal 0 0 1
    outer loop
      vertex -10.037 11.1472 1.7
      vertex -14.6722 3.11867 1.7
      vertex -7.5 12.9904 1.7
    endloop
  endfacet
  facet normal 0 0 1
    outer loop
      vertex -12.1353 8.81678 1.7
      vertex -14.6722 3.11867 1.7
      vertex -10.037 11.1472 1.7
    endloop
  endfacet
  facet normal 0 0 1
    outer loop
      vertex -13.7032 6.10105 1.7
      vertex -14.6722 3.11867 1.7
      vertex -12.1353 8.81678 1.7
    endloop
  endfacet
  facet normal 0 0 1
    outer loop
      vertex 0 -5 1.7
      vertex -1.91342 -4.6194 1.7
      vertex 10.037 -11.1472 1.7
    endloop
  endfacet
  facet normal 0 0 1
    outer loop
      vertex -4.6194 1.91342 1.7
      vertex -3.53553 3.53553 1.7
      vertex -14.6722 3.11867 1.7
    endloop
  endfacet
  facet normal 0 0 1
    outer loop
      vertex 3.53553 -3.53553 1.7
      vertex 1.91342 -4.6194 1.7
      vertex 12.1353 -8.81678 1.7
    endloop
  endfacet
  facet normal 0 0 1
    outer loop
      vertex 4.6194 1.91342 1.7
      vertex 5 0 1.7
      vertex 15 0 1.7
    endloop
  endfacet
  facet normal 0 0 1
    outer loop
      vertex 5 0 1.7
      vertex 4.6194 -1.91342 1.7
      vertex 14.6722 -3.11867 1.7
    endloop
  endfacet
  facet normal 0 0 1
    outer loop
      vertex 1.91342 4.6194 1.7
      vertex 3.53553 3.53553 1.7
      vertex 13.7032 6.10105 1.7
    endloop
  endfacet
  facet normal 0 0 1
    outer loop
      vertex 12.1353 8.81678 1.7
      vertex -14.6722 3.11867 1.7
      vertex -1.91342 4.6194 1.7
    endloop
  endfacet
  facet normal 0 0 1
    outer loop
      vertex 12.1353 8.81678 1.7
      vertex 0 5 1.7
      vertex 13.7032 6.10105 1.7
    endloop
  endfacet
  facet normal 0 0 1
    outer loop
      vertex 12.1353 8.81678 1.7
      vertex -1.91342 4.6194 1.7
      vertex 0 5 1.7
    endloop
  endfacet
  facet normal 0 0 1
    outer loop
      vertex 3.53553 3.53553 1.7
      vertex 4.6194 1.91342 1.7
      vertex 14.6722 3.11867 1.7
    endloop
  endfacet
  facet normal 0 0 1
    outer loop
      vertex 0 5 1.7
      vertex 1.91342 4.6194 1.7
      vertex 13.7032 6.10105 1.7
    endloop
  endfacet
  facet normal 0 0 1
    outer loop
      vertex 13.7032 6.10105 1.7
      vertex 3.53553 3.53553 1.7
      vertex 14.6722 3.11867 1.7
    endloop
  endfacet
  facet normal 0 0 1
    outer loop
      vertex 14.6722 3.11867 1.7
      vertex 4.6194 1.91342 1.7
      vertex 15 0 1.7
    endloop
  endfacet
  facet normal 0 0 1
    outer loop
      vertex 15 0 1.7
      vertex 5 0 1.7
      vertex 14.6722 -3.11867 1.7
    endloop
  endfacet
  facet normal 0 0 1
    outer loop
      vertex 14.6722 -3.11867 1.7
      vertex 4.6194 -1.91342 1.7
      vertex 13.7032 -6.10105 1.7
    endloop
  endfacet
  facet normal 0 0 1
    outer loop
      vertex 13.7032 -6.10105 1.7
      vertex 3.53553 -3.53553 1.7
      vertex 12.1353 -8.81678 1.7
    endloop
  endfacet
  facet normal 0 0 1
    outer loop
      vertex -5 0 1.7
      vertex -4.6194 1.91342 1.7
      vertex -14.6722 3.11867 1.7
    endloop
  endfacet
  facet normal 0 0 1
    outer loop
      vertex 12.1353 -8.81678 1.7
      vertex 1.91342 -4.6194 1.7
      vertex 10.037 -11.1472 1.7
    endloop
  endfacet
  facet normal 0 0 1
    outer loop
      vertex 10.037 -11.1472 1.7
      vertex -1.91342 -4.6194 1.7
      vertex 7.5 -12.9904 1.7
    endloop
  endfacet
  facet normal 0 0 1
    outer loop
      vertex -3.53553 -3.53553 1.7
      vertex -14.6722 3.11867 1.7
      vertex -1.91342 -4.6194 1.7
    endloop
  endfacet
  facet normal 0 0 1
    outer loop
      vertex 1.91342 -4.6194 1.7
      vertex 0 -5 1.7
      vertex 10.037 -11.1472 1.7
    endloop
  endfacet
  facet normal 0 0 1
    outer loop
      vertex -3.53553 -3.53553 1.7
      vertex -4.6194 -1.91342 1.7
      vertex -14.6722 3.11867 1.7
    endloop
  endfacet
  facet normal 0 0 1
    outer loop
      vertex -4.6194 -1.91342 1.7
      vertex -5 0 1.7
      vertex -14.6722 3.11867 1.7
    endloop
  endfacet
  facet normal 0 0 1
    outer loop
      vertex -4.6194 1.91342 2
      vertex -5 0 2
      vertex -4.6194 -1.91342 2
    endloop
  endfacet
  facet normal 0 0 1
    outer loop
      vertex -3.88377 -0.957263 2
      vertex -4.6194 1.91342 2
      vertex -3.53553 -3.53553 2
    endloop
  endfacet
  facet normal 0 0 1
    outer loop
      vertex -3.53553 -3.53553 2
      vertex -4.6194 1.91342 2
      vertex -4.6194 -1.91342 2
    endloop
  endfacet
  facet normal 0 0 1
    outer loop
      vertex 2.27226 3.29194 2
      vertex 4.6194 1.91342 2
      vertex 3.53553 3.53553 2
    endloop
  endfacet
  facet normal 0 0 1
    outer loop
      vertex -1.91342 4.6194 2
      vertex -4.6194 1.91342 2
      vertex 0 5 2
    endloop
  endfacet
  facet normal 0 0 1
    outer loop
      vertex -3.53553 3.53553 2
      vertex -4.6194 1.91342 2
      vertex -1.91342 4.6194 2
    endloop
  endfacet
  facet normal 0 0 1
    outer loop
      vertex -2.99404 -2.65249 2
      vertex -3.88377 -0.957263 2
      vertex -3.53553 -3.53553 2
    endloop
  endfacet
  facet normal 0 0 1
    outer loop
      vertex 3.54182 1.85889 2
      vertex 4 0 2
      vertex 5 0 2
    endloop
  endfacet
  facet normal 0 0 1
    outer loop
      vertex 2.27226 3.29194 2
      vertex 3.54182 1.85889 2
      vertex 4.6194 1.91342 2
    endloop
  endfacet
  facet normal 0 0 1
    outer loop
      vertex 0 5 2
      vertex -4.6194 1.91342 2
      vertex -2.99404 2.65249 2
    endloop
  endfacet
  facet normal 0 0 1
    outer loop
      vertex 0 5 2
      vertex -1.41842 3.74006 2
      vertex 1.91342 4.6194 2
    endloop
  endfacet
  facet normal 0 0 1
    outer loop
      vertex 0 5 2
      vertex -2.99404 2.65249 2
      vertex -1.41842 3.74006 2
    endloop
  endfacet
  facet normal 0 0 1
    outer loop
      vertex 1.91342 4.6194 2
      vertex 0.482147 3.97083 2
      vertex 3.53553 3.53553 2
    endloop
  endfacet
  facet normal 0 0 1
    outer loop
      vertex -1.41842 3.74006 2
      vertex 0.482147 3.97083 2
      vertex 1.91342 4.6194 2
    endloop
  endfacet
  facet normal 0 0 1
    outer loop
      vertex 0.482147 3.97083 2
      vertex 2.27226 3.29194 2
      vertex 3.53553 3.53553 2
    endloop
  endfacet
  facet normal 0 0 1
    outer loop
      vertex 2.27226 -3.29194 2
      vertex 0.482147 -3.97083 2
      vertex 1.91342 -4.6194 2
    endloop
  endfacet
  facet normal 0 0 1
    outer loop
      vertex 4.6194 1.91342 2
      vertex 3.54182 1.85889 2
      vertex 5 0 2
    endloop
  endfacet
  facet normal 0 0 1
    outer loop
      vertex 5 0 2
      vertex 4 0 2
      vertex 4.6194 -1.91342 2
    endloop
  endfacet
  facet normal 0 0 1
    outer loop
      vertex 4.6194 -1.91342 2
      vertex 3.54182 -1.85889 2
      vertex 3.53553 -3.53553 2
    endloop
  endfacet
  facet normal 0 0 1
    outer loop
      vertex 3.53553 -3.53553 2
      vertex 2.27226 -3.29194 2
      vertex 1.91342 -4.6194 2
    endloop
  endfacet
  facet normal 0 0 1
    outer loop
      vertex 1.91342 -4.6194 2
      vertex 0.482147 -3.97083 2
      vertex 0 -5 2
    endloop
  endfacet
  facet normal 0 0 1
    outer loop
      vertex 0 -5 2
      vertex -1.41842 -3.74006 2
      vertex -1.91342 -4.6194 2
    endloop
  endfacet
  facet normal 0 0 1
    outer loop
      vertex -1.91342 -4.6194 2
      vertex -2.99404 -2.65249 2
      vertex -3.53553 -3.53553 2
    endloop
  endfacet
  facet normal 0 0 1
    outer loop
      vertex -3.88377 -0.957263 2
      vertex -3.88377 0.957263 2
      vertex -4.6194 1.91342 2
    endloop
  endfacet
  facet normal 0 0 1
    outer loop
      vertex 4 0 2
      vertex 3.54182 -1.85889 2
      vertex 4.6194 -1.91342 2
    endloop
  endfacet
  facet normal 0 0 1
    outer loop
      vertex 3.54182 -1.85889 2
      vertex 2.27226 -3.29194 2
      vertex 3.53553 -3.53553 2
    endloop
  endfacet
  facet normal 0 0 1
    outer loop
      vertex -1.41842 -3.74006 2
      vertex -2.99404 -2.65249 2
      vertex -1.91342 -4.6194 2
    endloop
  endfacet
  facet normal 0 0 1
    outer loop
      vertex 0.482147 -3.97083 2
      vertex -1.41842 -3.74006 2
      vertex 0 -5 2
    endloop
  endfacet
  facet normal 0 0 1
    outer loop
      vertex -3.88377 0.957263 2
      vertex -2.99404 2.65249 2
      vertex -4.6194 1.91342 2
    endloop
  endfacet
  facet normal -0.980785 -0.19509 0
    outer loop
      vertex -5 0 1.7
      vertex -4.6194 -1.91342 1.7
      vertex -5 0 2
    endloop
  endfacet
  facet normal -0.980785 -0.19509 0
    outer loop
      vertex -5 0 2
      vertex -4.6194 -1.91342 1.7
      vertex -4.6194 -1.91342 2
    endloop
  endfacet
  facet normal -0.83147 -0.55557 0
    outer loop
      vertex -4.6194 -1.91342 1.7
      vertex -3.53553 -3.53553 1.7
      vertex -4.6194 -1.91342 2
    endloop
  endfacet
  facet normal -0.83147 -0.55557 0
    outer loop
      vertex -4.6194 -1.91342 2
      vertex -3.53553 -3.53553 1.7
      vertex -3.53553 -3.53553 2
    endloop
  endfacet
  facet normal -0.55557 -0.83147 0
    outer loop
      vertex -3.53553 -3.53553 2
      vertex -3.53553 -3.53553 1.7
      vertex -1.91342 -4.6194 1.7
    endloop
  endfacet
  facet normal -0.55557 -0.83147 0
    outer loop
      vertex -1.91342 -4.6194 2
      vertex -3.53553 -3.53553 2
      vertex -1.91342 -4.6194 1.7
    endloop
  endfacet
  facet normal -0.19509 -0.980785 0
    outer loop
      vertex -1.91342 -4.6194 2
      vertex -1.91342 -4.6194 1.7
      vertex 0 -5 1.7
    endloop
  endfacet
  facet normal -0.19509 -0.980785 0
    outer loop
      vertex 0 -5 2
      vertex -1.91342 -4.6194 2
      vertex 0 -5 1.7
    endloop
  endfacet
  facet normal 0.19509 -0.980785 0
    outer loop
      vertex 0 -5 2
      vertex 0 -5 1.7
      vertex 1.91342 -4.6194 1.7
    endloop
  endfacet
  facet normal 0.19509 -0.980785 0
    outer loop
      vertex 1.91342 -4.6194 2
      vertex 0 -5 2
      vertex 1.91342 -4.6194 1.7
    endloop
  endfacet
  facet normal 0.55557 -0.83147 0
    outer loop
      vertex 1.91342 -4.6194 2
      vertex 1.91342 -4.6194 1.7
      vertex 3.53553 -3.53553 1.7
    endloop
  endfacet
  facet normal 0.55557 -0.83147 0
    outer loop
      vertex 3.53553 -3.53553 2
      vertex 1.91342 -4.6194 2
      vertex 3.53553 -3.53553 1.7
    endloop
  endfacet
  facet normal 0.83147 -0.55557 0
    outer loop
      vertex 3.53553 -3.53553 2
      vertex 3.53553 -3.53553 1.7
      vertex 4.6194 -1.91342 1.7
    endloop
  endfacet
  facet normal 0.83147 -0.55557 0
    outer loop
      vertex 4.6194 -1.91342 2
      vertex 3.53553 -3.53553 2
      vertex 4.6194 -1.91342 1.7
    endloop
  endfacet
  facet normal 0.980785 -0.19509 0
    outer loop
      vertex 4.6194 -1.91342 2
      vertex 4.6194 -1.91342 1.7
      vertex 5 0 1.7
    endloop
  endfacet
  facet normal 0.980785 -0.19509 0
    outer loop
      vertex 5 0 2
      vertex 4.6194 -1.91342 2
      vertex 5 0 1.7
    endloop
  endfacet
  facet normal 0.980785 0.19509 0
    outer loop
      vertex 5 0 1.7
      vertex 4.6194 1.91342 1.7
      vertex 4.6194 1.91342 2
    endloop
  endfacet
  facet normal 0.980785 0.19509 0
    outer loop
      vertex 5 0 2
      vertex 5 0 1.7
      vertex 4.6194 1.91342 2
    endloop
  endfacet
  facet normal 0.83147 0.55557 0
    outer loop
      vertex 4.6194 1.91342 1.7
      vertex 3.53553 3.53553 1.7
      vertex 3.53553 3.53553 2
    endloop
  endfacet
  facet normal 0.83147 0.55557 0
    outer loop
      vertex 4.6194 1.91342 2
      vertex 4.6194 1.91342 1.7
      vertex 3.53553 3.53553 2
    endloop
  endfacet
  facet normal 0.55557 0.83147 0
    outer loop
      vertex 1.91342 4.6194 1.7
      vertex 1.91342 4.6194 2
      vertex 3.53553 3.53553 1.7
    endloop
  endfacet
  facet normal 0.55557 0.83147 0
    outer loop
      vertex 3.53553 3.53553 1.7
      vertex 1.91342 4.6194 2
      vertex 3.53553 3.53553 2
    endloop
  endfacet
  facet normal 0.19509 0.980785 0
    outer loop
      vertex 0 5 1.7
      vertex 0 5 2
      vertex 1.91342 4.6194 1.7
    endloop
  endfacet
  facet normal 0.19509 0.980785 0
    outer loop
      vertex 1.91342 4.6194 1.7
      vertex 0 5 2
      vertex 1.91342 4.6194 2
    endloop
  endfacet
  facet normal -0.19509 0.980785 0
    outer loop
      vertex -1.91342 4.6194 1.7
      vertex -1.91342 4.6194 2
      vertex 0 5 1.7
    endloop
  endfacet
  facet normal -0.19509 0.980785 0
    outer loop
      vertex 0 5 1.7
      vertex -1.91342 4.6194 2
      vertex 0 5 2
    endloop
  endfacet
  facet normal -0.55557 0.83147 0
    outer loop
      vertex -3.53553 3.53553 1.7
      vertex -3.53553 3.53553 2
      vertex -1.91342 4.6194 1.7
    endloop
  endfacet
  facet normal -0.55557 0.83147 0
    outer loop
      vertex -1.91342 4.6194 1.7
      vertex -3.53553 3.53553 2
      vertex -1.91342 4.6194 2
    endloop
  endfacet
  facet normal -0.83147 0.55557 0
    outer loop
      vertex -4.6194 1.91342 1.7
      vertex -4.6194 1.91342 2
      vertex -3.53553 3.53553 1.7
    endloop
  endfacet
  facet normal -0.83147 0.55557 0
    outer loop
      vertex -3.53553 3.53553 1.7
      vertex -4.6194 1.91342 2
      vertex -3.53553 3.53553 2
    endloop
  endfacet
  facet normal -0.980785 0.19509 0
    outer loop
      vertex -5 0 1.7
      vertex -5 0 2
      vertex -4.6194 1.91342 1.7
    endloop
  endfacet
  facet normal -0.980785 0.19509 0
    outer loop
      vertex -4.6194 1.91342 1.7
      vertex -5 0 2
      vertex -4.6194 1.91342 2
    endloop
  endfacet
endsolid OpenSCAD_Model
