solid OpenSCAD_Model
  facet normal -1 0 0
    outer loop
      vertex -60 14.1421 -10
      vertex -60 14.1421 10
      vertex -60 23.2334 -10
    endloop
  endfacet
  facet normal -1 0 0
    outer loop
      vertex -60 23.2334 -10
      vertex -60 14.1421 10
      vertex -60 23.2334 10
    endloop
  endfacet
  facet normal -0.707107 -0.707107 0
    outer loop
      vertex -47.8579 2 -10
      vertex -47.8579 2 10
      vertex -60 14.1421 10
    endloop
  endfacet
  facet normal -0.707107 -0.707107 0
    outer loop
      vertex -60 14.1421 -10
      vertex -47.8579 2 -10
      vertex -60 14.1421 10
    endloop
  endfacet
  facet normal 0 0 -1
    outer loop
      vertex -60 14.1421 -10
      vertex -60 23.2334 -10
      vertex -47.8579 2 -10
    endloop
  endfacet
  facet normal 0 0 -1
    outer loop
      vertex -47.8579 2 -10
      vertex -60 23.2334 -10
      vertex -59.5801 24.9368 -10
    endloop
  endfacet
  facet normal 0 0 -1
    outer loop
      vertex -47.8579 2 -10
      vertex -59.5801 24.9368 -10
      vertex -58.6839 26.6445 -10
    endloop
  endfacet
  facet normal 0 0 -1
    outer loop
      vertex -47.8579 2 -10
      vertex -58.6839 26.6445 -10
      vertex -57.405 28.0881 -10
    endloop
  endfacet
  facet normal 0 0 -1
    outer loop
      vertex -54.0784 20 -10
      vertex -57.405 28.0881 -10
      vertex -55.8178 29.1836 -10
    endloop
  endfacet
  facet normal 0 0 -1
    outer loop
      vertex -52.8838 22.8838 -10
      vertex -55.8178 29.1836 -10
      vertex -54.0145 29.8675 -10
    endloop
  endfacet
  facet normal 0 0 -1
    outer loop
      vertex -47.1162 22.8838 -10
      vertex -52.9236 30 -10
      vertex -20 30 -10
    endloop
  endfacet
  facet normal 0 0 -1
    outer loop
      vertex -47.8579 2 -10
      vertex -20 30 -10
      vertex -20 19.95 -10
    endloop
  endfacet
  facet normal 0 0 -1
    outer loop
      vertex -15.1 15.1 -10
      vertex -20 19.95 -10
      vertex 20 19.95 -10
    endloop
  endfacet
  facet normal 0 0 -1
    outer loop
      vertex 20 19.95 -10
      vertex 20 30 -10
      vertex 53.2334 30 -10
    endloop
  endfacet
  facet normal 0 0 -1
    outer loop
      vertex 20 19.95 -10
      vertex 53.2334 30 -10
      vertex 54.9368 29.5801 -10
    endloop
  endfacet
  facet normal 0 0 -1
    outer loop
      vertex 20 19.95 -10
      vertex 54.9368 29.5801 -10
      vertex 56.6445 28.6839 -10
    endloop
  endfacet
  facet normal 0 0 -1
    outer loop
      vertex 50 24.0784 -10
      vertex 58.0881 27.405 -10
      vertex 59.1836 25.8178 -10
    endloop
  endfacet
  facet normal 0 0 -1
    outer loop
      vertex 52.8838 22.8838 -10
      vertex 59.1836 25.8178 -10
      vertex 59.8675 24.0145 -10
    endloop
  endfacet
  facet normal 0 0 -1
    outer loop
      vertex 20 19.95 -10
      vertex 58.0881 27.405 -10
      vertex 48.4393 23.7679 -10
    endloop
  endfacet
  facet normal 0 0 -1
    outer loop
      vertex 52.8838 17.1162 -10
      vertex 60 22.9236 -10
      vertex 60 14.1421 -10
    endloop
  endfacet
  facet normal 0 0 -1
    outer loop
      vertex 15.1 2 -10
      vertex 60 14.1421 -10
      vertex 47.8579 2 -10
    endloop
  endfacet
  facet normal 0 0 -1
    outer loop
      vertex 20 19.95 -10
      vertex 56.6445 28.6839 -10
      vertex 58.0881 27.405 -10
    endloop
  endfacet
  facet normal 0 0 -1
    outer loop
      vertex -47.8579 2 -10
      vertex -20 19.95 -10
      vertex -15.1 15.1 -10
    endloop
  endfacet
  facet normal 0 0 -1
    outer loop
      vertex -15.1 2 -10
      vertex -47.8579 2 -10
      vertex -15.1 15.1 -10
    endloop
  endfacet
  facet normal 0 0 -1
    outer loop
      vertex -53.7679 18.4393 -10
      vertex -57.405 28.0881 -10
      vertex -54.0784 20 -10
    endloop
  endfacet
  facet normal 0 0 -1
    outer loop
      vertex -52.8838 17.1162 -10
      vertex -47.8579 2 -10
      vertex -53.7679 18.4393 -10
    endloop
  endfacet
  facet normal 0 0 -1
    outer loop
      vertex -47.8579 2 -10
      vertex -57.405 28.0881 -10
      vertex -53.7679 18.4393 -10
    endloop
  endfacet
  facet normal 0 0 -1
    outer loop
      vertex 45.9216 20 -10
      vertex 15.1 15.1 -10
      vertex 46.2321 21.5607 -10
    endloop
  endfacet
  facet normal 0 0 -1
    outer loop
      vertex -51.5607 16.2321 -10
      vertex -47.8579 2 -10
      vertex -52.8838 17.1162 -10
    endloop
  endfacet
  facet normal 0 0 -1
    outer loop
      vertex -50 15.9216 -10
      vertex -47.8579 2 -10
      vertex -51.5607 16.2321 -10
    endloop
  endfacet
  facet normal 0 0 -1
    outer loop
      vertex -46.2321 18.4393 -10
      vertex -20 30 -10
      vertex -47.1162 17.1162 -10
    endloop
  endfacet
  facet normal 0 0 -1
    outer loop
      vertex -47.8579 2 -10
      vertex -50 15.9216 -10
      vertex -48.4393 16.2321 -10
    endloop
  endfacet
  facet normal 0 0 -1
    outer loop
      vertex -47.8579 2 -10
      vertex -48.4393 16.2321 -10
      vertex -20 30 -10
    endloop
  endfacet
  facet normal 0 0 -1
    outer loop
      vertex -48.4393 16.2321 -10
      vertex -47.1162 17.1162 -10
      vertex -20 30 -10
    endloop
  endfacet
  facet normal 0 0 -1
    outer loop
      vertex -52.8838 22.8838 -10
      vertex -54.0145 29.8675 -10
      vertex -52.9236 30 -10
    endloop
  endfacet
  facet normal 0 0 -1
    outer loop
      vertex -48.4393 23.7679 -10
      vertex -52.9236 30 -10
      vertex -47.1162 22.8838 -10
    endloop
  endfacet
  facet normal 0 0 -1
    outer loop
      vertex -52.8838 22.8838 -10
      vertex -52.9236 30 -10
      vertex -51.5607 23.7679 -10
    endloop
  endfacet
  facet normal 0 0 -1
    outer loop
      vertex -46.2321 18.4393 -10
      vertex -45.9216 20 -10
      vertex -20 30 -10
    endloop
  endfacet
  facet normal 0 0 -1
    outer loop
      vertex -50 24.0784 -10
      vertex -52.9236 30 -10
      vertex -48.4393 23.7679 -10
    endloop
  endfacet
  facet normal 0 0 -1
    outer loop
      vertex -45.9216 20 -10
      vertex -46.2321 21.5607 -10
      vertex -20 30 -10
    endloop
  endfacet
  facet normal 0 0 -1
    outer loop
      vertex -46.2321 21.5607 -10
      vertex -47.1162 22.8838 -10
      vertex -20 30 -10
    endloop
  endfacet
  facet normal 0 0 -1
    outer loop
      vertex -51.5607 23.7679 -10
      vertex -52.9236 30 -10
      vertex -50 24.0784 -10
    endloop
  endfacet
  facet normal 0 0 -1
    outer loop
      vertex 50 24.0784 -10
      vertex 59.1836 25.8178 -10
      vertex 51.5607 23.7679 -10
    endloop
  endfacet
  facet normal 0 0 -1
    outer loop
      vertex -53.7679 21.5607 -10
      vertex -55.8178 29.1836 -10
      vertex -52.8838 22.8838 -10
    endloop
  endfacet
  facet normal 0 0 -1
    outer loop
      vertex 47.1162 22.8838 -10
      vertex 15.1 15.1 -10
      vertex 48.4393 23.7679 -10
    endloop
  endfacet
  facet normal 0 0 -1
    outer loop
      vertex -15.1 15.1 -10
      vertex 20 19.95 -10
      vertex 48.4393 23.7679 -10
    endloop
  endfacet
  facet normal 0 0 -1
    outer loop
      vertex 52.8838 22.8838 -10
      vertex 60 22.9236 -10
      vertex 53.7679 21.5607 -10
    endloop
  endfacet
  facet normal 0 0 -1
    outer loop
      vertex 46.2321 21.5607 -10
      vertex 15.1 15.1 -10
      vertex 47.1162 22.8838 -10
    endloop
  endfacet
  facet normal 0 0 -1
    outer loop
      vertex -15.1 15.1 -10
      vertex 48.4393 23.7679 -10
      vertex 15.1 15.1 -10
    endloop
  endfacet
  facet normal 0 0 -1
    outer loop
      vertex 52.8838 17.1162 -10
      vertex 60 14.1421 -10
      vertex 51.5607 16.2321 -10
    endloop
  endfacet
  facet normal 0 0 -1
    outer loop
      vertex 53.7679 18.4393 -10
      vertex 60 22.9236 -10
      vertex 52.8838 17.1162 -10
    endloop
  endfacet
  facet normal 0 0 -1
    outer loop
      vertex 52.8838 22.8838 -10
      vertex 59.8675 24.0145 -10
      vertex 60 22.9236 -10
    endloop
  endfacet
  facet normal 0 0 -1
    outer loop
      vertex 54.0784 20 -10
      vertex 60 22.9236 -10
      vertex 53.7679 18.4393 -10
    endloop
  endfacet
  facet normal 0 0 -1
    outer loop
      vertex 53.7679 21.5607 -10
      vertex 60 22.9236 -10
      vertex 54.0784 20 -10
    endloop
  endfacet
  facet normal 0 0 -1
    outer loop
      vertex 51.5607 23.7679 -10
      vertex 59.1836 25.8178 -10
      vertex 52.8838 22.8838 -10
    endloop
  endfacet
  facet normal 0 0 -1
    outer loop
      vertex 48.4393 23.7679 -10
      vertex 58.0881 27.405 -10
      vertex 50 24.0784 -10
    endloop
  endfacet
  facet normal 0 0 -1
    outer loop
      vertex 51.5607 16.2321 -10
      vertex 60 14.1421 -10
      vertex 50 15.9216 -10
    endloop
  endfacet
  facet normal 0 0 -1
    outer loop
      vertex 15.1 15.1 -10
      vertex 45.9216 20 -10
      vertex 46.2321 18.4393 -10
    endloop
  endfacet
  facet normal 0 0 -1
    outer loop
      vertex 15.1 15.1 -10
      vertex 46.2321 18.4393 -10
      vertex 47.1162 17.1162 -10
    endloop
  endfacet
  facet normal 0 0 -1
    outer loop
      vertex 15.1 15.1 -10
      vertex 47.1162 17.1162 -10
      vertex 48.4393 16.2321 -10
    endloop
  endfacet
  facet normal 0 0 -1
    outer loop
      vertex 15.1 15.1 -10
      vertex 48.4393 16.2321 -10
      vertex 50 15.9216 -10
    endloop
  endfacet
  facet normal 0 0 -1
    outer loop
      vertex 15.1 15.1 -10
      vertex 50 15.9216 -10
      vertex 60 14.1421 -10
    endloop
  endfacet
  facet normal 0 0 -1
    outer loop
      vertex 15.1 15.1 -10
      vertex 60 14.1421 -10
      vertex 15.1 2 -10
    endloop
  endfacet
  facet normal 0 0 -1
    outer loop
      vertex -54.0784 20 -10
      vertex -55.8178 29.1836 -10
      vertex -53.7679 21.5607 -10
    endloop
  endfacet
  facet normal -0.970942 0.239316 0
    outer loop
      vertex -60 23.2334 -10
      vertex -60 23.2334 10
      vertex -59.5801 24.9368 -10
    endloop
  endfacet
  facet normal -0.970942 0.239316 0
    outer loop
      vertex -59.5801 24.9368 -10
      vertex -60 23.2334 10
      vertex -59.5801 24.9368 10
    endloop
  endfacet
  facet normal 0 0 1
    outer loop
      vertex -60 23.2334 10
      vertex -60 14.1421 10
      vertex -47.8579 2 10
    endloop
  endfacet
  facet normal 0 0 1
    outer loop
      vertex -53.7679 18.4393 10
      vertex -60 23.2334 10
      vertex -47.8579 2 10
    endloop
  endfacet
  facet normal 0 0 1
    outer loop
      vertex 47.8579 2 10
      vertex 15.1 15.1 10
      vertex 15.1 2 10
    endloop
  endfacet
  facet normal 0 0 1
    outer loop
      vertex 60 14.1421 10
      vertex 15.1 15.1 10
      vertex 47.8579 2 10
    endloop
  endfacet
  facet normal 0 0 1
    outer loop
      vertex -46.2321 21.5607 10
      vertex -45.9216 20 10
      vertex -15.1 15.1 10
    endloop
  endfacet
  facet normal 0 0 1
    outer loop
      vertex -50 24.0784 10
      vertex -20 30 10
      vertex -60 23.2334 10
    endloop
  endfacet
  facet normal 0 0 1
    outer loop
      vertex -20 19.95 10
      vertex -20 30 10
      vertex -50 24.0784 10
    endloop
  endfacet
  facet normal 0 0 1
    outer loop
      vertex 50 15.9216 10
      vertex 20 19.95 10
      vertex 60 14.1421 10
    endloop
  endfacet
  facet normal 0 0 1
    outer loop
      vertex 60 14.1421 10
      vertex -20 19.95 10
      vertex 15.1 15.1 10
    endloop
  endfacet
  facet normal 0 0 1
    outer loop
      vertex -52.9236 30 10
      vertex -60 23.2334 10
      vertex -20 30 10
    endloop
  endfacet
  facet normal 0 0 1
    outer loop
      vertex -54.0145 29.8675 10
      vertex -60 23.2334 10
      vertex -52.9236 30 10
    endloop
  endfacet
  facet normal 0 0 1
    outer loop
      vertex -55.8178 29.1836 10
      vertex -60 23.2334 10
      vertex -54.0145 29.8675 10
    endloop
  endfacet
  facet normal 0 0 1
    outer loop
      vertex -57.405 28.0881 10
      vertex -60 23.2334 10
      vertex -55.8178 29.1836 10
    endloop
  endfacet
  facet normal 0 0 1
    outer loop
      vertex -58.6839 26.6445 10
      vertex -60 23.2334 10
      vertex -57.405 28.0881 10
    endloop
  endfacet
  facet normal 0 0 1
    outer loop
      vertex -59.5801 24.9368 10
      vertex -60 23.2334 10
      vertex -58.6839 26.6445 10
    endloop
  endfacet
  facet normal 0 0 1
    outer loop
      vertex -52.8838 17.1162 10
      vertex -53.7679 18.4393 10
      vertex -47.8579 2 10
    endloop
  endfacet
  facet normal 0 0 1
    outer loop
      vertex -54.0784 20 10
      vertex -60 23.2334 10
      vertex -53.7679 18.4393 10
    endloop
  endfacet
  facet normal 0 0 1
    outer loop
      vertex 46.2321 21.5607 10
      vertex 47.1162 22.8838 10
      vertex 20 19.95 10
    endloop
  endfacet
  facet normal 0 0 1
    outer loop
      vertex -47.1162 17.1162 10
      vertex -48.4393 16.2321 10
      vertex -15.1 2 10
    endloop
  endfacet
  facet normal 0 0 1
    outer loop
      vertex -47.1162 22.8838 10
      vertex -46.2321 21.5607 10
      vertex 15.1 15.1 10
    endloop
  endfacet
  facet normal 0 0 1
    outer loop
      vertex -50 24.0784 10
      vertex -60 23.2334 10
      vertex -51.5607 23.7679 10
    endloop
  endfacet
  facet normal 0 0 1
    outer loop
      vertex -54.0784 20 10
      vertex -53.7679 21.5607 10
      vertex -60 23.2334 10
    endloop
  endfacet
  facet normal 0 0 1
    outer loop
      vertex 20 19.95 10
      vertex -20 19.95 10
      vertex 60 14.1421 10
    endloop
  endfacet
  facet normal 0 0 1
    outer loop
      vertex 15.1 15.1 10
      vertex -46.2321 21.5607 10
      vertex -15.1 15.1 10
    endloop
  endfacet
  facet normal 0 0 1
    outer loop
      vertex -52.8838 22.8838 10
      vertex -51.5607 23.7679 10
      vertex -60 23.2334 10
    endloop
  endfacet
  facet normal 0 0 1
    outer loop
      vertex -15.1 15.1 10
      vertex -45.9216 20 10
      vertex -15.1 2 10
    endloop
  endfacet
  facet normal 0 0 1
    outer loop
      vertex -45.9216 20 10
      vertex -46.2321 18.4393 10
      vertex -15.1 2 10
    endloop
  endfacet
  facet normal 0 0 1
    outer loop
      vertex -48.4393 16.2321 10
      vertex -50 15.9216 10
      vertex -15.1 2 10
    endloop
  endfacet
  facet normal 0 0 1
    outer loop
      vertex -15.1 2 10
      vertex -50 15.9216 10
      vertex -47.8579 2 10
    endloop
  endfacet
  facet normal 0 0 1
    outer loop
      vertex -50 15.9216 10
      vertex -51.5607 16.2321 10
      vertex -47.8579 2 10
    endloop
  endfacet
  facet normal 0 0 1
    outer loop
      vertex -51.5607 16.2321 10
      vertex -52.8838 17.1162 10
      vertex -47.8579 2 10
    endloop
  endfacet
  facet normal 0 0 1
    outer loop
      vertex 48.4393 16.2321 10
      vertex 47.1162 17.1162 10
      vertex 20 19.95 10
    endloop
  endfacet
  facet normal 0 0 1
    outer loop
      vertex 45.9216 20 10
      vertex 20 19.95 10
      vertex 46.2321 18.4393 10
    endloop
  endfacet
  facet normal 0 0 1
    outer loop
      vertex 46.2321 21.5607 10
      vertex 20 19.95 10
      vertex 45.9216 20 10
    endloop
  endfacet
  facet normal 0 0 1
    outer loop
      vertex 53.7679 21.5607 10
      vertex 54.0784 20 10
      vertex 60 22.9236 10
    endloop
  endfacet
  facet normal 0 0 1
    outer loop
      vertex 51.5607 23.7679 10
      vertex 52.8838 22.8838 10
      vertex 60 22.9236 10
    endloop
  endfacet
  facet normal 0 0 1
    outer loop
      vertex 52.8838 22.8838 10
      vertex 53.7679 21.5607 10
      vertex 60 22.9236 10
    endloop
  endfacet
  facet normal 0 0 1
    outer loop
      vertex -20 19.95 10
      vertex -48.4393 23.7679 10
      vertex -47.1162 22.8838 10
    endloop
  endfacet
  facet normal 0 0 1
    outer loop
      vertex 59.1836 25.8178 10
      vertex 50 24.0784 10
      vertex 59.8675 24.0145 10
    endloop
  endfacet
  facet normal 0 0 1
    outer loop
      vertex -20 19.95 10
      vertex -50 24.0784 10
      vertex -48.4393 23.7679 10
    endloop
  endfacet
  facet normal 0 0 1
    outer loop
      vertex 59.8675 24.0145 10
      vertex 51.5607 23.7679 10
      vertex 60 22.9236 10
    endloop
  endfacet
  facet normal 0 0 1
    outer loop
      vertex 50 24.0784 10
      vertex 51.5607 23.7679 10
      vertex 59.8675 24.0145 10
    endloop
  endfacet
  facet normal 0 0 1
    outer loop
      vertex 52.8838 17.1162 10
      vertex 51.5607 16.2321 10
      vertex 60 14.1421 10
    endloop
  endfacet
  facet normal 0 0 1
    outer loop
      vertex 60 22.9236 10
      vertex 54.0784 20 10
      vertex 60 14.1421 10
    endloop
  endfacet
  facet normal 0 0 1
    outer loop
      vertex 54.0784 20 10
      vertex 53.7679 18.4393 10
      vertex 60 14.1421 10
    endloop
  endfacet
  facet normal 0 0 1
    outer loop
      vertex 53.7679 18.4393 10
      vertex 52.8838 17.1162 10
      vertex 60 14.1421 10
    endloop
  endfacet
  facet normal 0 0 1
    outer loop
      vertex 51.5607 16.2321 10
      vertex 50 15.9216 10
      vertex 60 14.1421 10
    endloop
  endfacet
  facet normal 0 0 1
    outer loop
      vertex 48.4393 16.2321 10
      vertex 20 19.95 10
      vertex 50 15.9216 10
    endloop
  endfacet
  facet normal 0 0 1
    outer loop
      vertex 46.2321 18.4393 10
      vertex 20 19.95 10
      vertex 47.1162 17.1162 10
    endloop
  endfacet
  facet normal 0 0 1
    outer loop
      vertex -47.1162 22.8838 10
      vertex 15.1 15.1 10
      vertex -20 19.95 10
    endloop
  endfacet
  facet normal 0 0 1
    outer loop
      vertex -46.2321 18.4393 10
      vertex -47.1162 17.1162 10
      vertex -15.1 2 10
    endloop
  endfacet
  facet normal 0 0 1
    outer loop
      vertex -53.7679 21.5607 10
      vertex -52.8838 22.8838 10
      vertex -60 23.2334 10
    endloop
  endfacet
  facet normal 0 0 1
    outer loop
      vertex 20 30 10
      vertex 54.9368 29.5801 10
      vertex 53.2334 30 10
    endloop
  endfacet
  facet normal 0 0 1
    outer loop
      vertex 20 30 10
      vertex 56.6445 28.6839 10
      vertex 54.9368 29.5801 10
    endloop
  endfacet
  facet normal 0 0 1
    outer loop
      vertex 20 30 10
      vertex 58.0881 27.405 10
      vertex 56.6445 28.6839 10
    endloop
  endfacet
  facet normal 0 0 1
    outer loop
      vertex 20 30 10
      vertex 59.1836 25.8178 10
      vertex 58.0881 27.405 10
    endloop
  endfacet
  facet normal 0 0 1
    outer loop
      vertex 20 30 10
      vertex 50 24.0784 10
      vertex 59.1836 25.8178 10
    endloop
  endfacet
  facet normal 0 0 1
    outer loop
      vertex 20 30 10
      vertex 48.4393 23.7679 10
      vertex 50 24.0784 10
    endloop
  endfacet
  facet normal 0 0 1
    outer loop
      vertex 20 30 10
      vertex 47.1162 22.8838 10
      vertex 48.4393 23.7679 10
    endloop
  endfacet
  facet normal 0 0 1
    outer loop
      vertex 20 30 10
      vertex 20 19.95 10
      vertex 47.1162 22.8838 10
    endloop
  endfacet
  facet normal 0 -1 0
    outer loop
      vertex -15.1 2 -10
      vertex -15.1 2 10
      vertex -47.8579 2 10
    endloop
  endfacet
  facet normal 0 -1 0
    outer loop
      vertex -47.8579 2 -10
      vertex -15.1 2 -10
      vertex -47.8579 2 10
    endloop
  endfacet
  facet normal 1 0 0
    outer loop
      vertex -15.1 15.1 -10
      vertex -15.1 15.1 10
      vertex -15.1 2 10
    endloop
  endfacet
  facet normal 1 0 0
    outer loop
      vertex -15.1 2 -10
      vertex -15.1 15.1 -10
      vertex -15.1 2 10
    endloop
  endfacet
  facet normal 0 -1 0
    outer loop
      vertex -1.93072 15.1 2.79713
      vertex 15.1 15.1 10
      vertex -15.1 15.1 10
    endloop
  endfacet
  facet normal 0 -1 0
    outer loop
      vertex 2.54401 15.1 2.2538
      vertex 3.3 15.1 0.813377
      vertex 15.1 15.1 -10
    endloop
  endfacet
  facet normal 0 -1 0
    outer loop
      vertex -15.1 15.1 -10
      vertex -3.39876 15.1 1.50423e-015
      vertex -15.1 15.1 10
    endloop
  endfacet
  facet normal 0 -1 0
    outer loop
      vertex -3.39876 15.1 1.50423e-015
      vertex -3.00945 15.1 1.57948
      vertex -15.1 15.1 10
    endloop
  endfacet
  facet normal 0 -1 0
    outer loop
      vertex -0.409675 15.1 3.37398
      vertex 15.1 15.1 10
      vertex -1.93072 15.1 2.79713
    endloop
  endfacet
  facet normal 0 -1 0
    outer loop
      vertex 1.20522 15.1 3.1779
      vertex 15.1 15.1 10
      vertex -0.409675 15.1 3.37398
    endloop
  endfacet
  facet normal 0 -1 0
    outer loop
      vertex 2.54401 15.1 2.2538
      vertex 15.1 15.1 10
      vertex 1.20522 15.1 3.1779
    endloop
  endfacet
  facet normal 0 -1 0
    outer loop
      vertex 3.3 15.1 0.813377
      vertex 3.3 15.1 -0.813377
      vertex 15.1 15.1 -10
    endloop
  endfacet
  facet normal 0 -1 0
    outer loop
      vertex 15.1 15.1 -10
      vertex 15.1 15.1 10
      vertex 2.54401 15.1 2.2538
    endloop
  endfacet
  facet normal 0 -1 0
    outer loop
      vertex -15.1 15.1 -10
      vertex 15.1 15.1 -10
      vertex 1.20522 15.1 -3.1779
    endloop
  endfacet
  facet normal 0 -1 0
    outer loop
      vertex -15.1 15.1 -10
      vertex 1.20522 15.1 -3.1779
      vertex -0.409675 15.1 -3.37398
    endloop
  endfacet
  facet normal 0 -1 0
    outer loop
      vertex -15.1 15.1 -10
      vertex -0.409675 15.1 -3.37398
      vertex -1.93072 15.1 -2.79713
    endloop
  endfacet
  facet normal 0 -1 0
    outer loop
      vertex -15.1 15.1 -10
      vertex -3.00945 15.1 -1.57948
      vertex -3.39876 15.1 1.50423e-015
    endloop
  endfacet
  facet normal 0 -1 0
    outer loop
      vertex -15.1 15.1 -10
      vertex -1.93072 15.1 -2.79713
      vertex -3.00945 15.1 -1.57948
    endloop
  endfacet
  facet normal 0 -1 0
    outer loop
      vertex 2.54401 15.1 -2.2538
      vertex 1.20522 15.1 -3.1779
      vertex 15.1 15.1 -10
    endloop
  endfacet
  facet normal 0 -1 0
    outer loop
      vertex -3.00945 15.1 1.57948
      vertex -1.93072 15.1 2.79713
      vertex -15.1 15.1 10
    endloop
  endfacet
  facet normal 0 -1 0
    outer loop
      vertex 3.3 15.1 -0.813377
      vertex 2.54401 15.1 -2.2538
      vertex 15.1 15.1 -10
    endloop
  endfacet
  facet normal -1 0 0
    outer loop
      vertex 15.1 15.1 10
      vertex 15.1 15.1 -10
      vertex 15.1 2 10
    endloop
  endfacet
  facet normal -1 0 0
    outer loop
      vertex 15.1 2 10
      vertex 15.1 15.1 -10
      vertex 15.1 2 -10
    endloop
  endfacet
  facet normal 0 -1 0
    outer loop
      vertex 47.8579 2 -10
      vertex 47.8579 2 10
      vertex 15.1 2 10
    endloop
  endfacet
  facet normal 0 -1 0
    outer loop
      vertex 15.1 2 -10
      vertex 47.8579 2 -10
      vertex 15.1 2 10
    endloop
  endfacet
  facet normal 0.707107 -0.707107 0
    outer loop
      vertex 60 14.1421 -10
      vertex 60 14.1421 10
      vertex 47.8579 2 10
    endloop
  endfacet
  facet normal 0.707107 -0.707107 0
    outer loop
      vertex 47.8579 2 -10
      vertex 60 14.1421 -10
      vertex 47.8579 2 10
    endloop
  endfacet
  facet normal 1 0 0
    outer loop
      vertex 60 14.1421 10
      vertex 60 14.1421 -10
      vertex 60 22.9236 -10
    endloop
  endfacet
  facet normal 1 0 0
    outer loop
      vertex 60 22.9236 10
      vertex 60 14.1421 10
      vertex 60 22.9236 -10
    endloop
  endfacet
  facet normal 0.992709 0.120536 0
    outer loop
      vertex 60 22.9236 -10
      vertex 59.8675 24.0145 -10
      vertex 59.8675 24.0145 10
    endloop
  endfacet
  facet normal 0.992709 0.120536 0
    outer loop
      vertex 60 22.9236 10
      vertex 60 22.9236 -10
      vertex 59.8675 24.0145 10
    endloop
  endfacet
  facet normal 0.935016 0.354605 0
    outer loop
      vertex 59.8675 24.0145 -10
      vertex 59.1836 25.8178 -10
      vertex 59.1836 25.8178 10
    endloop
  endfacet
  facet normal 0.935016 0.354605 0
    outer loop
      vertex 59.8675 24.0145 10
      vertex 59.8675 24.0145 -10
      vertex 59.1836 25.8178 10
    endloop
  endfacet
  facet normal 0.822984 0.568065 0
    outer loop
      vertex 59.1836 25.8178 -10
      vertex 58.0881 27.405 -10
      vertex 58.0881 27.405 10
    endloop
  endfacet
  facet normal 0.822984 0.568065 0
    outer loop
      vertex 59.1836 25.8178 10
      vertex 59.1836 25.8178 -10
      vertex 58.0881 27.405 10
    endloop
  endfacet
  facet normal 0.663123 0.748511 0
    outer loop
      vertex 56.6445 28.6839 -10
      vertex 56.6445 28.6839 10
      vertex 58.0881 27.405 -10
    endloop
  endfacet
  facet normal 0.663123 0.748511 0
    outer loop
      vertex 58.0881 27.405 -10
      vertex 56.6445 28.6839 10
      vertex 58.0881 27.405 10
    endloop
  endfacet
  facet normal 0.464723 0.885456 0
    outer loop
      vertex 54.9368 29.5801 -10
      vertex 54.9368 29.5801 10
      vertex 56.6445 28.6839 -10
    endloop
  endfacet
  facet normal 0.464723 0.885456 0
    outer loop
      vertex 56.6445 28.6839 -10
      vertex 54.9368 29.5801 10
      vertex 56.6445 28.6839 10
    endloop
  endfacet
  facet normal 0.239316 0.970942 0
    outer loop
      vertex 53.2334 30 -10
      vertex 53.2334 30 10
      vertex 54.9368 29.5801 -10
    endloop
  endfacet
  facet normal 0.239316 0.970942 0
    outer loop
      vertex 54.9368 29.5801 -10
      vertex 53.2334 30 10
      vertex 54.9368 29.5801 10
    endloop
  endfacet
  facet normal 0 1 0
    outer loop
      vertex 20 30 -10
      vertex 20 30 10
      vertex 53.2334 30 -10
    endloop
  endfacet
  facet normal 0 1 0
    outer loop
      vertex 53.2334 30 -10
      vertex 20 30 10
      vertex 53.2334 30 10
    endloop
  endfacet
  facet normal -1 0 0
    outer loop
      vertex 20 30 10
      vertex 20 30 -10
      vertex 20 19.95 10
    endloop
  endfacet
  facet normal -1 0 0
    outer loop
      vertex 20 19.95 10
      vertex 20 30 -10
      vertex 20 19.95 -10
    endloop
  endfacet
  facet normal 0 1 0
    outer loop
      vertex -1.56434 19.95 4.81456
      vertex -20 19.95 10
      vertex 6.19936e-016 19.95 5.06233
    endloop
  endfacet
  facet normal 0 1 0
    outer loop
      vertex -1.56435 19.95 -4.81456
      vertex 20 19.95 -10
      vertex -20 19.95 -10
    endloop
  endfacet
  facet normal 0 1 0
    outer loop
      vertex 4.81456 19.95 -1.56435
      vertex 20 19.95 -10
      vertex 4.09551 19.95 -2.97556
    endloop
  endfacet
  facet normal 0 1 0
    outer loop
      vertex -20 19.95 10
      vertex -4.81456 19.95 -1.56434
      vertex -20 19.95 -10
    endloop
  endfacet
  facet normal 0 1 0
    outer loop
      vertex -4.81456 19.95 -1.56434
      vertex -4.09551 19.95 -2.97556
      vertex -20 19.95 -10
    endloop
  endfacet
  facet normal 0 1 0
    outer loop
      vertex 2.97556 19.95 -4.09551
      vertex 20 19.95 -10
      vertex 1.56434 19.95 -4.81456
    endloop
  endfacet
  facet normal 0 1 0
    outer loop
      vertex -4.09551 19.95 -2.97556
      vertex -2.97556 19.95 -4.09551
      vertex -20 19.95 -10
    endloop
  endfacet
  facet normal 0 1 0
    outer loop
      vertex -6.19936e-016 19.95 -5.06233
      vertex 20 19.95 -10
      vertex -1.56435 19.95 -4.81456
    endloop
  endfacet
  facet normal 0 1 0
    outer loop
      vertex -2.97556 19.95 -4.09551
      vertex -1.56435 19.95 -4.81456
      vertex -20 19.95 -10
    endloop
  endfacet
  facet normal 0 1 0
    outer loop
      vertex 4.09551 19.95 -2.97556
      vertex 20 19.95 -10
      vertex 2.97556 19.95 -4.09551
    endloop
  endfacet
  facet normal 0 1 0
    outer loop
      vertex 20 19.95 10
      vertex 20 19.95 -10
      vertex 4.81456 19.95 -1.56435
    endloop
  endfacet
  facet normal 0 1 0
    outer loop
      vertex 20 19.95 10
      vertex 4.81456 19.95 -1.56435
      vertex 5.06233 19.95 -6.08833e-016
    endloop
  endfacet
  facet normal 0 1 0
    outer loop
      vertex 20 19.95 10
      vertex 5.06233 19.95 -6.08833e-016
      vertex 4.81456 19.95 1.56434
    endloop
  endfacet
  facet normal 0 1 0
    outer loop
      vertex 20 19.95 10
      vertex 4.81456 19.95 1.56434
      vertex 4.09551 19.95 2.97556
    endloop
  endfacet
  facet normal 0 1 0
    outer loop
      vertex 20 19.95 10
      vertex 4.09551 19.95 2.97556
      vertex 2.97556 19.95 4.09551
    endloop
  endfacet
  facet normal 0 1 0
    outer loop
      vertex 20 19.95 10
      vertex 2.97556 19.95 4.09551
      vertex 1.56435 19.95 4.81456
    endloop
  endfacet
  facet normal 0 1 0
    outer loop
      vertex 20 19.95 10
      vertex 1.56435 19.95 4.81456
      vertex -20 19.95 10
    endloop
  endfacet
  facet normal 0 1 0
    outer loop
      vertex 1.56435 19.95 4.81456
      vertex 6.19936e-016 19.95 5.06233
      vertex -20 19.95 10
    endloop
  endfacet
  facet normal 0 1 0
    outer loop
      vertex -2.97556 19.95 4.09551
      vertex -20 19.95 10
      vertex -1.56434 19.95 4.81456
    endloop
  endfacet
  facet normal 0 1 0
    outer loop
      vertex -4.09551 19.95 2.97556
      vertex -20 19.95 10
      vertex -2.97556 19.95 4.09551
    endloop
  endfacet
  facet normal 0 1 0
    outer loop
      vertex -4.81456 19.95 1.56435
      vertex -20 19.95 10
      vertex -4.09551 19.95 2.97556
    endloop
  endfacet
  facet normal 0 1 0
    outer loop
      vertex -5.06233 19.95 6.31038e-016
      vertex -20 19.95 10
      vertex -4.81456 19.95 1.56435
    endloop
  endfacet
  facet normal 0 1 0
    outer loop
      vertex -20 19.95 10
      vertex -5.06233 19.95 6.31038e-016
      vertex -4.81456 19.95 -1.56434
    endloop
  endfacet
  facet normal 0 1 0
    outer loop
      vertex 1.56434 19.95 -4.81456
      vertex 20 19.95 -10
      vertex -6.19936e-016 19.95 -5.06233
    endloop
  endfacet
  facet normal 1 0 0
    outer loop
      vertex -20 30 -10
      vertex -20 30 10
      vertex -20 19.95 10
    endloop
  endfacet
  facet normal 1 0 0
    outer loop
      vertex -20 19.95 -10
      vertex -20 30 -10
      vertex -20 19.95 10
    endloop
  endfacet
  facet normal 0 1 0
    outer loop
      vertex -52.9236 30 -10
      vertex -52.9236 30 10
      vertex -20 30 -10
    endloop
  endfacet
  facet normal 0 1 0
    outer loop
      vertex -20 30 -10
      vertex -52.9236 30 10
      vertex -20 30 10
    endloop
  endfacet
  facet normal -0.120536 0.992709 0
    outer loop
      vertex -54.0145 29.8675 -10
      vertex -54.0145 29.8675 10
      vertex -52.9236 30 -10
    endloop
  endfacet
  facet normal -0.120536 0.992709 0
    outer loop
      vertex -52.9236 30 -10
      vertex -54.0145 29.8675 10
      vertex -52.9236 30 10
    endloop
  endfacet
  facet normal -0.354605 0.935016 0
    outer loop
      vertex -55.8178 29.1836 -10
      vertex -55.8178 29.1836 10
      vertex -54.0145 29.8675 -10
    endloop
  endfacet
  facet normal -0.354605 0.935016 0
    outer loop
      vertex -54.0145 29.8675 -10
      vertex -55.8178 29.1836 10
      vertex -54.0145 29.8675 10
    endloop
  endfacet
  facet normal -0.568065 0.822984 0
    outer loop
      vertex -57.405 28.0881 -10
      vertex -57.405 28.0881 10
      vertex -55.8178 29.1836 -10
    endloop
  endfacet
  facet normal -0.568065 0.822984 0
    outer loop
      vertex -55.8178 29.1836 -10
      vertex -57.405 28.0881 10
      vertex -55.8178 29.1836 10
    endloop
  endfacet
  facet normal -0.748511 0.663123 0
    outer loop
      vertex -58.6839 26.6445 -10
      vertex -58.6839 26.6445 10
      vertex -57.405 28.0881 -10
    endloop
  endfacet
  facet normal -0.748511 0.663123 0
    outer loop
      vertex -57.405 28.0881 -10
      vertex -58.6839 26.6445 10
      vertex -57.405 28.0881 10
    endloop
  endfacet
  facet normal -0.885456 0.464723 0
    outer loop
      vertex -59.5801 24.9368 -10
      vertex -59.5801 24.9368 10
      vertex -58.6839 26.6445 -10
    endloop
  endfacet
  facet normal -0.885456 0.464723 0
    outer loop
      vertex -58.6839 26.6445 -10
      vertex -59.5801 24.9368 10
      vertex -58.6839 26.6445 10
    endloop
  endfacet
  facet normal 0.980785 0.19509 0
    outer loop
      vertex -54.0784 20 10
      vertex -53.7679 18.4393 10
      vertex -53.7679 18.4393 -10
    endloop
  endfacet
  facet normal 0.980785 0.19509 0
    outer loop
      vertex -54.0784 20 -10
      vertex -54.0784 20 10
      vertex -53.7679 18.4393 -10
    endloop
  endfacet
  facet normal 0.980785 -0.19509 0
    outer loop
      vertex -53.7679 21.5607 -10
      vertex -53.7679 21.5607 10
      vertex -54.0784 20 10
    endloop
  endfacet
  facet normal 0.980785 -0.19509 0
    outer loop
      vertex -54.0784 20 -10
      vertex -53.7679 21.5607 -10
      vertex -54.0784 20 10
    endloop
  endfacet
  facet normal 0.831469 -0.555571 0
    outer loop
      vertex -52.8838 22.8838 -10
      vertex -52.8838 22.8838 10
      vertex -53.7679 21.5607 10
    endloop
  endfacet
  facet normal 0.831469 -0.555571 0
    outer loop
      vertex -53.7679 21.5607 -10
      vertex -52.8838 22.8838 -10
      vertex -53.7679 21.5607 10
    endloop
  endfacet
  facet normal 0.555571 -0.831469 0
    outer loop
      vertex -51.5607 23.7679 -10
      vertex -51.5607 23.7679 10
      vertex -52.8838 22.8838 10
    endloop
  endfacet
  facet normal 0.555571 -0.831469 0
    outer loop
      vertex -52.8838 22.8838 -10
      vertex -51.5607 23.7679 -10
      vertex -52.8838 22.8838 10
    endloop
  endfacet
  facet normal 0.19509 -0.980785 0
    outer loop
      vertex -50 24.0784 -10
      vertex -50 24.0784 10
      vertex -51.5607 23.7679 10
    endloop
  endfacet
  facet normal 0.19509 -0.980785 0
    outer loop
      vertex -51.5607 23.7679 -10
      vertex -50 24.0784 -10
      vertex -51.5607 23.7679 10
    endloop
  endfacet
  facet normal -0.19509 -0.980785 0
    outer loop
      vertex -48.4393 23.7679 -10
      vertex -48.4393 23.7679 10
      vertex -50 24.0784 10
    endloop
  endfacet
  facet normal -0.19509 -0.980785 0
    outer loop
      vertex -50 24.0784 -10
      vertex -48.4393 23.7679 -10
      vertex -50 24.0784 10
    endloop
  endfacet
  facet normal -0.555571 -0.831469 0
    outer loop
      vertex -47.1162 22.8838 -10
      vertex -47.1162 22.8838 10
      vertex -48.4393 23.7679 10
    endloop
  endfacet
  facet normal -0.555571 -0.831469 0
    outer loop
      vertex -48.4393 23.7679 -10
      vertex -47.1162 22.8838 -10
      vertex -48.4393 23.7679 10
    endloop
  endfacet
  facet normal -0.831469 -0.555571 0
    outer loop
      vertex -46.2321 21.5607 10
      vertex -47.1162 22.8838 10
      vertex -46.2321 21.5607 -10
    endloop
  endfacet
  facet normal -0.831469 -0.555571 0
    outer loop
      vertex -46.2321 21.5607 -10
      vertex -47.1162 22.8838 10
      vertex -47.1162 22.8838 -10
    endloop
  endfacet
  facet normal -0.980785 -0.19509 0
    outer loop
      vertex -45.9216 20 10
      vertex -46.2321 21.5607 10
      vertex -45.9216 20 -10
    endloop
  endfacet
  facet normal -0.980785 -0.19509 0
    outer loop
      vertex -45.9216 20 -10
      vertex -46.2321 21.5607 10
      vertex -46.2321 21.5607 -10
    endloop
  endfacet
  facet normal -0.980785 0.19509 0
    outer loop
      vertex -45.9216 20 10
      vertex -45.9216 20 -10
      vertex -46.2321 18.4393 10
    endloop
  endfacet
  facet normal -0.980785 0.19509 0
    outer loop
      vertex -46.2321 18.4393 10
      vertex -45.9216 20 -10
      vertex -46.2321 18.4393 -10
    endloop
  endfacet
  facet normal -0.831469 0.555571 0
    outer loop
      vertex -46.2321 18.4393 10
      vertex -46.2321 18.4393 -10
      vertex -47.1162 17.1162 10
    endloop
  endfacet
  facet normal -0.831469 0.555571 0
    outer loop
      vertex -47.1162 17.1162 10
      vertex -46.2321 18.4393 -10
      vertex -47.1162 17.1162 -10
    endloop
  endfacet
  facet normal -0.555571 0.831469 0
    outer loop
      vertex -47.1162 17.1162 10
      vertex -47.1162 17.1162 -10
      vertex -48.4393 16.2321 10
    endloop
  endfacet
  facet normal -0.555571 0.831469 0
    outer loop
      vertex -48.4393 16.2321 10
      vertex -47.1162 17.1162 -10
      vertex -48.4393 16.2321 -10
    endloop
  endfacet
  facet normal -0.19509 0.980785 0
    outer loop
      vertex -48.4393 16.2321 10
      vertex -48.4393 16.2321 -10
      vertex -50 15.9216 10
    endloop
  endfacet
  facet normal -0.19509 0.980785 0
    outer loop
      vertex -50 15.9216 10
      vertex -48.4393 16.2321 -10
      vertex -50 15.9216 -10
    endloop
  endfacet
  facet normal 0.19509 0.980785 0
    outer loop
      vertex -50 15.9216 10
      vertex -50 15.9216 -10
      vertex -51.5607 16.2321 10
    endloop
  endfacet
  facet normal 0.19509 0.980785 0
    outer loop
      vertex -51.5607 16.2321 10
      vertex -50 15.9216 -10
      vertex -51.5607 16.2321 -10
    endloop
  endfacet
  facet normal 0.555571 0.831469 0
    outer loop
      vertex -51.5607 16.2321 10
      vertex -51.5607 16.2321 -10
      vertex -52.8838 17.1162 10
    endloop
  endfacet
  facet normal 0.555571 0.831469 0
    outer loop
      vertex -52.8838 17.1162 10
      vertex -51.5607 16.2321 -10
      vertex -52.8838 17.1162 -10
    endloop
  endfacet
  facet normal 0.831469 0.555571 0
    outer loop
      vertex -53.7679 18.4393 10
      vertex -52.8838 17.1162 10
      vertex -52.8838 17.1162 -10
    endloop
  endfacet
  facet normal 0.831469 0.555571 0
    outer loop
      vertex -53.7679 18.4393 -10
      vertex -53.7679 18.4393 10
      vertex -52.8838 17.1162 -10
    endloop
  endfacet
  facet normal 0.980785 0.19509 0
    outer loop
      vertex 45.9216 20 10
      vertex 46.2321 18.4393 10
      vertex 46.2321 18.4393 -10
    endloop
  endfacet
  facet normal 0.980785 0.19509 0
    outer loop
      vertex 45.9216 20 -10
      vertex 45.9216 20 10
      vertex 46.2321 18.4393 -10
    endloop
  endfacet
  facet normal 0.980785 -0.19509 0
    outer loop
      vertex 46.2321 21.5607 -10
      vertex 46.2321 21.5607 10
      vertex 45.9216 20 10
    endloop
  endfacet
  facet normal 0.980785 -0.19509 0
    outer loop
      vertex 45.9216 20 -10
      vertex 46.2321 21.5607 -10
      vertex 45.9216 20 10
    endloop
  endfacet
  facet normal 0.831469 -0.555571 0
    outer loop
      vertex 47.1162 22.8838 -10
      vertex 47.1162 22.8838 10
      vertex 46.2321 21.5607 10
    endloop
  endfacet
  facet normal 0.831469 -0.555571 0
    outer loop
      vertex 46.2321 21.5607 -10
      vertex 47.1162 22.8838 -10
      vertex 46.2321 21.5607 10
    endloop
  endfacet
  facet normal 0.555571 -0.831469 0
    outer loop
      vertex 48.4393 23.7679 -10
      vertex 48.4393 23.7679 10
      vertex 47.1162 22.8838 10
    endloop
  endfacet
  facet normal 0.555571 -0.831469 0
    outer loop
      vertex 47.1162 22.8838 -10
      vertex 48.4393 23.7679 -10
      vertex 47.1162 22.8838 10
    endloop
  endfacet
  facet normal 0.19509 -0.980785 0
    outer loop
      vertex 50 24.0784 -10
      vertex 50 24.0784 10
      vertex 48.4393 23.7679 10
    endloop
  endfacet
  facet normal 0.19509 -0.980785 0
    outer loop
      vertex 48.4393 23.7679 -10
      vertex 50 24.0784 -10
      vertex 48.4393 23.7679 10
    endloop
  endfacet
  facet normal -0.19509 -0.980785 0
    outer loop
      vertex 51.5607 23.7679 -10
      vertex 51.5607 23.7679 10
      vertex 50 24.0784 10
    endloop
  endfacet
  facet normal -0.19509 -0.980785 0
    outer loop
      vertex 50 24.0784 -10
      vertex 51.5607 23.7679 -10
      vertex 50 24.0784 10
    endloop
  endfacet
  facet normal -0.555571 -0.831469 0
    outer loop
      vertex 52.8838 22.8838 -10
      vertex 52.8838 22.8838 10
      vertex 51.5607 23.7679 10
    endloop
  endfacet
  facet normal -0.555571 -0.831469 0
    outer loop
      vertex 51.5607 23.7679 -10
      vertex 52.8838 22.8838 -10
      vertex 51.5607 23.7679 10
    endloop
  endfacet
  facet normal -0.831469 -0.555571 0
    outer loop
      vertex 53.7679 21.5607 10
      vertex 52.8838 22.8838 10
      vertex 53.7679 21.5607 -10
    endloop
  endfacet
  facet normal -0.831469 -0.555571 0
    outer loop
      vertex 53.7679 21.5607 -10
      vertex 52.8838 22.8838 10
      vertex 52.8838 22.8838 -10
    endloop
  endfacet
  facet normal -0.980785 -0.19509 0
    outer loop
      vertex 54.0784 20 10
      vertex 53.7679 21.5607 10
      vertex 54.0784 20 -10
    endloop
  endfacet
  facet normal -0.980785 -0.19509 0
    outer loop
      vertex 54.0784 20 -10
      vertex 53.7679 21.5607 10
      vertex 53.7679 21.5607 -10
    endloop
  endfacet
  facet normal -0.980785 0.19509 0
    outer loop
      vertex 54.0784 20 10
      vertex 54.0784 20 -10
      vertex 53.7679 18.4393 10
    endloop
  endfacet
  facet normal -0.980785 0.19509 0
    outer loop
      vertex 53.7679 18.4393 10
      vertex 54.0784 20 -10
      vertex 53.7679 18.4393 -10
    endloop
  endfacet
  facet normal -0.831469 0.555571 0
    outer loop
      vertex 53.7679 18.4393 10
      vertex 53.7679 18.4393 -10
      vertex 52.8838 17.1162 10
    endloop
  endfacet
  facet normal -0.831469 0.555571 0
    outer loop
      vertex 52.8838 17.1162 10
      vertex 53.7679 18.4393 -10
      vertex 52.8838 17.1162 -10
    endloop
  endfacet
  facet normal -0.555571 0.831469 0
    outer loop
      vertex 52.8838 17.1162 10
      vertex 52.8838 17.1162 -10
      vertex 51.5607 16.2321 10
    endloop
  endfacet
  facet normal -0.555571 0.831469 0
    outer loop
      vertex 51.5607 16.2321 10
      vertex 52.8838 17.1162 -10
      vertex 51.5607 16.2321 -10
    endloop
  endfacet
  facet normal -0.19509 0.980785 0
    outer loop
      vertex 51.5607 16.2321 10
      vertex 51.5607 16.2321 -10
      vertex 50 15.9216 10
    endloop
  endfacet
  facet normal -0.19509 0.980785 0
    outer loop
      vertex 50 15.9216 10
      vertex 51.5607 16.2321 -10
      vertex 50 15.9216 -10
    endloop
  endfacet
  facet normal 0.19509 0.980785 0
    outer loop
      vertex 50 15.9216 10
      vertex 50 15.9216 -10
      vertex 48.4393 16.2321 10
    endloop
  endfacet
  facet normal 0.19509 0.980785 0
    outer loop
      vertex 48.4393 16.2321 10
      vertex 50 15.9216 -10
      vertex 48.4393 16.2321 -10
    endloop
  endfacet
  facet normal 0.555571 0.831469 0
    outer loop
      vertex 48.4393 16.2321 10
      vertex 48.4393 16.2321 -10
      vertex 47.1162 17.1162 10
    endloop
  endfacet
  facet normal 0.555571 0.831469 0
    outer loop
      vertex 47.1162 17.1162 10
      vertex 48.4393 16.2321 -10
      vertex 47.1162 17.1162 -10
    endloop
  endfacet
  facet normal 0.831469 0.555571 0
    outer loop
      vertex 46.2321 18.4393 10
      vertex 47.1162 17.1162 10
      vertex 47.1162 17.1162 -10
    endloop
  endfacet
  facet normal 0.831469 0.555571 0
    outer loop
      vertex 46.2321 18.4393 -10
      vertex 46.2321 18.4393 10
      vertex 47.1162 17.1162 -10
    endloop
  endfacet
  facet normal 0.970942 5.31388e-017 0.239316
    outer loop
      vertex -3.00945 15.1 -1.57948
      vertex -3.00945 18 -1.57948
      vertex -3.39876 18 8.60304e-016
    endloop
  endfacet
  facet normal 0.970942 5.31388e-017 0.239316
    outer loop
      vertex -3.39876 15.1 1.50423e-015
      vertex -3.00945 15.1 -1.57948
      vertex -3.39876 18 8.60304e-016
    endloop
  endfacet
  facet normal 0.970942 -5.31388e-017 -0.239316
    outer loop
      vertex -3.39876 18 8.60304e-016
      vertex -3.00945 18 1.57948
      vertex -3.00945 15.1 1.57948
    endloop
  endfacet
  facet normal 0.970942 -5.31388e-017 -0.239316
    outer loop
      vertex -3.39876 15.1 1.50423e-015
      vertex -3.39876 18 8.60304e-016
      vertex -3.00945 15.1 1.57948
    endloop
  endfacet
  facet normal 0.748511 1.47243e-016 0.663122
    outer loop
      vertex -1.93072 15.1 -2.79713
      vertex -1.93072 18 -2.79713
      vertex -3.00945 18 -1.57948
    endloop
  endfacet
  facet normal 0.748511 1.47243e-016 0.663122
    outer loop
      vertex -3.00945 15.1 -1.57948
      vertex -1.93072 15.1 -2.79713
      vertex -3.00945 18 -1.57948
    endloop
  endfacet
  facet normal 0.354605 2.07615e-016 0.935016
    outer loop
      vertex -0.409675 15.1 -3.37398
      vertex -0.409675 18 -3.37398
      vertex -1.93072 18 -2.79713
    endloop
  endfacet
  facet normal 0.354605 2.07615e-016 0.935016
    outer loop
      vertex -1.93072 15.1 -2.79713
      vertex -0.409675 15.1 -3.37398
      vertex -1.93072 18 -2.79713
    endloop
  endfacet
  facet normal -0.120536 2.20426e-016 0.992709
    outer loop
      vertex 1.20522 15.1 -3.1779
      vertex 1.20522 18 -3.1779
      vertex -0.409675 18 -3.37398
    endloop
  endfacet
  facet normal -0.120536 2.20426e-016 0.992709
    outer loop
      vertex -0.409675 15.1 -3.37398
      vertex 1.20522 15.1 -3.1779
      vertex -0.409675 18 -3.37398
    endloop
  endfacet
  facet normal -0.568065 1.82739e-016 0.822984
    outer loop
      vertex 2.54401 15.1 -2.2538
      vertex 2.54401 18 -2.2538
      vertex 1.20522 18 -3.1779
    endloop
  endfacet
  facet normal -0.568065 1.82739e-016 0.822984
    outer loop
      vertex 1.20522 15.1 -3.1779
      vertex 2.54401 15.1 -2.2538
      vertex 1.20522 18 -3.1779
    endloop
  endfacet
  facet normal -0.885456 1.03189e-016 0.464723
    outer loop
      vertex 3.3 18 -0.813377
      vertex 2.54401 18 -2.2538
      vertex 3.3 15.1 -0.813377
    endloop
  endfacet
  facet normal -0.885456 1.03189e-016 0.464723
    outer loop
      vertex 3.3 15.1 -0.813377
      vertex 2.54401 18 -2.2538
      vertex 2.54401 15.1 -2.2538
    endloop
  endfacet
  facet normal -1 2.71917e-032 1.22461e-016
    outer loop
      vertex 3.3 18 0.813377
      vertex 3.3 18 -0.813377
      vertex 3.3 15.1 0.813377
    endloop
  endfacet
  facet normal -1 2.71917e-032 1.22461e-016
    outer loop
      vertex 3.3 15.1 0.813377
      vertex 3.3 18 -0.813377
      vertex 3.3 15.1 -0.813377
    endloop
  endfacet
  facet normal -0.885456 -1.03189e-016 -0.464723
    outer loop
      vertex 3.3 18 0.813377
      vertex 3.3 15.1 0.813377
      vertex 2.54401 18 2.2538
    endloop
  endfacet
  facet normal -0.885456 -1.03189e-016 -0.464723
    outer loop
      vertex 2.54401 18 2.2538
      vertex 3.3 15.1 0.813377
      vertex 2.54401 15.1 2.2538
    endloop
  endfacet
  facet normal -0.568065 -1.82739e-016 -0.822984
    outer loop
      vertex 2.54401 18 2.2538
      vertex 2.54401 15.1 2.2538
      vertex 1.20522 18 3.1779
    endloop
  endfacet
  facet normal -0.568065 -1.82739e-016 -0.822984
    outer loop
      vertex 1.20522 18 3.1779
      vertex 2.54401 15.1 2.2538
      vertex 1.20522 15.1 3.1779
    endloop
  endfacet
  facet normal -0.120536 -2.20426e-016 -0.992709
    outer loop
      vertex 1.20522 18 3.1779
      vertex 1.20522 15.1 3.1779
      vertex -0.409675 18 3.37398
    endloop
  endfacet
  facet normal -0.120536 -2.20426e-016 -0.992709
    outer loop
      vertex -0.409675 18 3.37398
      vertex 1.20522 15.1 3.1779
      vertex -0.409675 15.1 3.37398
    endloop
  endfacet
  facet normal 0.354605 -2.07615e-016 -0.935016
    outer loop
      vertex -0.409675 18 3.37398
      vertex -0.409675 15.1 3.37398
      vertex -1.93072 18 2.79713
    endloop
  endfacet
  facet normal 0.354605 -2.07615e-016 -0.935016
    outer loop
      vertex -1.93072 18 2.79713
      vertex -0.409675 15.1 3.37398
      vertex -1.93072 15.1 2.79713
    endloop
  endfacet
  facet normal 0.748511 -1.47243e-016 -0.663122
    outer loop
      vertex -3.00945 18 1.57948
      vertex -1.93072 18 2.79713
      vertex -1.93072 15.1 2.79713
    endloop
  endfacet
  facet normal 0.748511 -1.47243e-016 -0.663122
    outer loop
      vertex -3.00945 15.1 1.57948
      vertex -3.00945 18 1.57948
      vertex -1.93072 15.1 2.79713
    endloop
  endfacet
  facet normal 0.987688 3.47354e-017 0.156435
    outer loop
      vertex -4.81456 18 -1.56434
      vertex -4.81456 19.95 -1.56434
      vertex -5.06233 19.95 6.31038e-016
    endloop
  endfacet
  facet normal 0.987688 3.47354e-017 0.156435
    outer loop
      vertex -5.06233 18 1.06402e-015
      vertex -4.81456 18 -1.56434
      vertex -5.06233 19.95 6.31038e-016
    endloop
  endfacet
  facet normal 0.891006 1.00806e-016 0.453991
    outer loop
      vertex -4.09551 18 -2.97556
      vertex -4.09551 19.95 -2.97556
      vertex -4.81456 19.95 -1.56434
    endloop
  endfacet
  facet normal 0.891006 1.00806e-016 0.453991
    outer loop
      vertex -4.81456 18 -1.56434
      vertex -4.09551 18 -2.97556
      vertex -4.81456 19.95 -1.56434
    endloop
  endfacet
  facet normal 0.987688 -3.47354e-017 -0.156435
    outer loop
      vertex -5.06233 19.95 6.31038e-016
      vertex -4.81456 19.95 1.56435
      vertex -4.81456 18 1.56435
    endloop
  endfacet
  facet normal 0.987688 -3.47354e-017 -0.156435
    outer loop
      vertex -5.06233 18 1.06402e-015
      vertex -5.06233 19.95 6.31038e-016
      vertex -4.81456 18 1.56435
    endloop
  endfacet
  facet normal 0.891006 -1.00806e-016 -0.453991
    outer loop
      vertex -4.81456 19.95 1.56435
      vertex -4.09551 19.95 2.97556
      vertex -4.09551 18 2.97556
    endloop
  endfacet
  facet normal 0.891006 -1.00806e-016 -0.453991
    outer loop
      vertex -4.81456 18 1.56435
      vertex -4.81456 19.95 1.56435
      vertex -4.09551 18 2.97556
    endloop
  endfacet
  facet normal 0.707107 -1.57009e-016 -0.707107
    outer loop
      vertex -2.97556 19.95 4.09551
      vertex -2.97556 18 4.09551
      vertex -4.09551 19.95 2.97556
    endloop
  endfacet
  facet normal 0.707107 -1.57009e-016 -0.707107
    outer loop
      vertex -4.09551 19.95 2.97556
      vertex -2.97556 18 4.09551
      vertex -4.09551 18 2.97556
    endloop
  endfacet
  facet normal 0.453991 -1.97843e-016 -0.891006
    outer loop
      vertex -1.56434 19.95 4.81456
      vertex -1.56434 18 4.81456
      vertex -2.97556 19.95 4.09551
    endloop
  endfacet
  facet normal 0.453991 -1.97843e-016 -0.891006
    outer loop
      vertex -2.97556 19.95 4.09551
      vertex -1.56434 18 4.81456
      vertex -2.97556 18 4.09551
    endloop
  endfacet
  facet normal 0.156435 -2.19311e-016 -0.987688
    outer loop
      vertex 6.19936e-016 19.95 5.06233
      vertex 6.19936e-016 18 5.06233
      vertex -1.56434 19.95 4.81456
    endloop
  endfacet
  facet normal 0.156435 -2.19311e-016 -0.987688
    outer loop
      vertex -1.56434 19.95 4.81456
      vertex 6.19936e-016 18 5.06233
      vertex -1.56434 18 4.81456
    endloop
  endfacet
  facet normal -0.156435 -2.19311e-016 -0.987688
    outer loop
      vertex 1.56435 19.95 4.81456
      vertex 1.56435 18 4.81456
      vertex 6.19936e-016 19.95 5.06233
    endloop
  endfacet
  facet normal -0.156435 -2.19311e-016 -0.987688
    outer loop
      vertex 6.19936e-016 19.95 5.06233
      vertex 1.56435 18 4.81456
      vertex 6.19936e-016 18 5.06233
    endloop
  endfacet
  facet normal -0.453991 -1.97843e-016 -0.891006
    outer loop
      vertex 2.97556 19.95 4.09551
      vertex 2.97556 18 4.09551
      vertex 1.56435 19.95 4.81456
    endloop
  endfacet
  facet normal -0.453991 -1.97843e-016 -0.891006
    outer loop
      vertex 1.56435 19.95 4.81456
      vertex 2.97556 18 4.09551
      vertex 1.56435 18 4.81456
    endloop
  endfacet
  facet normal -0.707107 -1.57009e-016 -0.707107
    outer loop
      vertex 4.09551 19.95 2.97556
      vertex 4.09551 18 2.97556
      vertex 2.97556 19.95 4.09551
    endloop
  endfacet
  facet normal -0.707107 -1.57009e-016 -0.707107
    outer loop
      vertex 2.97556 19.95 4.09551
      vertex 4.09551 18 2.97556
      vertex 2.97556 18 4.09551
    endloop
  endfacet
  facet normal -0.891006 -1.00806e-016 -0.453991
    outer loop
      vertex 4.81456 19.95 1.56434
      vertex 4.81456 18 1.56434
      vertex 4.09551 19.95 2.97556
    endloop
  endfacet
  facet normal -0.891006 -1.00806e-016 -0.453991
    outer loop
      vertex 4.09551 19.95 2.97556
      vertex 4.81456 18 1.56434
      vertex 4.09551 18 2.97556
    endloop
  endfacet
  facet normal -0.987688 -3.47354e-017 -0.156435
    outer loop
      vertex 5.06233 19.95 -6.08833e-016
      vertex 5.06233 18 -1.75846e-016
      vertex 4.81456 19.95 1.56434
    endloop
  endfacet
  facet normal -0.987688 -3.47354e-017 -0.156435
    outer loop
      vertex 4.81456 19.95 1.56434
      vertex 5.06233 18 -1.75846e-016
      vertex 4.81456 18 1.56434
    endloop
  endfacet
  facet normal -0.987688 3.47354e-017 0.156435
    outer loop
      vertex 5.06233 19.95 -6.08833e-016
      vertex 4.81456 19.95 -1.56435
      vertex 5.06233 18 -1.75846e-016
    endloop
  endfacet
  facet normal -0.987688 3.47354e-017 0.156435
    outer loop
      vertex 5.06233 18 -1.75846e-016
      vertex 4.81456 19.95 -1.56435
      vertex 4.81456 18 -1.56434
    endloop
  endfacet
  facet normal -0.891006 1.00806e-016 0.453991
    outer loop
      vertex 4.81456 19.95 -1.56435
      vertex 4.09551 19.95 -2.97556
      vertex 4.81456 18 -1.56434
    endloop
  endfacet
  facet normal -0.891006 1.00806e-016 0.453991
    outer loop
      vertex 4.81456 18 -1.56434
      vertex 4.09551 19.95 -2.97556
      vertex 4.09551 18 -2.97556
    endloop
  endfacet
  facet normal -0.707107 1.57009e-016 0.707107
    outer loop
      vertex 4.09551 18 -2.97556
      vertex 4.09551 19.95 -2.97556
      vertex 2.97556 19.95 -4.09551
    endloop
  endfacet
  facet normal -0.707107 1.57009e-016 0.707107
    outer loop
      vertex 2.97556 18 -4.09551
      vertex 4.09551 18 -2.97556
      vertex 2.97556 19.95 -4.09551
    endloop
  endfacet
  facet normal -0.453991 1.97843e-016 0.891006
    outer loop
      vertex 2.97556 18 -4.09551
      vertex 2.97556 19.95 -4.09551
      vertex 1.56434 19.95 -4.81456
    endloop
  endfacet
  facet normal -0.453991 1.97843e-016 0.891006
    outer loop
      vertex 1.56434 18 -4.81456
      vertex 2.97556 18 -4.09551
      vertex 1.56434 19.95 -4.81456
    endloop
  endfacet
  facet normal -0.156435 2.19311e-016 0.987688
    outer loop
      vertex 1.56434 18 -4.81456
      vertex 1.56434 19.95 -4.81456
      vertex -6.19936e-016 19.95 -5.06233
    endloop
  endfacet
  facet normal -0.156435 2.19311e-016 0.987688
    outer loop
      vertex -6.19936e-016 18 -5.06233
      vertex 1.56434 18 -4.81456
      vertex -6.19936e-016 19.95 -5.06233
    endloop
  endfacet
  facet normal 0.156435 2.19311e-016 0.987688
    outer loop
      vertex -6.19936e-016 18 -5.06233
      vertex -6.19936e-016 19.95 -5.06233
      vertex -1.56435 19.95 -4.81456
    endloop
  endfacet
  facet normal 0.156435 2.19311e-016 0.987688
    outer loop
      vertex -1.56435 18 -4.81456
      vertex -6.19936e-016 18 -5.06233
      vertex -1.56435 19.95 -4.81456
    endloop
  endfacet
  facet normal 0.453991 1.97843e-016 0.891006
    outer loop
      vertex -1.56435 18 -4.81456
      vertex -1.56435 19.95 -4.81456
      vertex -2.97556 19.95 -4.09551
    endloop
  endfacet
  facet normal 0.453991 1.97843e-016 0.891006
    outer loop
      vertex -2.97556 18 -4.09551
      vertex -1.56435 18 -4.81456
      vertex -2.97556 19.95 -4.09551
    endloop
  endfacet
  facet normal 0.707107 1.57009e-016 0.707107
    outer loop
      vertex -2.97556 18 -4.09551
      vertex -2.97556 19.95 -4.09551
      vertex -4.09551 19.95 -2.97556
    endloop
  endfacet
  facet normal 0.707107 1.57009e-016 0.707107
    outer loop
      vertex -4.09551 18 -2.97556
      vertex -2.97556 18 -4.09551
      vertex -4.09551 19.95 -2.97556
    endloop
  endfacet
  facet normal 0 1 -2.22045e-016
    outer loop
      vertex -4.09551 18 2.97556
      vertex -2.97556 18 4.09551
      vertex -4.81456 18 1.56435
    endloop
  endfacet
  facet normal 0 1 -2.22045e-016
    outer loop
      vertex -4.81456 18 1.56435
      vertex -2.97556 18 4.09551
      vertex -1.56434 18 4.81456
    endloop
  endfacet
  facet normal 0 1 -2.22045e-016
    outer loop
      vertex -4.81456 18 1.56435
      vertex -1.56434 18 4.81456
      vertex 6.19936e-016 18 5.06233
    endloop
  endfacet
  facet normal 0 1 -2.22045e-016
    outer loop
      vertex -4.81456 18 1.56435
      vertex 6.19936e-016 18 5.06233
      vertex 1.56435 18 4.81456
    endloop
  endfacet
  facet normal 0 1 -2.22045e-016
    outer loop
      vertex -0.409675 18 3.37398
      vertex 1.56435 18 4.81456
      vertex 2.97556 18 4.09551
    endloop
  endfacet
  facet normal 0 1 -2.22045e-016
    outer loop
      vertex 1.20522 18 3.1779
      vertex 2.97556 18 4.09551
      vertex 4.09551 18 2.97556
    endloop
  endfacet
  facet normal 0 1 -2.22045e-016
    outer loop
      vertex 2.54401 18 2.2538
      vertex 4.09551 18 2.97556
      vertex 4.81456 18 1.56434
    endloop
  endfacet
  facet normal 0 1 -2.22045e-016
    outer loop
      vertex 3.3 18 0.813377
      vertex 4.81456 18 1.56434
      vertex 5.06233 18 -1.75846e-016
    endloop
  endfacet
  facet normal 0 1 -2.22045e-016
    outer loop
      vertex 3.3 18 -0.813377
      vertex 5.06233 18 -1.75846e-016
      vertex 4.81456 18 -1.56434
    endloop
  endfacet
  facet normal 0 1 -2.22045e-016
    outer loop
      vertex 2.54401 18 -2.2538
      vertex 4.09551 18 -2.97556
      vertex 2.97556 18 -4.09551
    endloop
  endfacet
  facet normal 0 1 -2.22045e-016
    outer loop
      vertex 1.20522 18 -3.1779
      vertex 2.97556 18 -4.09551
      vertex 1.56434 18 -4.81456
    endloop
  endfacet
  facet normal 0 1 -2.22045e-016
    outer loop
      vertex -0.409675 18 -3.37398
      vertex 1.56434 18 -4.81456
      vertex -6.19936e-016 18 -5.06233
    endloop
  endfacet
  facet normal 0 1 -2.22045e-016
    outer loop
      vertex -3.00945 18 -1.57948
      vertex -6.19936e-016 18 -5.06233
      vertex -1.56435 18 -4.81456
    endloop
  endfacet
  facet normal 0 1 -2.22045e-016
    outer loop
      vertex -4.81456 18 1.56435
      vertex -1.56435 18 -4.81456
      vertex -2.97556 18 -4.09551
    endloop
  endfacet
  facet normal 0 1 -2.22045e-016
    outer loop
      vertex -4.81456 18 1.56435
      vertex -2.97556 18 -4.09551
      vertex -4.09551 18 -2.97556
    endloop
  endfacet
  facet normal 0 1 -2.22045e-016
    outer loop
      vertex -4.81456 18 1.56435
      vertex -4.09551 18 -2.97556
      vertex -4.81456 18 -1.56434
    endloop
  endfacet
  facet normal 0 1 -2.22045e-016
    outer loop
      vertex -4.81456 18 1.56435
      vertex -4.81456 18 -1.56434
      vertex -5.06233 18 1.06402e-015
    endloop
  endfacet
  facet normal 0 1 -2.22045e-016
    outer loop
      vertex -1.93072 18 -2.79713
      vertex -6.19936e-016 18 -5.06233
      vertex -3.00945 18 -1.57948
    endloop
  endfacet
  facet normal 0 1 -2.22045e-016
    outer loop
      vertex -4.81456 18 1.56435
      vertex -3.00945 18 -1.57948
      vertex -1.56435 18 -4.81456
    endloop
  endfacet
  facet normal 0 1 -2.22045e-016
    outer loop
      vertex -0.409675 18 -3.37398
      vertex -6.19936e-016 18 -5.06233
      vertex -1.93072 18 -2.79713
    endloop
  endfacet
  facet normal 0 1 -2.22045e-016
    outer loop
      vertex 3.3 18 -0.813377
      vertex 4.09551 18 -2.97556
      vertex 2.54401 18 -2.2538
    endloop
  endfacet
  facet normal 0 1 -2.22045e-016
    outer loop
      vertex 2.54401 18 -2.2538
      vertex 2.97556 18 -4.09551
      vertex 1.20522 18 -3.1779
    endloop
  endfacet
  facet normal 0 1 -2.22045e-016
    outer loop
      vertex 3.3 18 -0.813377
      vertex 4.81456 18 -1.56434
      vertex 4.09551 18 -2.97556
    endloop
  endfacet
  facet normal 0 1 -2.22045e-016
    outer loop
      vertex 3.3 18 0.813377
      vertex 5.06233 18 -1.75846e-016
      vertex 3.3 18 -0.813377
    endloop
  endfacet
  facet normal 0 1 -2.22045e-016
    outer loop
      vertex 2.54401 18 2.2538
      vertex 4.81456 18 1.56434
      vertex 3.3 18 0.813377
    endloop
  endfacet
  facet normal 0 1 -2.22045e-016
    outer loop
      vertex 1.20522 18 3.1779
      vertex 4.09551 18 2.97556
      vertex 2.54401 18 2.2538
    endloop
  endfacet
  facet normal 0 1 -2.22045e-016
    outer loop
      vertex -0.409675 18 3.37398
      vertex 2.97556 18 4.09551
      vertex 1.20522 18 3.1779
    endloop
  endfacet
  facet normal 0 1 -2.22045e-016
    outer loop
      vertex -1.93072 18 2.79713
      vertex 1.56435 18 4.81456
      vertex -0.409675 18 3.37398
    endloop
  endfacet
  facet normal 0 1 -2.22045e-016
    outer loop
      vertex -3.00945 18 1.57948
      vertex -4.81456 18 1.56435
      vertex -1.93072 18 2.79713
    endloop
  endfacet
  facet normal 0 1 -2.22045e-016
    outer loop
      vertex -4.81456 18 1.56435
      vertex 1.56435 18 4.81456
      vertex -1.93072 18 2.79713
    endloop
  endfacet
  facet normal 0 1 -2.22045e-016
    outer loop
      vertex -3.39876 18 8.60304e-016
      vertex -4.81456 18 1.56435
      vertex -3.00945 18 1.57948
    endloop
  endfacet
  facet normal 0 1 -2.22045e-016
    outer loop
      vertex -3.00945 18 -1.57948
      vertex -4.81456 18 1.56435
      vertex -3.39876 18 8.60304e-016
    endloop
  endfacet
  facet normal 0 1 -2.22045e-016
    outer loop
      vertex 1.20522 18 -3.1779
      vertex 1.56434 18 -4.81456
      vertex -0.409675 18 -3.37398
    endloop
  endfacet
endsolid OpenSCAD_Model
