solid OpenSCAD_Model
  facet normal -1.77321e-016 1 0
    outer loop
      vertex -10 20 0
      vertex -10 20 35
      vertex -5 20 0
    endloop
  endfacet
  facet normal -1.77321e-016 1 0
    outer loop
      vertex -5 20 0
      vertex -10 20 35
      vertex -5 20 35
    endloop
  endfacet
  facet normal -1 -1.77321e-016 0
    outer loop
      vertex -10 -17 8
      vertex -10 -20 0
      vertex -10 -20 35
    endloop
  endfacet
  facet normal -1 -1.77321e-016 0
    outer loop
      vertex -10 13.753 29.5637
      vertex -10 20 35
      vertex -10 15.445 29.9499
    endloop
  endfacet
  facet normal -1 -1.77321e-016 0
    outer loop
      vertex -10 20 0
      vertex -10 16.8019 7.13223
      vertex -10 20 35
    endloop
  endfacet
  facet normal -1 -1.77321e-016 0
    outer loop
      vertex -10 13 28
      vertex -10 -20 0
      vertex -10 13.753 29.5637
    endloop
  endfacet
  facet normal -1 -1.77321e-016 0
    outer loop
      vertex -10 16.8019 7.13223
      vertex -10 16.8019 8.86777
      vertex -10 20 35
    endloop
  endfacet
  facet normal -1 -1.77321e-016 0
    outer loop
      vertex -10 13.753 6.43634
      vertex -10 -20 0
      vertex -10 13 8
    endloop
  endfacet
  facet normal -1 -1.77321e-016 0
    outer loop
      vertex -10 16.8019 8.86777
      vertex -10 15.445 9.94986
      vertex -10 20 35
    endloop
  endfacet
  facet normal -1 -1.77321e-016 0
    outer loop
      vertex -10 15.445 9.94986
      vertex -10 13.753 9.56366
      vertex -10 20 35
    endloop
  endfacet
  facet normal -1 -1.77321e-016 0
    outer loop
      vertex -10 20 0
      vertex -10 -20 0
      vertex -10 13.753 6.43634
    endloop
  endfacet
  facet normal -1 -1.77321e-016 0
    outer loop
      vertex -10 20 0
      vertex -10 13.753 6.43634
      vertex -10 15.445 6.05014
    endloop
  endfacet
  facet normal -1 -1.77321e-016 0
    outer loop
      vertex -10 20 0
      vertex -10 15.445 6.05014
      vertex -10 16.8019 7.13223
    endloop
  endfacet
  facet normal -1 -1.77321e-016 0
    outer loop
      vertex -10 -14.555 9.94986
      vertex -10 -20 35
      vertex -10 -13.1981 8.86777
    endloop
  endfacet
  facet normal -1 -1.77321e-016 0
    outer loop
      vertex -10 13.753 9.56366
      vertex -10 16.8019 27.1322
      vertex -10 20 35
    endloop
  endfacet
  facet normal -1 -1.77321e-016 0
    outer loop
      vertex -10 15.445 26.0501
      vertex -10 -20 0
      vertex -10 13.753 26.4363
    endloop
  endfacet
  facet normal -1 -1.77321e-016 0
    outer loop
      vertex -10 16.8019 27.1322
      vertex -10 16.8019 28.8678
      vertex -10 20 35
    endloop
  endfacet
  facet normal -1 -1.77321e-016 0
    outer loop
      vertex -10 16.8019 28.8678
      vertex -10 15.445 29.9499
      vertex -10 20 35
    endloop
  endfacet
  facet normal -1 -1.77321e-016 0
    outer loop
      vertex -10 13.753 26.4363
      vertex -10 -20 0
      vertex -10 13 28
    endloop
  endfacet
  facet normal -1 -1.77321e-016 0
    outer loop
      vertex -10 20 35
      vertex -10 13.753 29.5637
      vertex -10 -20 35
    endloop
  endfacet
  facet normal -1 -1.77321e-016 0
    outer loop
      vertex -10 13.753 9.56366
      vertex -10 -20 0
      vertex -10 15.445 26.0501
    endloop
  endfacet
  facet normal -1 -1.77321e-016 0
    outer loop
      vertex -10 13.753 9.56366
      vertex -10 15.445 26.0501
      vertex -10 16.8019 27.1322
    endloop
  endfacet
  facet normal -1 -1.77321e-016 0
    outer loop
      vertex -10 13.753 29.5637
      vertex -10 -20 0
      vertex -10 -13.1981 7.13223
    endloop
  endfacet
  facet normal -1 -1.77321e-016 0
    outer loop
      vertex -10 13.753 29.5637
      vertex -10 -13.1981 7.13223
      vertex -10 -13.1981 8.86777
    endloop
  endfacet
  facet normal -1 -1.77321e-016 0
    outer loop
      vertex -10 -17 28
      vertex -10 -13.1981 8.86777
      vertex -10 -20 35
    endloop
  endfacet
  facet normal -1 -1.77321e-016 0
    outer loop
      vertex -10 -16.247 29.5637
      vertex -10 -20 35
      vertex -10 -14.555 29.9499
    endloop
  endfacet
  facet normal -1 -1.77321e-016 0
    outer loop
      vertex -10 -16.247 6.43634
      vertex -10 -20 0
      vertex -10 -17 8
    endloop
  endfacet
  facet normal -1 -1.77321e-016 0
    outer loop
      vertex -10 -14.555 9.94986
      vertex -10 -16.247 9.56366
      vertex -10 -20 35
    endloop
  endfacet
  facet normal -1 -1.77321e-016 0
    outer loop
      vertex -10 -16.247 9.56366
      vertex -10 -17 8
      vertex -10 -20 35
    endloop
  endfacet
  facet normal -1 -1.77321e-016 0
    outer loop
      vertex -10 -14.555 6.05014
      vertex -10 -20 0
      vertex -10 -16.247 6.43634
    endloop
  endfacet
  facet normal -1 -1.77321e-016 0
    outer loop
      vertex -10 -13.1981 7.13223
      vertex -10 -20 0
      vertex -10 -14.555 6.05014
    endloop
  endfacet
  facet normal -1 -1.77321e-016 0
    outer loop
      vertex -10 13.753 29.5637
      vertex -10 -13.1981 8.86777
      vertex -10 -13.1981 27.1322
    endloop
  endfacet
  facet normal -1 -1.77321e-016 0
    outer loop
      vertex -10 13.753 29.5637
      vertex -10 -13.1981 27.1322
      vertex -10 -13.1981 28.8678
    endloop
  endfacet
  facet normal -1 -1.77321e-016 0
    outer loop
      vertex -10 13.753 29.5637
      vertex -10 -13.1981 28.8678
      vertex -10 -20 35
    endloop
  endfacet
  facet normal -1 -1.77321e-016 0
    outer loop
      vertex -10 -13.1981 28.8678
      vertex -10 -14.555 29.9499
      vertex -10 -20 35
    endloop
  endfacet
  facet normal -1 -1.77321e-016 0
    outer loop
      vertex -10 -14.555 26.0501
      vertex -10 -13.1981 8.86777
      vertex -10 -16.247 26.4363
    endloop
  endfacet
  facet normal -1 -1.77321e-016 0
    outer loop
      vertex -10 -16.247 26.4363
      vertex -10 -13.1981 8.86777
      vertex -10 -17 28
    endloop
  endfacet
  facet normal -1 -1.77321e-016 0
    outer loop
      vertex -10 -16.247 29.5637
      vertex -10 -17 28
      vertex -10 -20 35
    endloop
  endfacet
  facet normal -1 -1.77321e-016 0
    outer loop
      vertex -10 -13.1981 27.1322
      vertex -10 -13.1981 8.86777
      vertex -10 -14.555 26.0501
    endloop
  endfacet
  facet normal -1 -1.77321e-016 0
    outer loop
      vertex -10 13 8
      vertex -10 -20 0
      vertex -10 13.753 9.56366
    endloop
  endfacet
  facet normal 0 0 -1
    outer loop
      vertex -10 20 0
      vertex -5 20 0
      vertex -10 -20 0
    endloop
  endfacet
  facet normal 0 0 -1
    outer loop
      vertex -10 -20 0
      vertex -5 20 0
      vertex -5 10 0
    endloop
  endfacet
  facet normal 0 0 -1
    outer loop
      vertex -5 -8.86606e-016 0
      vertex -5 10 0
      vertex 4 10 0
    endloop
  endfacet
  facet normal 0 0 -1
    outer loop
      vertex 6.85317 3 0
      vertex 7 7 0
      vertex 7 3 0
    endloop
  endfacet
  facet normal 0 0 -1
    outer loop
      vertex 4 7.09285e-016 0
      vertex 7 7 0
      vertex 6.85317 3 0
    endloop
  endfacet
  facet normal 0 0 -1
    outer loop
      vertex 4 7.09285e-016 0
      vertex 6.85317 2.07295 0
      vertex 5.76336 0.572949 0
    endloop
  endfacet
  facet normal 0 0 -1
    outer loop
      vertex 4 7.09285e-016 0
      vertex 6.85317 3 0
      vertex 6.85317 2.07295 0
    endloop
  endfacet
  facet normal 0 0 -1
    outer loop
      vertex 6.56366 -9.49698 0
      vertex 5 -10.25 0
      vertex 6.84828 -8.25 0
    endloop
  endfacet
  facet normal 0 0 -1
    outer loop
      vertex -5 -8.86606e-016 0
      vertex 4.92705 9.85317 0
      vertex 6.42705 8.76336 0
    endloop
  endfacet
  facet normal 0 0 -1
    outer loop
      vertex -5 -8.86606e-016 0
      vertex 4 10 0
      vertex 4 9.85317 0
    endloop
  endfacet
  facet normal 0 0 -1
    outer loop
      vertex -10 -20 0
      vertex -5 10 0
      vertex -5 -8.86606e-016 0
    endloop
  endfacet
  facet normal 0 0 -1
    outer loop
      vertex -5 -20 0
      vertex -10 -20 0
      vertex -5 -10.25 0
    endloop
  endfacet
  facet normal 0 0 -1
    outer loop
      vertex -10 -20 0
      vertex -5 -8.86606e-016 0
      vertex -5 -2.5 0
    endloop
  endfacet
  facet normal 0 0 -1
    outer loop
      vertex 5 -2.5 0
      vertex -5 -10.25 0
      vertex -5 -2.5 0
    endloop
  endfacet
  facet normal 0 0 -1
    outer loop
      vertex 6.24698 -2.18634 0
      vertex 5 -2.5 0
      vertex 5 -1.90172 0
    endloop
  endfacet
  facet normal 0 0 -1
    outer loop
      vertex 5 -1.75 0
      vertex 5 -1.90172 0
      vertex 5 -2.5 0
    endloop
  endfacet
  facet normal 0 0 -1
    outer loop
      vertex 6.84828 -8.25 0
      vertex 7 -3.75 0
      vertex 7 -8.25 0
    endloop
  endfacet
  facet normal 0 0 -1
    outer loop
      vertex -5 -10.25 0
      vertex 7 -3.75 0
      vertex 6.84828 -8.25 0
    endloop
  endfacet
  facet normal 0 0 -1
    outer loop
      vertex -5 -10.25 0
      vertex 5 -2.5 0
      vertex 6.24698 -2.18634 0
    endloop
  endfacet
  facet normal 0 0 -1
    outer loop
      vertex -5 -10.25 0
      vertex 6.24698 -2.18634 0
      vertex 7 -3.75 0
    endloop
  endfacet
  facet normal 0 0 -1
    outer loop
      vertex -5 -8.86606e-016 0
      vertex 4 9.85317 0
      vertex 4.92705 9.85317 0
    endloop
  endfacet
  facet normal 0 0 -1
    outer loop
      vertex -5 -8.86606e-016 0
      vertex 6.42705 8.76336 0
      vertex 7 7 0
    endloop
  endfacet
  facet normal 0 0 -1
    outer loop
      vertex -5 -8.86606e-016 0
      vertex 7 7 0
      vertex 4 7.09285e-016 0
    endloop
  endfacet
  facet normal 0 0 -1
    outer loop
      vertex -5 -10.25 0
      vertex 6.84828 -8.25 0
      vertex 5 -10.25 0
    endloop
  endfacet
  facet normal 0 0 -1
    outer loop
      vertex -5 -10.25 0
      vertex -10 -20 0
      vertex -5 -2.5 0
    endloop
  endfacet
  facet normal 1 1.77321e-016 0
    outer loop
      vertex -5 17.3891 8.70151
      vertex -5 20 0
      vertex -5 20 35
    endloop
  endfacet
  facet normal 1 1.77321e-016 0
    outer loop
      vertex -5 17.3891 27.2985
      vertex -5 10 0
      vertex -5 20 35
    endloop
  endfacet
  facet normal 1 1.77321e-016 0
    outer loop
      vertex -5 16.6306 9.88182
      vertex -5 17.3891 8.70151
      vertex -5 20 35
    endloop
  endfacet
  facet normal 1 1.77321e-016 0
    outer loop
      vertex -5 17.3891 7.29849
      vertex -5 20 0
      vertex -5 17.3891 8.70151
    endloop
  endfacet
  facet normal 1 1.77321e-016 0
    outer loop
      vertex -5 16.6306 6.11818
      vertex -5 20 0
      vertex -5 17.3891 7.29849
    endloop
  endfacet
  facet normal 1 1.77321e-016 0
    outer loop
      vertex -5 15.3544 5.53534
      vertex -5 13.9656 5.73502
      vertex -5 10 0
    endloop
  endfacet
  facet normal 1 1.77321e-016 0
    outer loop
      vertex -5 10 0
      vertex -5 20 0
      vertex -5 16.6306 6.11818
    endloop
  endfacet
  facet normal 1 1.77321e-016 0
    outer loop
      vertex -5 12.9053 9.3462
      vertex -5 13.9656 10.265
      vertex -5 20 35
    endloop
  endfacet
  facet normal 1 1.77321e-016 0
    outer loop
      vertex -5 17.3891 27.2985
      vertex -5 16.6306 26.1182
      vertex -5 10 0
    endloop
  endfacet
  facet normal 1 1.77321e-016 0
    outer loop
      vertex -5 13.9656 10.265
      vertex -5 15.3544 10.4647
      vertex -5 20 35
    endloop
  endfacet
  facet normal 1 1.77321e-016 0
    outer loop
      vertex -5 10 0
      vertex -5 13.9656 5.73502
      vertex -5 12.9053 6.6538
    endloop
  endfacet
  facet normal 1 1.77321e-016 0
    outer loop
      vertex -5 10 0
      vertex -5 12.51 8
      vertex -5 20 35
    endloop
  endfacet
  facet normal 1 1.77321e-016 0
    outer loop
      vertex -5 10 0
      vertex -5 12.9053 6.6538
      vertex -5 12.51 8
    endloop
  endfacet
  facet normal 1 1.77321e-016 0
    outer loop
      vertex -5 12.51 8
      vertex -5 12.9053 9.3462
      vertex -5 20 35
    endloop
  endfacet
  facet normal 1 1.77321e-016 0
    outer loop
      vertex -5 15.3544 10.4647
      vertex -5 16.6306 9.88182
      vertex -5 20 35
    endloop
  endfacet
  facet normal 1 1.77321e-016 0
    outer loop
      vertex -5 16.6306 29.8818
      vertex -5 17.3891 28.7015
      vertex -5 20 35
    endloop
  endfacet
  facet normal 1 1.77321e-016 0
    outer loop
      vertex -5 17.3891 28.7015
      vertex -5 17.3891 27.2985
      vertex -5 20 35
    endloop
  endfacet
  facet normal 1 1.77321e-016 0
    outer loop
      vertex -5 12.51 28
      vertex -5 12.9053 29.3462
      vertex -5 10 35
    endloop
  endfacet
  facet normal 1 1.77321e-016 0
    outer loop
      vertex -5 15.3544 25.5353
      vertex -5 10 0
      vertex -5 16.6306 26.1182
    endloop
  endfacet
  facet normal 1 1.77321e-016 0
    outer loop
      vertex -5 13.9656 30.265
      vertex -5 15.3544 30.4647
      vertex -5 10 35
    endloop
  endfacet
  facet normal 1 1.77321e-016 0
    outer loop
      vertex -5 13.9656 25.735
      vertex -5 10 0
      vertex -5 15.3544 25.5353
    endloop
  endfacet
  facet normal 1 1.77321e-016 0
    outer loop
      vertex -5 12.9053 26.6538
      vertex -5 10 0
      vertex -5 13.9656 25.735
    endloop
  endfacet
  facet normal 1 1.77321e-016 0
    outer loop
      vertex -5 10 35
      vertex -5 10 0
      vertex -5 12.9053 26.6538
    endloop
  endfacet
  facet normal 1 1.77321e-016 0
    outer loop
      vertex -5 10 35
      vertex -5 12.9053 26.6538
      vertex -5 12.51 28
    endloop
  endfacet
  facet normal 1 1.77321e-016 0
    outer loop
      vertex -5 10 35
      vertex -5 15.3544 30.4647
      vertex -5 20 35
    endloop
  endfacet
  facet normal 1 1.77321e-016 0
    outer loop
      vertex -5 15.3544 30.4647
      vertex -5 16.6306 29.8818
      vertex -5 20 35
    endloop
  endfacet
  facet normal 1 1.77321e-016 0
    outer loop
      vertex -5 16.6306 6.11818
      vertex -5 15.3544 5.53534
      vertex -5 10 0
    endloop
  endfacet
  facet normal 1 1.77321e-016 0
    outer loop
      vertex -5 12.9053 29.3462
      vertex -5 13.9656 30.265
      vertex -5 10 35
    endloop
  endfacet
  facet normal 0 0 1
    outer loop
      vertex -5 20 35
      vertex -10 20 35
      vertex -10 -20 35
    endloop
  endfacet
  facet normal 0 0 1
    outer loop
      vertex -5 -2.5 35
      vertex -5 -8.86606e-016 35
      vertex -10 -20 35
    endloop
  endfacet
  facet normal 0 0 1
    outer loop
      vertex -5 -10.25 35
      vertex -5 -2.5 35
      vertex -10 -20 35
    endloop
  endfacet
  facet normal 0 0 1
    outer loop
      vertex -5 -20 35
      vertex -5 -10.25 35
      vertex -10 -20 35
    endloop
  endfacet
  facet normal 0 0 1
    outer loop
      vertex 4 9.85317 35
      vertex -5 10 35
      vertex 4 7.09285e-016 35
    endloop
  endfacet
  facet normal 0 0 1
    outer loop
      vertex 4 9.85317 35
      vertex 4 7.09285e-016 35
      vertex 5.76336 0.572949 35
    endloop
  endfacet
  facet normal 0 0 1
    outer loop
      vertex 5 -1.75 35
      vertex 5 -2.5 35
      vertex 5 -1.90172 35
    endloop
  endfacet
  facet normal 0 0 1
    outer loop
      vertex 7 -8.25 35
      vertex 7 -3.75 35
      vertex 5 -1.90172 35
    endloop
  endfacet
  facet normal 0 0 1
    outer loop
      vertex 4.92705 9.85317 35
      vertex 4 9.85317 35
      vertex 7 7 35
    endloop
  endfacet
  facet normal 0 0 1
    outer loop
      vertex 4 9.85317 35
      vertex 5.76336 0.572949 35
      vertex 6.85317 2.07295 35
    endloop
  endfacet
  facet normal 0 0 1
    outer loop
      vertex 4 10 35
      vertex -5 10 35
      vertex 4 9.85317 35
    endloop
  endfacet
  facet normal 0 0 1
    outer loop
      vertex 7 -8.25 35
      vertex 5 -1.90172 35
      vertex 5 -2.5 35
    endloop
  endfacet
  facet normal 0 0 1
    outer loop
      vertex 5 -10.25 35
      vertex -5 -2.5 35
      vertex -5 -10.25 35
    endloop
  endfacet
  facet normal 0 0 1
    outer loop
      vertex -5 -8.86606e-016 35
      vertex -5 10 35
      vertex -10 -20 35
    endloop
  endfacet
  facet normal 0 0 1
    outer loop
      vertex -5 10 35
      vertex -5 20 35
      vertex -10 -20 35
    endloop
  endfacet
  facet normal 0 0 1
    outer loop
      vertex 4 9.85317 35
      vertex 6.85317 3 35
      vertex 7 3 35
    endloop
  endfacet
  facet normal 0 0 1
    outer loop
      vertex 4 9.85317 35
      vertex 6.85317 2.07295 35
      vertex 6.85317 3 35
    endloop
  endfacet
  facet normal 0 0 1
    outer loop
      vertex 7 7 35
      vertex 6.42705 8.76336 35
      vertex 4.92705 9.85317 35
    endloop
  endfacet
  facet normal 0 0 1
    outer loop
      vertex 7 3 35
      vertex 7 7 35
      vertex 4 9.85317 35
    endloop
  endfacet
  facet normal 0 0 1
    outer loop
      vertex -5 -8.86606e-016 35
      vertex 4 7.09285e-016 35
      vertex -5 10 35
    endloop
  endfacet
  facet normal 0 0 1
    outer loop
      vertex 6.24698 -2.18634 35
      vertex 5 -1.90172 35
      vertex 7 -3.75 35
    endloop
  endfacet
  facet normal 0 0 1
    outer loop
      vertex 5 -2.5 35
      vertex 6.84828 -8.25 35
      vertex 7 -8.25 35
    endloop
  endfacet
  facet normal 0 0 1
    outer loop
      vertex 5 -2.5 35
      vertex 6.56366 -9.49698 35
      vertex 6.84828 -8.25 35
    endloop
  endfacet
  facet normal 0 0 1
    outer loop
      vertex 5 -2.5 35
      vertex 5 -10.25 35
      vertex 6.56366 -9.49698 35
    endloop
  endfacet
  facet normal 0 0 1
    outer loop
      vertex 5 -2.5 35
      vertex -5 -2.5 35
      vertex 5 -10.25 35
    endloop
  endfacet
  facet normal 1.77321e-016 -1 0
    outer loop
      vertex -10 -20 35
      vertex -10 -20 0
      vertex -5 -20 0
    endloop
  endfacet
  facet normal 1.77321e-016 -1 0
    outer loop
      vertex -5 -20 35
      vertex -10 -20 35
      vertex -5 -20 0
    endloop
  endfacet
  facet normal 2.84159e-016 -0.62349 0.781831
    outer loop
      vertex -10 15.445 6.05014
      vertex -5.44879 15.445 6.05014
      vertex -5.68656 16.181 6.63705
    endloop
  endfacet
  facet normal 2.84159e-016 -0.62349 0.781831
    outer loop
      vertex -5.42116 16.8019 7.13223
      vertex -10 15.445 6.05014
      vertex -5.68656 16.181 6.63705
    endloop
  endfacet
  facet normal 2.84159e-016 -0.62349 0.781831
    outer loop
      vertex -5.42116 16.8019 7.13223
      vertex -10 16.8019 7.13223
      vertex -10 15.445 6.05014
    endloop
  endfacet
  facet normal 1.77321e-016 -1 0
    outer loop
      vertex -10 16.8019 8.86777
      vertex -5.61199 16.8019 7.4709
      vertex -5.61199 16.8019 8.5291
    endloop
  endfacet
  facet normal 1.77321e-016 -1 0
    outer loop
      vertex -5.42116 16.8019 7.13223
      vertex -5.61199 16.8019 7.4709
      vertex -10 16.8019 8.86777
    endloop
  endfacet
  facet normal 1.77321e-016 -1 0
    outer loop
      vertex -5.42116 16.8019 8.86777
      vertex -10 16.8019 8.86777
      vertex -5.61199 16.8019 8.5291
    endloop
  endfacet
  facet normal 1.77321e-016 -1 0
    outer loop
      vertex -10 16.8019 8.86777
      vertex -10 16.8019 7.13223
      vertex -5.42116 16.8019 7.13223
    endloop
  endfacet
  facet normal 1.7702e-016 0.222521 0.974928
    outer loop
      vertex -10 13.753 6.43634
      vertex -5.4073 13.753 6.43634
      vertex -5.64991 14.2356 6.32619
    endloop
  endfacet
  facet normal 1.7702e-016 0.222521 0.974928
    outer loop
      vertex -5.55936 15.2748 6.08901
      vertex -10 13.753 6.43634
      vertex -5.64991 14.2356 6.32619
    endloop
  endfacet
  facet normal 1.7702e-016 0.222521 0.974928
    outer loop
      vertex -5.55936 15.2748 6.08901
      vertex -5.44879 15.445 6.05014
      vertex -10 13.753 6.43634
    endloop
  endfacet
  facet normal 1.7702e-016 0.222521 0.974928
    outer loop
      vertex -5.44879 15.445 6.05014
      vertex -10 15.445 6.05014
      vertex -10 13.753 6.43634
    endloop
  endfacet
  facet normal -6.34195e-017 0.900969 0.433884
    outer loop
      vertex -5.49 13 8
      vertex -5.67448 13.4727 7.01846
      vertex -10 13 8
    endloop
  endfacet
  facet normal -6.34195e-017 0.900969 0.433884
    outer loop
      vertex -10 13 8
      vertex -5.67448 13.4727 7.01846
      vertex -5.4073 13.753 6.43634
    endloop
  endfacet
  facet normal -6.34195e-017 0.900969 0.433884
    outer loop
      vertex -10 13 8
      vertex -5.4073 13.753 6.43634
      vertex -10 13.753 6.43634
    endloop
  endfacet
  facet normal -2.56102e-016 0.900969 -0.433884
    outer loop
      vertex -5.67448 13.4727 8.98154
      vertex -5.49 13 8
      vertex -10 13 8
    endloop
  endfacet
  facet normal -2.56102e-016 0.900969 -0.433884
    outer loop
      vertex -5.67448 13.4727 8.98154
      vertex -10 13 8
      vertex -5.4073 13.753 9.56366
    endloop
  endfacet
  facet normal -2.56102e-016 0.900969 -0.433884
    outer loop
      vertex -10 13 8
      vertex -10 13.753 9.56366
      vertex -5.4073 13.753 9.56366
    endloop
  endfacet
  facet normal -2.55935e-016 0.222521 -0.974928
    outer loop
      vertex -10 13.753 9.56366
      vertex -5.64991 14.2356 9.67381
      vertex -5.4073 13.753 9.56366
    endloop
  endfacet
  facet normal -2.55935e-016 0.222521 -0.974928
    outer loop
      vertex -5.55936 15.2748 9.91099
      vertex -5.64991 14.2356 9.67381
      vertex -10 13.753 9.56366
    endloop
  endfacet
  facet normal -2.55935e-016 0.222521 -0.974928
    outer loop
      vertex -5.55936 15.2748 9.91099
      vertex -10 13.753 9.56366
      vertex -5.44879 15.445 9.94986
    endloop
  endfacet
  facet normal -2.55935e-016 0.222521 -0.974928
    outer loop
      vertex -10 13.753 9.56366
      vertex -10 15.445 9.94986
      vertex -5.44879 15.445 9.94986
    endloop
  endfacet
  facet normal -6.30434e-017 -0.62349 -0.781831
    outer loop
      vertex -5.68656 16.181 9.36295
      vertex -5.44879 15.445 9.94986
      vertex -10 15.445 9.94986
    endloop
  endfacet
  facet normal -6.30434e-017 -0.62349 -0.781831
    outer loop
      vertex -5.68656 16.181 9.36295
      vertex -10 15.445 9.94986
      vertex -5.42116 16.8019 8.86777
    endloop
  endfacet
  facet normal -6.30434e-017 -0.62349 -0.781831
    outer loop
      vertex -10 15.445 9.94986
      vertex -10 16.8019 8.86777
      vertex -5.42116 16.8019 8.86777
    endloop
  endfacet
  facet normal 2.84159e-016 -0.62349 0.781831
    outer loop
      vertex -10 15.445 26.0501
      vertex -5.44879 15.445 26.0501
      vertex -5.68656 16.181 26.6371
    endloop
  endfacet
  facet normal 2.84159e-016 -0.62349 0.781831
    outer loop
      vertex -5.42116 16.8019 27.1322
      vertex -10 15.445 26.0501
      vertex -5.68656 16.181 26.6371
    endloop
  endfacet
  facet normal 2.84159e-016 -0.62349 0.781831
    outer loop
      vertex -5.42116 16.8019 27.1322
      vertex -10 16.8019 27.1322
      vertex -10 15.445 26.0501
    endloop
  endfacet
  facet normal 1.77321e-016 -1 0
    outer loop
      vertex -10 16.8019 28.8678
      vertex -5.61199 16.8019 27.4709
      vertex -5.61199 16.8019 28.5291
    endloop
  endfacet
  facet normal 1.77321e-016 -1 0
    outer loop
      vertex -5.42116 16.8019 27.1322
      vertex -5.61199 16.8019 27.4709
      vertex -10 16.8019 28.8678
    endloop
  endfacet
  facet normal 1.77321e-016 -1 0
    outer loop
      vertex -5.42116 16.8019 28.8678
      vertex -10 16.8019 28.8678
      vertex -5.61199 16.8019 28.5291
    endloop
  endfacet
  facet normal 1.77321e-016 -1 0
    outer loop
      vertex -10 16.8019 28.8678
      vertex -10 16.8019 27.1322
      vertex -5.42116 16.8019 27.1322
    endloop
  endfacet
  facet normal 1.7702e-016 0.222521 0.974928
    outer loop
      vertex -10 13.753 26.4363
      vertex -5.4073 13.753 26.4363
      vertex -5.64991 14.2356 26.3262
    endloop
  endfacet
  facet normal 1.7702e-016 0.222521 0.974928
    outer loop
      vertex -5.55936 15.2748 26.089
      vertex -10 13.753 26.4363
      vertex -5.64991 14.2356 26.3262
    endloop
  endfacet
  facet normal 1.7702e-016 0.222521 0.974928
    outer loop
      vertex -5.55936 15.2748 26.089
      vertex -5.44879 15.445 26.0501
      vertex -10 13.753 26.4363
    endloop
  endfacet
  facet normal 1.7702e-016 0.222521 0.974928
    outer loop
      vertex -5.44879 15.445 26.0501
      vertex -10 15.445 26.0501
      vertex -10 13.753 26.4363
    endloop
  endfacet
  facet normal -6.34195e-017 0.900969 0.433884
    outer loop
      vertex -5.49 13 28
      vertex -5.67448 13.4727 27.0185
      vertex -10 13 28
    endloop
  endfacet
  facet normal -6.34195e-017 0.900969 0.433884
    outer loop
      vertex -10 13 28
      vertex -5.67448 13.4727 27.0185
      vertex -5.4073 13.753 26.4363
    endloop
  endfacet
  facet normal -6.34195e-017 0.900969 0.433884
    outer loop
      vertex -10 13 28
      vertex -5.4073 13.753 26.4363
      vertex -10 13.753 26.4363
    endloop
  endfacet
  facet normal -2.56102e-016 0.900969 -0.433884
    outer loop
      vertex -5.67448 13.4727 28.9815
      vertex -5.49 13 28
      vertex -10 13 28
    endloop
  endfacet
  facet normal -2.56102e-016 0.900969 -0.433884
    outer loop
      vertex -5.67448 13.4727 28.9815
      vertex -10 13 28
      vertex -5.4073 13.753 29.5637
    endloop
  endfacet
  facet normal -2.56102e-016 0.900969 -0.433884
    outer loop
      vertex -10 13 28
      vertex -10 13.753 29.5637
      vertex -5.4073 13.753 29.5637
    endloop
  endfacet
  facet normal -2.55935e-016 0.222521 -0.974928
    outer loop
      vertex -10 13.753 29.5637
      vertex -5.64991 14.2356 29.6738
      vertex -5.4073 13.753 29.5637
    endloop
  endfacet
  facet normal -2.55935e-016 0.222521 -0.974928
    outer loop
      vertex -5.55936 15.2748 29.911
      vertex -5.64991 14.2356 29.6738
      vertex -10 13.753 29.5637
    endloop
  endfacet
  facet normal -2.55935e-016 0.222521 -0.974928
    outer loop
      vertex -5.55936 15.2748 29.911
      vertex -10 13.753 29.5637
      vertex -5.44879 15.445 29.9499
    endloop
  endfacet
  facet normal -2.55935e-016 0.222521 -0.974928
    outer loop
      vertex -10 13.753 29.5637
      vertex -10 15.445 29.9499
      vertex -5.44879 15.445 29.9499
    endloop
  endfacet
  facet normal -6.30434e-017 -0.62349 -0.781831
    outer loop
      vertex -5.68656 16.181 29.3629
      vertex -5.44879 15.445 29.9499
      vertex -10 15.445 29.9499
    endloop
  endfacet
  facet normal -6.30434e-017 -0.62349 -0.781831
    outer loop
      vertex -5.68656 16.181 29.3629
      vertex -10 15.445 29.9499
      vertex -5.42116 16.8019 28.8678
    endloop
  endfacet
  facet normal -6.30434e-017 -0.62349 -0.781831
    outer loop
      vertex -10 15.445 29.9499
      vertex -10 16.8019 28.8678
      vertex -5.42116 16.8019 28.8678
    endloop
  endfacet
  facet normal 2.84159e-016 -0.62349 0.781831
    outer loop
      vertex -10 -14.555 6.05014
      vertex -5.44879 -14.555 6.05014
      vertex -5.68656 -13.819 6.63705
    endloop
  endfacet
  facet normal 2.84159e-016 -0.62349 0.781831
    outer loop
      vertex -5.42116 -13.1981 7.13223
      vertex -10 -14.555 6.05014
      vertex -5.68656 -13.819 6.63705
    endloop
  endfacet
  facet normal 2.84159e-016 -0.62349 0.781831
    outer loop
      vertex -5.42116 -13.1981 7.13223
      vertex -10 -13.1981 7.13223
      vertex -10 -14.555 6.05014
    endloop
  endfacet
  facet normal 1.77321e-016 -1 0
    outer loop
      vertex -10 -13.1981 8.86777
      vertex -5.61199 -13.1981 7.4709
      vertex -5.61199 -13.1981 8.5291
    endloop
  endfacet
  facet normal 1.77321e-016 -1 0
    outer loop
      vertex -5.42116 -13.1981 7.13223
      vertex -5.61199 -13.1981 7.4709
      vertex -10 -13.1981 8.86777
    endloop
  endfacet
  facet normal 1.77321e-016 -1 0
    outer loop
      vertex -5.42116 -13.1981 8.86777
      vertex -10 -13.1981 8.86777
      vertex -5.61199 -13.1981 8.5291
    endloop
  endfacet
  facet normal 1.77321e-016 -1 0
    outer loop
      vertex -10 -13.1981 8.86777
      vertex -10 -13.1981 7.13223
      vertex -5.42116 -13.1981 7.13223
    endloop
  endfacet
  facet normal 1.7702e-016 0.222521 0.974928
    outer loop
      vertex -10 -16.247 6.43634
      vertex -5.4073 -16.247 6.43634
      vertex -5.64991 -15.7644 6.32619
    endloop
  endfacet
  facet normal 1.7702e-016 0.222521 0.974928
    outer loop
      vertex -5.55936 -14.7252 6.08901
      vertex -10 -16.247 6.43634
      vertex -5.64991 -15.7644 6.32619
    endloop
  endfacet
  facet normal 1.7702e-016 0.222521 0.974928
    outer loop
      vertex -5.55936 -14.7252 6.08901
      vertex -5.44879 -14.555 6.05014
      vertex -10 -16.247 6.43634
    endloop
  endfacet
  facet normal 1.7702e-016 0.222521 0.974928
    outer loop
      vertex -5.44879 -14.555 6.05014
      vertex -10 -14.555 6.05014
      vertex -10 -16.247 6.43634
    endloop
  endfacet
  facet normal -6.34195e-017 0.900969 0.433884
    outer loop
      vertex -5.49 -17 8
      vertex -5.67448 -16.5273 7.01846
      vertex -10 -17 8
    endloop
  endfacet
  facet normal -6.34195e-017 0.900969 0.433884
    outer loop
      vertex -10 -17 8
      vertex -5.67448 -16.5273 7.01846
      vertex -5.4073 -16.247 6.43634
    endloop
  endfacet
  facet normal -6.34195e-017 0.900969 0.433884
    outer loop
      vertex -10 -17 8
      vertex -5.4073 -16.247 6.43634
      vertex -10 -16.247 6.43634
    endloop
  endfacet
  facet normal -2.56102e-016 0.900969 -0.433884
    outer loop
      vertex -5.67448 -16.5273 8.98154
      vertex -5.49 -17 8
      vertex -10 -17 8
    endloop
  endfacet
  facet normal -2.56102e-016 0.900969 -0.433884
    outer loop
      vertex -5.67448 -16.5273 8.98154
      vertex -10 -17 8
      vertex -5.4073 -16.247 9.56366
    endloop
  endfacet
  facet normal -2.56102e-016 0.900969 -0.433884
    outer loop
      vertex -10 -17 8
      vertex -10 -16.247 9.56366
      vertex -5.4073 -16.247 9.56366
    endloop
  endfacet
  facet normal -2.55935e-016 0.222521 -0.974928
    outer loop
      vertex -10 -16.247 9.56366
      vertex -5.64991 -15.7644 9.67381
      vertex -5.4073 -16.247 9.56366
    endloop
  endfacet
  facet normal -2.55935e-016 0.222521 -0.974928
    outer loop
      vertex -5.55936 -14.7252 9.91099
      vertex -5.64991 -15.7644 9.67381
      vertex -10 -16.247 9.56366
    endloop
  endfacet
  facet normal -2.55935e-016 0.222521 -0.974928
    outer loop
      vertex -5.55936 -14.7252 9.91099
      vertex -10 -16.247 9.56366
      vertex -5.44879 -14.555 9.94986
    endloop
  endfacet
  facet normal -2.55935e-016 0.222521 -0.974928
    outer loop
      vertex -10 -16.247 9.56366
      vertex -10 -14.555 9.94986
      vertex -5.44879 -14.555 9.94986
    endloop
  endfacet
  facet normal -6.30434e-017 -0.62349 -0.781831
    outer loop
      vertex -5.68656 -13.819 9.36295
      vertex -5.44879 -14.555 9.94986
      vertex -10 -14.555 9.94986
    endloop
  endfacet
  facet normal -6.30434e-017 -0.62349 -0.781831
    outer loop
      vertex -5.68656 -13.819 9.36295
      vertex -10 -14.555 9.94986
      vertex -5.42116 -13.1981 8.86777
    endloop
  endfacet
  facet normal -6.30434e-017 -0.62349 -0.781831
    outer loop
      vertex -10 -14.555 9.94986
      vertex -10 -13.1981 8.86777
      vertex -5.42116 -13.1981 8.86777
    endloop
  endfacet
  facet normal 2.84159e-016 -0.62349 0.781831
    outer loop
      vertex -10 -14.555 26.0501
      vertex -5.44879 -14.555 26.0501
      vertex -5.68656 -13.819 26.6371
    endloop
  endfacet
  facet normal 2.84159e-016 -0.62349 0.781831
    outer loop
      vertex -5.42116 -13.1981 27.1322
      vertex -10 -14.555 26.0501
      vertex -5.68656 -13.819 26.6371
    endloop
  endfacet
  facet normal 2.84159e-016 -0.62349 0.781831
    outer loop
      vertex -5.42116 -13.1981 27.1322
      vertex -10 -13.1981 27.1322
      vertex -10 -14.555 26.0501
    endloop
  endfacet
  facet normal 1.77321e-016 -1 0
    outer loop
      vertex -10 -13.1981 28.8678
      vertex -5.61199 -13.1981 27.4709
      vertex -5.61199 -13.1981 28.5291
    endloop
  endfacet
  facet normal 1.77321e-016 -1 0
    outer loop
      vertex -5.42116 -13.1981 27.1322
      vertex -5.61199 -13.1981 27.4709
      vertex -10 -13.1981 28.8678
    endloop
  endfacet
  facet normal 1.77321e-016 -1 0
    outer loop
      vertex -5.42116 -13.1981 28.8678
      vertex -10 -13.1981 28.8678
      vertex -5.61199 -13.1981 28.5291
    endloop
  endfacet
  facet normal 1.77321e-016 -1 0
    outer loop
      vertex -10 -13.1981 28.8678
      vertex -10 -13.1981 27.1322
      vertex -5.42116 -13.1981 27.1322
    endloop
  endfacet
  facet normal 1.7702e-016 0.222521 0.974928
    outer loop
      vertex -10 -16.247 26.4363
      vertex -5.4073 -16.247 26.4363
      vertex -5.64991 -15.7644 26.3262
    endloop
  endfacet
  facet normal 1.7702e-016 0.222521 0.974928
    outer loop
      vertex -5.55936 -14.7252 26.089
      vertex -10 -16.247 26.4363
      vertex -5.64991 -15.7644 26.3262
    endloop
  endfacet
  facet normal 1.7702e-016 0.222521 0.974928
    outer loop
      vertex -5.55936 -14.7252 26.089
      vertex -5.44879 -14.555 26.0501
      vertex -10 -16.247 26.4363
    endloop
  endfacet
  facet normal 1.7702e-016 0.222521 0.974928
    outer loop
      vertex -5.44879 -14.555 26.0501
      vertex -10 -14.555 26.0501
      vertex -10 -16.247 26.4363
    endloop
  endfacet
  facet normal -6.34195e-017 0.900969 0.433884
    outer loop
      vertex -5.49 -17 28
      vertex -5.67448 -16.5273 27.0185
      vertex -10 -17 28
    endloop
  endfacet
  facet normal -6.34195e-017 0.900969 0.433884
    outer loop
      vertex -10 -17 28
      vertex -5.67448 -16.5273 27.0185
      vertex -5.4073 -16.247 26.4363
    endloop
  endfacet
  facet normal -6.34195e-017 0.900969 0.433884
    outer loop
      vertex -10 -17 28
      vertex -5.4073 -16.247 26.4363
      vertex -10 -16.247 26.4363
    endloop
  endfacet
  facet normal -2.56102e-016 0.900969 -0.433884
    outer loop
      vertex -5.67448 -16.5273 28.9815
      vertex -5.49 -17 28
      vertex -10 -17 28
    endloop
  endfacet
  facet normal -2.56102e-016 0.900969 -0.433884
    outer loop
      vertex -5.67448 -16.5273 28.9815
      vertex -10 -17 28
      vertex -5.4073 -16.247 29.5637
    endloop
  endfacet
  facet normal -2.56102e-016 0.900969 -0.433884
    outer loop
      vertex -10 -17 28
      vertex -10 -16.247 29.5637
      vertex -5.4073 -16.247 29.5637
    endloop
  endfacet
  facet normal -2.55935e-016 0.222521 -0.974928
    outer loop
      vertex -10 -16.247 29.5637
      vertex -5.64991 -15.7644 29.6738
      vertex -5.4073 -16.247 29.5637
    endloop
  endfacet
  facet normal -2.55935e-016 0.222521 -0.974928
    outer loop
      vertex -5.55936 -14.7252 29.911
      vertex -5.64991 -15.7644 29.6738
      vertex -10 -16.247 29.5637
    endloop
  endfacet
  facet normal -2.55935e-016 0.222521 -0.974928
    outer loop
      vertex -5.55936 -14.7252 29.911
      vertex -10 -16.247 29.5637
      vertex -5.44879 -14.555 29.9499
    endloop
  endfacet
  facet normal -2.55935e-016 0.222521 -0.974928
    outer loop
      vertex -10 -16.247 29.5637
      vertex -10 -14.555 29.9499
      vertex -5.44879 -14.555 29.9499
    endloop
  endfacet
  facet normal -6.30434e-017 -0.62349 -0.781831
    outer loop
      vertex -5.68656 -13.819 29.3629
      vertex -5.44879 -14.555 29.9499
      vertex -10 -14.555 29.9499
    endloop
  endfacet
  facet normal -6.30434e-017 -0.62349 -0.781831
    outer loop
      vertex -5.68656 -13.819 29.3629
      vertex -10 -14.555 29.9499
      vertex -5.42116 -13.1981 28.8678
    endloop
  endfacet
  facet normal -6.30434e-017 -0.62349 -0.781831
    outer loop
      vertex -10 -14.555 29.9499
      vertex -10 -13.1981 28.8678
      vertex -5.42116 -13.1981 28.8678
    endloop
  endfacet
  facet normal 1 1.77321e-016 0
    outer loop
      vertex -5 -1.75 9.125
      vertex -5 -8.86606e-016 0
      vertex -5 -8.86606e-016 35
    endloop
  endfacet
  facet normal 1 1.77321e-016 0
    outer loop
      vertex -5 -1.75 2.875
      vertex -5 -2.5 2.875
      vertex -5 -2.5 0
    endloop
  endfacet
  facet normal 1 1.77321e-016 0
    outer loop
      vertex -5 -2.5 35
      vertex -5 -2.5 34.125
      vertex -5 -8.86606e-016 35
    endloop
  endfacet
  facet normal 1 1.77321e-016 0
    outer loop
      vertex -5 -2.5 34.125
      vertex -5 -1.75 34.125
      vertex -5 -8.86606e-016 35
    endloop
  endfacet
  facet normal 1 1.77321e-016 0
    outer loop
      vertex -5 -1.75 34.125
      vertex -5 -1.75 32.875
      vertex -5 -8.86606e-016 35
    endloop
  endfacet
  facet normal 1 1.77321e-016 0
    outer loop
      vertex -5 -2.5 24.125
      vertex -5 -1.75 24.125
      vertex -5 -1.75 27.875
    endloop
  endfacet
  facet normal 1 1.77321e-016 0
    outer loop
      vertex -5 -1.75 32.875
      vertex -5 -1.75 29.125
      vertex -5 -8.86606e-016 35
    endloop
  endfacet
  facet normal 1 1.77321e-016 0
    outer loop
      vertex -5 -1.75 29.125
      vertex -5 -1.75 27.875
      vertex -5 -8.86606e-016 35
    endloop
  endfacet
  facet normal 1 1.77321e-016 0
    outer loop
      vertex -5 -10.25 12.5
      vertex -5 -2.5 12.5
      vertex -5 -10.25 22.5
    endloop
  endfacet
  facet normal 1 1.77321e-016 0
    outer loop
      vertex -5 -1.75 27.875
      vertex -5 -1.75 24.125
      vertex -5 -8.86606e-016 35
    endloop
  endfacet
  facet normal 1 1.77321e-016 0
    outer loop
      vertex -5 -1.75 24.125
      vertex -5 -1.75 22.875
      vertex -5 -8.86606e-016 35
    endloop
  endfacet
  facet normal 1 1.77321e-016 0
    outer loop
      vertex -5 -10.25 12.5
      vertex -5 -13.3694 26.1182
      vertex -5 -14.6456 25.5353
    endloop
  endfacet
  facet normal 1 1.77321e-016 0
    outer loop
      vertex -5 -13.3694 6.11818
      vertex -5 -20 0
      vertex -5 -10.25 0
    endloop
  endfacet
  facet normal 1 1.77321e-016 0
    outer loop
      vertex -5 -12.6109 8.70151
      vertex -5 -10.25 0
      vertex -5 -10.25 12.5
    endloop
  endfacet
  facet normal 1 1.77321e-016 0
    outer loop
      vertex -5 -10.25 22.5
      vertex -5 -2.5 12.5
      vertex -5 -2.5 22.5
    endloop
  endfacet
  facet normal 1 1.77321e-016 0
    outer loop
      vertex -5 -17.49 28
      vertex -5 -17.0947 29.3462
      vertex -5 -20 35
    endloop
  endfacet
  facet normal 1 1.77321e-016 0
    outer loop
      vertex -5 -2.5 4.125
      vertex -5 -1.75 4.125
      vertex -5 -1.75 7.875
    endloop
  endfacet
  facet normal 1 1.77321e-016 0
    outer loop
      vertex -5 -17.0947 29.3462
      vertex -5 -16.0344 30.265
      vertex -5 -20 35
    endloop
  endfacet
  facet normal 1 1.77321e-016 0
    outer loop
      vertex -5 -1.75 7.875
      vertex -5 -8.86606e-016 0
      vertex -5 -1.75 9.125
    endloop
  endfacet
  facet normal 1 1.77321e-016 0
    outer loop
      vertex -5 -1.75 4.125
      vertex -5 -8.86606e-016 0
      vertex -5 -1.75 7.875
    endloop
  endfacet
  facet normal 1 1.77321e-016 0
    outer loop
      vertex -5 -12.6109 8.70151
      vertex -5 -12.6109 7.29849
      vertex -5 -10.25 0
    endloop
  endfacet
  facet normal 1 1.77321e-016 0
    outer loop
      vertex -5 -2.5 29.125
      vertex -5 -1.75 29.125
      vertex -5 -1.75 32.875
    endloop
  endfacet
  facet normal 1 1.77321e-016 0
    outer loop
      vertex -5 -1.75 2.875
      vertex -5 -8.86606e-016 0
      vertex -5 -1.75 4.125
    endloop
  endfacet
  facet normal 1 1.77321e-016 0
    outer loop
      vertex -5 -2.5 0
      vertex -5 -8.86606e-016 0
      vertex -5 -1.75 2.875
    endloop
  endfacet
  facet normal 1 1.77321e-016 0
    outer loop
      vertex -5 -2.5 9.125
      vertex -5 -8.86606e-016 35
      vertex -5 -1.75 22.875
    endloop
  endfacet
  facet normal 1 1.77321e-016 0
    outer loop
      vertex -5 -16.0344 25.735
      vertex -5 -12.6109 8.70151
      vertex -5 -10.25 12.5
    endloop
  endfacet
  facet normal 1 1.77321e-016 0
    outer loop
      vertex -5 -13.3694 6.11818
      vertex -5 -14.6456 5.53534
      vertex -5 -20 0
    endloop
  endfacet
  facet normal 1 1.77321e-016 0
    outer loop
      vertex -5 -12.6109 7.29849
      vertex -5 -13.3694 6.11818
      vertex -5 -10.25 0
    endloop
  endfacet
  facet normal 1 1.77321e-016 0
    outer loop
      vertex -5 -17.49 8
      vertex -5 -17.0947 9.3462
      vertex -5 -20 35
    endloop
  endfacet
  facet normal 1 1.77321e-016 0
    outer loop
      vertex -5 -16.0344 5.73502
      vertex -5 -20 0
      vertex -5 -14.6456 5.53534
    endloop
  endfacet
  facet normal 1 1.77321e-016 0
    outer loop
      vertex -5 -17.0947 6.6538
      vertex -5 -20 0
      vertex -5 -16.0344 5.73502
    endloop
  endfacet
  facet normal 1 1.77321e-016 0
    outer loop
      vertex -5 -17.49 8
      vertex -5 -20 0
      vertex -5 -17.0947 6.6538
    endloop
  endfacet
  facet normal 1 1.77321e-016 0
    outer loop
      vertex -5 -17.0947 9.3462
      vertex -5 -16.0344 10.265
      vertex -5 -20 35
    endloop
  endfacet
  facet normal 1 1.77321e-016 0
    outer loop
      vertex -5 -20 35
      vertex -5 -20 0
      vertex -5 -17.49 8
    endloop
  endfacet
  facet normal 1 1.77321e-016 0
    outer loop
      vertex -5 -16.0344 10.265
      vertex -5 -14.6456 10.4647
      vertex -5 -20 35
    endloop
  endfacet
  facet normal 1 1.77321e-016 0
    outer loop
      vertex -5 -12.6109 27.2985
      vertex -5 -13.3694 26.1182
      vertex -5 -10.25 22.5
    endloop
  endfacet
  facet normal 1 1.77321e-016 0
    outer loop
      vertex -5 -20 35
      vertex -5 -14.6456 10.4647
      vertex -5 -13.3694 9.88182
    endloop
  endfacet
  facet normal 1 1.77321e-016 0
    outer loop
      vertex -5 -10.25 35
      vertex -5 -12.6109 28.7015
      vertex -5 -10.25 22.5
    endloop
  endfacet
  facet normal 1 1.77321e-016 0
    outer loop
      vertex -5 -12.6109 28.7015
      vertex -5 -12.6109 27.2985
      vertex -5 -10.25 22.5
    endloop
  endfacet
  facet normal 1 1.77321e-016 0
    outer loop
      vertex -5 -2.5 9.125
      vertex -5 -1.75 9.125
      vertex -5 -8.86606e-016 35
    endloop
  endfacet
  facet normal 1 1.77321e-016 0
    outer loop
      vertex -5 -17.0947 26.6538
      vertex -5 -12.6109 8.70151
      vertex -5 -16.0344 25.735
    endloop
  endfacet
  facet normal 1 1.77321e-016 0
    outer loop
      vertex -5 -20 35
      vertex -5 -12.6109 8.70151
      vertex -5 -17.0947 26.6538
    endloop
  endfacet
  facet normal 1 1.77321e-016 0
    outer loop
      vertex -5 -20 35
      vertex -5 -17.0947 26.6538
      vertex -5 -17.49 28
    endloop
  endfacet
  facet normal 1 1.77321e-016 0
    outer loop
      vertex -5 -16.0344 30.265
      vertex -5 -14.6456 30.4647
      vertex -5 -20 35
    endloop
  endfacet
  facet normal 1 1.77321e-016 0
    outer loop
      vertex -5 -14.6456 25.5353
      vertex -5 -16.0344 25.735
      vertex -5 -10.25 12.5
    endloop
  endfacet
  facet normal 1 1.77321e-016 0
    outer loop
      vertex -5 -10.25 35
      vertex -5 -20 35
      vertex -5 -14.6456 30.4647
    endloop
  endfacet
  facet normal 1 1.77321e-016 0
    outer loop
      vertex -5 -10.25 35
      vertex -5 -13.3694 29.8818
      vertex -5 -12.6109 28.7015
    endloop
  endfacet
  facet normal 1 1.77321e-016 0
    outer loop
      vertex -5 -10.25 35
      vertex -5 -14.6456 30.4647
      vertex -5 -13.3694 29.8818
    endloop
  endfacet
  facet normal 1 1.77321e-016 0
    outer loop
      vertex -5 -13.3694 9.88182
      vertex -5 -12.6109 8.70151
      vertex -5 -20 35
    endloop
  endfacet
  facet normal 1 1.77321e-016 0
    outer loop
      vertex -5 -1.75 7.875
      vertex -5 -2.5 7.875
      vertex -5 -2.5 4.125
    endloop
  endfacet
  facet normal 1 1.77321e-016 0
    outer loop
      vertex -5 -1.75 22.875
      vertex -5 -2.5 12.5
      vertex -5 -2.5 9.125
    endloop
  endfacet
  facet normal 1 1.77321e-016 0
    outer loop
      vertex -5 -1.75 22.875
      vertex -5 -2.5 22.5
      vertex -5 -2.5 12.5
    endloop
  endfacet
  facet normal 1 1.77321e-016 0
    outer loop
      vertex -5 -1.75 22.875
      vertex -5 -2.5 22.875
      vertex -5 -2.5 22.5
    endloop
  endfacet
  facet normal 1 1.77321e-016 0
    outer loop
      vertex -5 -10.25 12.5
      vertex -5 -10.25 22.5
      vertex -5 -13.3694 26.1182
    endloop
  endfacet
  facet normal 1 1.77321e-016 0
    outer loop
      vertex -5 -1.75 27.875
      vertex -5 -2.5 27.875
      vertex -5 -2.5 24.125
    endloop
  endfacet
  facet normal 1 1.77321e-016 0
    outer loop
      vertex -5 -1.75 32.875
      vertex -5 -2.5 32.875
      vertex -5 -2.5 29.125
    endloop
  endfacet
  facet normal 1.77321e-016 -1 0
    outer loop
      vertex -5 -10.25 12.5
      vertex -5 -10.25 0
      vertex 5 -10.25 0
    endloop
  endfacet
  facet normal 1.77321e-016 -1 0
    outer loop
      vertex 5 -10.25 12.5
      vertex -5 -10.25 12.5
      vertex 5 -10.25 0
    endloop
  endfacet
  facet normal 0.433884 -0.900969 0
    outer loop
      vertex 5 -10.25 0
      vertex 6.56366 -9.49698 0
      vertex 6.56366 -9.49698 35
    endloop
  endfacet
  facet normal 0.433884 -0.900969 0
    outer loop
      vertex 5 -10.25 12.5
      vertex 5 -10.25 0
      vertex 6.56366 -9.49698 35
    endloop
  endfacet
  facet normal 0.433884 -0.900969 0
    outer loop
      vertex 5 -10.25 35
      vertex 5 -10.25 22.5
      vertex 6.56366 -9.49698 35
    endloop
  endfacet
  facet normal 0.433884 -0.900969 0
    outer loop
      vertex 5 -10.25 22.5
      vertex 5 -10.25 12.5
      vertex 6.56366 -9.49698 35
    endloop
  endfacet
  facet normal 0.974928 -0.222521 0
    outer loop
      vertex 6.56366 -9.49698 0
      vertex 6.84828 -8.25 0
      vertex 6.84828 -8.25 35
    endloop
  endfacet
  facet normal 0.974928 -0.222521 0
    outer loop
      vertex 6.56366 -9.49698 35
      vertex 6.56366 -9.49698 0
      vertex 6.84828 -8.25 35
    endloop
  endfacet
  facet normal 1.77321e-016 -1 0
    outer loop
      vertex 7 -8.25 0
      vertex 7 -8.25 35
      vertex 6.84828 -8.25 35
    endloop
  endfacet
  facet normal 1.77321e-016 -1 0
    outer loop
      vertex 6.84828 -8.25 0
      vertex 7 -8.25 0
      vertex 6.84828 -8.25 35
    endloop
  endfacet
  facet normal 1 1.77321e-016 0
    outer loop
      vertex 7 -8.25 0
      vertex 7 -3.75 0
      vertex 7 -3.75 35
    endloop
  endfacet
  facet normal 1 1.77321e-016 0
    outer loop
      vertex 7 -8.25 35
      vertex 7 -8.25 0
      vertex 7 -3.75 35
    endloop
  endfacet
  facet normal 0.900969 0.433884 0
    outer loop
      vertex 7 -3.75 0
      vertex 6.24698 -2.18634 0
      vertex 6.24698 -2.18634 35
    endloop
  endfacet
  facet normal 0.900969 0.433884 0
    outer loop
      vertex 7 -3.75 35
      vertex 7 -3.75 0
      vertex 6.24698 -2.18634 35
    endloop
  endfacet
  facet normal 0.222521 0.974928 0
    outer loop
      vertex 5 -1.90172 0
      vertex 5 -1.90172 35
      vertex 6.24698 -2.18634 0
    endloop
  endfacet
  facet normal 0.222521 0.974928 0
    outer loop
      vertex 6.24698 -2.18634 0
      vertex 5 -1.90172 35
      vertex 6.24698 -2.18634 35
    endloop
  endfacet
  facet normal 1 0 0
    outer loop
      vertex 5 -1.75 35
      vertex 5 -1.90172 35
      vertex 5 -1.90172 0
    endloop
  endfacet
  facet normal 1 0 0
    outer loop
      vertex 5 -1.75 0
      vertex 5 -1.75 35
      vertex 5 -1.90172 0
    endloop
  endfacet
  facet normal -1.77321e-016 1 0
    outer loop
      vertex -5 -1.75 2.875
      vertex -5 -1.75 4.125
      vertex 5 -1.75 2.875
    endloop
  endfacet
  facet normal -1.77321e-016 1 0
    outer loop
      vertex 5 -1.75 2.875
      vertex -5 -1.75 4.125
      vertex 5 -1.75 4.125
    endloop
  endfacet
  facet normal -1.77321e-016 1 0
    outer loop
      vertex 5 -1.75 4.125
      vertex 5 -1.75 35
      vertex 5 -1.75 2.875
    endloop
  endfacet
  facet normal -1.77321e-016 1 0
    outer loop
      vertex 5 -1.75 7.875
      vertex -5 -1.75 7.875
      vertex -5 -1.75 9.125
    endloop
  endfacet
  facet normal -1.77321e-016 1 0
    outer loop
      vertex 5 -1.75 7.875
      vertex -5 -1.75 9.125
      vertex 5 -1.75 9.125
    endloop
  endfacet
  facet normal -1.77321e-016 1 0
    outer loop
      vertex 5 -1.75 7.875
      vertex 5 -1.75 35
      vertex 5 -1.75 4.125
    endloop
  endfacet
  facet normal -1.77321e-016 1 0
    outer loop
      vertex 5 -1.75 9.125
      vertex 5 -1.75 35
      vertex 5 -1.75 7.875
    endloop
  endfacet
  facet normal -1.77321e-016 1 0
    outer loop
      vertex 5 -1.75 22.875
      vertex -5 -1.75 22.875
      vertex -5 -1.75 24.125
    endloop
  endfacet
  facet normal -1.77321e-016 1 0
    outer loop
      vertex 5 -1.75 22.875
      vertex -5 -1.75 24.125
      vertex 5 -1.75 24.125
    endloop
  endfacet
  facet normal -1.77321e-016 1 0
    outer loop
      vertex 5 -1.75 22.875
      vertex 5 -1.75 35
      vertex 5 -1.75 9.125
    endloop
  endfacet
  facet normal -1.77321e-016 1 0
    outer loop
      vertex 5 -1.75 24.125
      vertex 5 -1.75 35
      vertex 5 -1.75 22.875
    endloop
  endfacet
  facet normal -1.77321e-016 1 0
    outer loop
      vertex 5 -1.75 27.875
      vertex -5 -1.75 27.875
      vertex -5 -1.75 29.125
    endloop
  endfacet
  facet normal -1.77321e-016 1 0
    outer loop
      vertex 5 -1.75 27.875
      vertex -5 -1.75 29.125
      vertex 5 -1.75 29.125
    endloop
  endfacet
  facet normal -1.77321e-016 1 0
    outer loop
      vertex 5 -1.75 27.875
      vertex 5 -1.75 35
      vertex 5 -1.75 24.125
    endloop
  endfacet
  facet normal -1.77321e-016 1 0
    outer loop
      vertex 5 -1.75 29.125
      vertex 5 -1.75 35
      vertex 5 -1.75 27.875
    endloop
  endfacet
  facet normal -1.77321e-016 1 0
    outer loop
      vertex 5 -1.75 32.875
      vertex -5 -1.75 32.875
      vertex -5 -1.75 34.125
    endloop
  endfacet
  facet normal -1.77321e-016 1 0
    outer loop
      vertex 5 -1.75 32.875
      vertex -5 -1.75 34.125
      vertex 5 -1.75 34.125
    endloop
  endfacet
  facet normal -1.77321e-016 1 0
    outer loop
      vertex 5 -1.75 32.875
      vertex 5 -1.75 35
      vertex 5 -1.75 29.125
    endloop
  endfacet
  facet normal -1.77321e-016 1 0
    outer loop
      vertex 5 -1.75 34.125
      vertex 5 -1.75 35
      vertex 5 -1.75 32.875
    endloop
  endfacet
  facet normal -1.77321e-016 1 0
    outer loop
      vertex 5 -1.75 2.875
      vertex 5 -1.75 35
      vertex 5 -1.75 0
    endloop
  endfacet
  facet normal -1 -1.77321e-016 0
    outer loop
      vertex 5 -2.5 2.875
      vertex 5 -1.75 2.875
      vertex 5 -2.5 0
    endloop
  endfacet
  facet normal -1 -1.77321e-016 0
    outer loop
      vertex 5 -2.5 0
      vertex 5 -1.75 2.875
      vertex 5 -1.75 0
    endloop
  endfacet
  facet normal -1.77321e-016 1 0
    outer loop
      vertex 5 -2.5 2.875
      vertex 5 -2.5 0
      vertex -5 -2.5 2.875
    endloop
  endfacet
  facet normal -1.77321e-016 1 0
    outer loop
      vertex -5 -2.5 2.875
      vertex 5 -2.5 0
      vertex -5 -2.5 0
    endloop
  endfacet
  facet normal 1.77321e-016 -1 0
    outer loop
      vertex -5 -8.86606e-016 35
      vertex -5 -8.86606e-016 0
      vertex 4 7.09285e-016 0
    endloop
  endfacet
  facet normal 1.77321e-016 -1 0
    outer loop
      vertex 4 7.09285e-016 35
      vertex -5 -8.86606e-016 35
      vertex 4 7.09285e-016 0
    endloop
  endfacet
  facet normal 0.309017 -0.951057 0
    outer loop
      vertex 4 7.09285e-016 0
      vertex 5.76336 0.572949 0
      vertex 5.76336 0.572949 35
    endloop
  endfacet
  facet normal 0.309017 -0.951057 0
    outer loop
      vertex 4 7.09285e-016 35
      vertex 4 7.09285e-016 0
      vertex 5.76336 0.572949 35
    endloop
  endfacet
  facet normal 0.809017 -0.587785 0
    outer loop
      vertex 5.76336 0.572949 0
      vertex 6.85317 2.07295 0
      vertex 6.85317 2.07295 35
    endloop
  endfacet
  facet normal 0.809017 -0.587785 0
    outer loop
      vertex 5.76336 0.572949 35
      vertex 5.76336 0.572949 0
      vertex 6.85317 2.07295 35
    endloop
  endfacet
  facet normal 1 1.77321e-016 0
    outer loop
      vertex 6.85317 2.07295 0
      vertex 6.85317 3 0
      vertex 6.85317 3 35
    endloop
  endfacet
  facet normal 1 1.77321e-016 0
    outer loop
      vertex 6.85317 2.07295 35
      vertex 6.85317 2.07295 0
      vertex 6.85317 3 35
    endloop
  endfacet
  facet normal 1.77321e-016 -1 0
    outer loop
      vertex 7 3 0
      vertex 7 3 35
      vertex 6.85317 3 35
    endloop
  endfacet
  facet normal 1.77321e-016 -1 0
    outer loop
      vertex 6.85317 3 0
      vertex 7 3 0
      vertex 6.85317 3 35
    endloop
  endfacet
  facet normal 1 1.77321e-016 0
    outer loop
      vertex 7 3 0
      vertex 7 7 0
      vertex 7 7 35
    endloop
  endfacet
  facet normal 1 1.77321e-016 0
    outer loop
      vertex 7 3 35
      vertex 7 3 0
      vertex 7 7 35
    endloop
  endfacet
  facet normal 0.951057 0.309017 0
    outer loop
      vertex 7 7 0
      vertex 6.42705 8.76336 0
      vertex 6.42705 8.76336 35
    endloop
  endfacet
  facet normal 0.951057 0.309017 0
    outer loop
      vertex 7 7 35
      vertex 7 7 0
      vertex 6.42705 8.76336 35
    endloop
  endfacet
  facet normal 0.587785 0.809017 0
    outer loop
      vertex 4.92705 9.85317 0
      vertex 4.92705 9.85317 35
      vertex 6.42705 8.76336 0
    endloop
  endfacet
  facet normal 0.587785 0.809017 0
    outer loop
      vertex 6.42705 8.76336 0
      vertex 4.92705 9.85317 35
      vertex 6.42705 8.76336 35
    endloop
  endfacet
  facet normal 0 1 0
    outer loop
      vertex 4 9.85317 0
      vertex 4 9.85317 35
      vertex 4.92705 9.85317 0
    endloop
  endfacet
  facet normal 0 1 0
    outer loop
      vertex 4.92705 9.85317 0
      vertex 4 9.85317 35
      vertex 4.92705 9.85317 35
    endloop
  endfacet
  facet normal 1 0 0
    outer loop
      vertex 4 10 35
      vertex 4 9.85317 35
      vertex 4 9.85317 0
    endloop
  endfacet
  facet normal 1 0 0
    outer loop
      vertex 4 10 0
      vertex 4 10 35
      vertex 4 9.85317 0
    endloop
  endfacet
  facet normal -1.77321e-016 1 0
    outer loop
      vertex -5 10 0
      vertex -5 10 35
      vertex 4 10 0
    endloop
  endfacet
  facet normal -1.77321e-016 1 0
    outer loop
      vertex 4 10 0
      vertex -5 10 35
      vertex 4 10 35
    endloop
  endfacet
  facet normal 0.692341 -0.607024 -0.39011
    outer loop
      vertex -5 16.6306 9.88182
      vertex -5.68656 16.181 9.36295
      vertex -5.42116 16.8019 8.86777
    endloop
  endfacet
  facet normal 0.692341 -0.607024 -0.39011
    outer loop
      vertex -5 17.3891 8.70151
      vertex -5 16.6306 9.88182
      vertex -5.42116 16.8019 8.86777
    endloop
  endfacet
  facet normal 0.692341 -0.607024 -0.39011
    outer loop
      vertex -5.61199 16.8019 8.5291
      vertex -5 17.3891 8.70151
      vertex -5.42116 16.8019 8.86777
    endloop
  endfacet
  facet normal 0.692341 -0.72157 -1.53731e-016
    outer loop
      vertex -5 17.3891 8.70151
      vertex -5.61199 16.8019 8.5291
      vertex -5.61199 16.8019 7.4709
    endloop
  endfacet
  facet normal 0.692341 -0.72157 -1.53731e-016
    outer loop
      vertex -5 17.3891 7.29849
      vertex -5 17.3891 8.70151
      vertex -5.61199 16.8019 7.4709
    endloop
  endfacet
  facet normal 0.692341 -0.299751 -0.656363
    outer loop
      vertex -5 15.3544 10.4647
      vertex -5.55936 15.2748 9.91099
      vertex -5.44879 15.445 9.94986
    endloop
  endfacet
  facet normal 0.692341 -0.299751 -0.656363
    outer loop
      vertex -5.68656 16.181 9.36295
      vertex -5 15.3544 10.4647
      vertex -5.44879 15.445 9.94986
    endloop
  endfacet
  facet normal 0.692341 -0.299751 -0.656363
    outer loop
      vertex -5.68656 16.181 9.36295
      vertex -5 16.6306 9.88182
      vertex -5 15.3544 10.4647
    endloop
  endfacet
  facet normal 0.692341 0.10269 -0.714226
    outer loop
      vertex -5.64991 14.2356 9.67381
      vertex -5.55936 15.2748 9.91099
      vertex -5 13.9656 10.265
    endloop
  endfacet
  facet normal 0.692341 0.10269 -0.714226
    outer loop
      vertex -5 13.9656 10.265
      vertex -5.55936 15.2748 9.91099
      vertex -5 15.3544 10.4647
    endloop
  endfacet
  facet normal 0.692341 0.472528 -0.545326
    outer loop
      vertex -5 13.9656 10.265
      vertex -5 12.9053 9.3462
      vertex -5.67448 13.4727 8.98154
    endloop
  endfacet
  facet normal 0.692341 0.472528 -0.545326
    outer loop
      vertex -5.64991 14.2356 9.67381
      vertex -5 13.9656 10.265
      vertex -5.4073 13.753 9.56366
    endloop
  endfacet
  facet normal 0.692341 0.472528 -0.545326
    outer loop
      vertex -5.4073 13.753 9.56366
      vertex -5 13.9656 10.265
      vertex -5.67448 13.4727 8.98154
    endloop
  endfacet
  facet normal 0.692341 0.692341 -0.20329
    outer loop
      vertex -5 12.51 8
      vertex -5.49 13 8
      vertex -5 12.9053 9.3462
    endloop
  endfacet
  facet normal 0.692341 0.692341 -0.20329
    outer loop
      vertex -5 12.9053 9.3462
      vertex -5.49 13 8
      vertex -5.67448 13.4727 8.98154
    endloop
  endfacet
  facet normal 0.692341 0.692341 0.20329
    outer loop
      vertex -5 12.51 8
      vertex -5 12.9053 6.6538
      vertex -5.49 13 8
    endloop
  endfacet
  facet normal 0.692341 0.692341 0.20329
    outer loop
      vertex -5.49 13 8
      vertex -5 12.9053 6.6538
      vertex -5.67448 13.4727 7.01846
    endloop
  endfacet
  facet normal 0.692341 0.472528 0.545326
    outer loop
      vertex -5.4073 13.753 6.43634
      vertex -5.67448 13.4727 7.01846
      vertex -5 12.9053 6.6538
    endloop
  endfacet
  facet normal 0.692341 0.472528 0.545326
    outer loop
      vertex -5.64991 14.2356 6.32619
      vertex -5.4073 13.753 6.43634
      vertex -5 13.9656 5.73502
    endloop
  endfacet
  facet normal 0.692341 0.472528 0.545326
    outer loop
      vertex -5 13.9656 5.73502
      vertex -5.4073 13.753 6.43634
      vertex -5 12.9053 6.6538
    endloop
  endfacet
  facet normal 0.692341 0.10269 0.714226
    outer loop
      vertex -5.55936 15.2748 6.08901
      vertex -5.64991 14.2356 6.32619
      vertex -5 13.9656 5.73502
    endloop
  endfacet
  facet normal 0.692341 0.10269 0.714226
    outer loop
      vertex -5 15.3544 5.53534
      vertex -5.55936 15.2748 6.08901
      vertex -5 13.9656 5.73502
    endloop
  endfacet
  facet normal 0.692341 -0.299751 0.656363
    outer loop
      vertex -5.68656 16.181 6.63705
      vertex -5.44879 15.445 6.05014
      vertex -5 15.3544 5.53534
    endloop
  endfacet
  facet normal 0.692341 -0.299751 0.656363
    outer loop
      vertex -5 15.3544 5.53534
      vertex -5.44879 15.445 6.05014
      vertex -5.55936 15.2748 6.08901
    endloop
  endfacet
  facet normal 0.692341 -0.299751 0.656363
    outer loop
      vertex -5.68656 16.181 6.63705
      vertex -5 15.3544 5.53534
      vertex -5 16.6306 6.11818
    endloop
  endfacet
  facet normal 0.692341 -0.607024 0.39011
    outer loop
      vertex -5 16.6306 6.11818
      vertex -5.42116 16.8019 7.13223
      vertex -5.68656 16.181 6.63705
    endloop
  endfacet
  facet normal 0.692341 -0.607024 0.39011
    outer loop
      vertex -5 17.3891 7.29849
      vertex -5.42116 16.8019 7.13223
      vertex -5 16.6306 6.11818
    endloop
  endfacet
  facet normal 0.692341 -0.607024 0.39011
    outer loop
      vertex -5.61199 16.8019 7.4709
      vertex -5.42116 16.8019 7.13223
      vertex -5 17.3891 7.29849
    endloop
  endfacet
  facet normal 0.692341 -0.607024 -0.39011
    outer loop
      vertex -5 16.6306 29.8818
      vertex -5.68656 16.181 29.3629
      vertex -5.42116 16.8019 28.8678
    endloop
  endfacet
  facet normal 0.692341 -0.607024 -0.39011
    outer loop
      vertex -5 17.3891 28.7015
      vertex -5 16.6306 29.8818
      vertex -5.42116 16.8019 28.8678
    endloop
  endfacet
  facet normal 0.692341 -0.607024 -0.39011
    outer loop
      vertex -5.61199 16.8019 28.5291
      vertex -5 17.3891 28.7015
      vertex -5.42116 16.8019 28.8678
    endloop
  endfacet
  facet normal 0.692341 -0.72157 -1.53731e-016
    outer loop
      vertex -5 17.3891 28.7015
      vertex -5.61199 16.8019 28.5291
      vertex -5.61199 16.8019 27.4709
    endloop
  endfacet
  facet normal 0.692341 -0.72157 -1.53731e-016
    outer loop
      vertex -5 17.3891 27.2985
      vertex -5 17.3891 28.7015
      vertex -5.61199 16.8019 27.4709
    endloop
  endfacet
  facet normal 0.692341 -0.299751 -0.656363
    outer loop
      vertex -5 15.3544 30.4647
      vertex -5.55936 15.2748 29.911
      vertex -5.44879 15.445 29.9499
    endloop
  endfacet
  facet normal 0.692341 -0.299751 -0.656363
    outer loop
      vertex -5.68656 16.181 29.3629
      vertex -5 15.3544 30.4647
      vertex -5.44879 15.445 29.9499
    endloop
  endfacet
  facet normal 0.692341 -0.299751 -0.656363
    outer loop
      vertex -5.68656 16.181 29.3629
      vertex -5 16.6306 29.8818
      vertex -5 15.3544 30.4647
    endloop
  endfacet
  facet normal 0.692341 0.10269 -0.714226
    outer loop
      vertex -5.64991 14.2356 29.6738
      vertex -5.55936 15.2748 29.911
      vertex -5 13.9656 30.265
    endloop
  endfacet
  facet normal 0.692341 0.10269 -0.714226
    outer loop
      vertex -5 13.9656 30.265
      vertex -5.55936 15.2748 29.911
      vertex -5 15.3544 30.4647
    endloop
  endfacet
  facet normal 0.692341 0.472528 -0.545326
    outer loop
      vertex -5 13.9656 30.265
      vertex -5 12.9053 29.3462
      vertex -5.67448 13.4727 28.9815
    endloop
  endfacet
  facet normal 0.692341 0.472528 -0.545326
    outer loop
      vertex -5.64991 14.2356 29.6738
      vertex -5 13.9656 30.265
      vertex -5.4073 13.753 29.5637
    endloop
  endfacet
  facet normal 0.692341 0.472528 -0.545326
    outer loop
      vertex -5.4073 13.753 29.5637
      vertex -5 13.9656 30.265
      vertex -5.67448 13.4727 28.9815
    endloop
  endfacet
  facet normal 0.692341 0.692341 -0.20329
    outer loop
      vertex -5 12.51 28
      vertex -5.49 13 28
      vertex -5 12.9053 29.3462
    endloop
  endfacet
  facet normal 0.692341 0.692341 -0.20329
    outer loop
      vertex -5 12.9053 29.3462
      vertex -5.49 13 28
      vertex -5.67448 13.4727 28.9815
    endloop
  endfacet
  facet normal 0.692341 0.692341 0.20329
    outer loop
      vertex -5 12.51 28
      vertex -5 12.9053 26.6538
      vertex -5.49 13 28
    endloop
  endfacet
  facet normal 0.692341 0.692341 0.20329
    outer loop
      vertex -5.49 13 28
      vertex -5 12.9053 26.6538
      vertex -5.67448 13.4727 27.0185
    endloop
  endfacet
  facet normal 0.692341 0.472528 0.545326
    outer loop
      vertex -5.4073 13.753 26.4363
      vertex -5.67448 13.4727 27.0185
      vertex -5 12.9053 26.6538
    endloop
  endfacet
  facet normal 0.692341 0.472528 0.545326
    outer loop
      vertex -5.64991 14.2356 26.3262
      vertex -5.4073 13.753 26.4363
      vertex -5 13.9656 25.735
    endloop
  endfacet
  facet normal 0.692341 0.472528 0.545326
    outer loop
      vertex -5 13.9656 25.735
      vertex -5.4073 13.753 26.4363
      vertex -5 12.9053 26.6538
    endloop
  endfacet
  facet normal 0.692341 0.10269 0.714226
    outer loop
      vertex -5.55936 15.2748 26.089
      vertex -5.64991 14.2356 26.3262
      vertex -5 13.9656 25.735
    endloop
  endfacet
  facet normal 0.692341 0.10269 0.714226
    outer loop
      vertex -5 15.3544 25.5353
      vertex -5.55936 15.2748 26.089
      vertex -5 13.9656 25.735
    endloop
  endfacet
  facet normal 0.692341 -0.299751 0.656363
    outer loop
      vertex -5.68656 16.181 26.6371
      vertex -5.44879 15.445 26.0501
      vertex -5 15.3544 25.5353
    endloop
  endfacet
  facet normal 0.692341 -0.299751 0.656363
    outer loop
      vertex -5 15.3544 25.5353
      vertex -5.44879 15.445 26.0501
      vertex -5.55936 15.2748 26.089
    endloop
  endfacet
  facet normal 0.692341 -0.299751 0.656363
    outer loop
      vertex -5.68656 16.181 26.6371
      vertex -5 15.3544 25.5353
      vertex -5 16.6306 26.1182
    endloop
  endfacet
  facet normal 0.692341 -0.607024 0.39011
    outer loop
      vertex -5 16.6306 26.1182
      vertex -5.42116 16.8019 27.1322
      vertex -5.68656 16.181 26.6371
    endloop
  endfacet
  facet normal 0.692341 -0.607024 0.39011
    outer loop
      vertex -5 17.3891 27.2985
      vertex -5.42116 16.8019 27.1322
      vertex -5 16.6306 26.1182
    endloop
  endfacet
  facet normal 0.692341 -0.607024 0.39011
    outer loop
      vertex -5.61199 16.8019 27.4709
      vertex -5.42116 16.8019 27.1322
      vertex -5 17.3891 27.2985
    endloop
  endfacet
  facet normal -1.77321e-016 1 0
    outer loop
      vertex 5 -2.5 35
      vertex 5 -2.5 34.125
      vertex -5 -2.5 35
    endloop
  endfacet
  facet normal -1.77321e-016 1 0
    outer loop
      vertex -5 -2.5 35
      vertex 5 -2.5 34.125
      vertex -5 -2.5 34.125
    endloop
  endfacet
  facet normal -1 -1.77321e-016 0
    outer loop
      vertex 5 -2.5 35
      vertex 5 -1.75 35
      vertex 5 -2.5 34.125
    endloop
  endfacet
  facet normal -1 -1.77321e-016 0
    outer loop
      vertex 5 -2.5 34.125
      vertex 5 -1.75 35
      vertex 5 -1.75 34.125
    endloop
  endfacet
  facet normal 1.77321e-016 -1 0
    outer loop
      vertex -5 -10.25 35
      vertex -5 -10.25 22.5
      vertex 5 -10.25 22.5
    endloop
  endfacet
  facet normal 1.77321e-016 -1 0
    outer loop
      vertex 5 -10.25 35
      vertex -5 -10.25 35
      vertex 5 -10.25 22.5
    endloop
  endfacet
  facet normal 0.692341 -0.607024 0.39011
    outer loop
      vertex -5 -13.3694 6.11818
      vertex -5.42116 -13.1981 7.13223
      vertex -5.68656 -13.819 6.63705
    endloop
  endfacet
  facet normal 0.692341 -0.607024 0.39011
    outer loop
      vertex -5 -12.6109 7.29849
      vertex -5.42116 -13.1981 7.13223
      vertex -5 -13.3694 6.11818
    endloop
  endfacet
  facet normal 0.692341 -0.607024 0.39011
    outer loop
      vertex -5.61199 -13.1981 7.4709
      vertex -5.42116 -13.1981 7.13223
      vertex -5 -12.6109 7.29849
    endloop
  endfacet
  facet normal 0.692341 -0.299751 0.656363
    outer loop
      vertex -5.68656 -13.819 6.63705
      vertex -5.44879 -14.555 6.05014
      vertex -5 -14.6456 5.53534
    endloop
  endfacet
  facet normal 0.692341 -0.299751 0.656363
    outer loop
      vertex -5 -14.6456 5.53534
      vertex -5.44879 -14.555 6.05014
      vertex -5.55936 -14.7252 6.08901
    endloop
  endfacet
  facet normal 0.692341 -0.299751 0.656363
    outer loop
      vertex -5.68656 -13.819 6.63705
      vertex -5 -14.6456 5.53534
      vertex -5 -13.3694 6.11818
    endloop
  endfacet
  facet normal 0.692341 -0.607024 -0.39011
    outer loop
      vertex -5 -13.3694 9.88182
      vertex -5.68656 -13.819 9.36295
      vertex -5.42116 -13.1981 8.86777
    endloop
  endfacet
  facet normal 0.692341 -0.607024 -0.39011
    outer loop
      vertex -5 -12.6109 8.70151
      vertex -5 -13.3694 9.88182
      vertex -5.42116 -13.1981 8.86777
    endloop
  endfacet
  facet normal 0.692341 -0.607024 -0.39011
    outer loop
      vertex -5.61199 -13.1981 8.5291
      vertex -5 -12.6109 8.70151
      vertex -5.42116 -13.1981 8.86777
    endloop
  endfacet
  facet normal 0.692341 -0.72157 -1.53731e-016
    outer loop
      vertex -5 -12.6109 8.70151
      vertex -5.61199 -13.1981 8.5291
      vertex -5.61199 -13.1981 7.4709
    endloop
  endfacet
  facet normal 0.692341 -0.72157 -1.53731e-016
    outer loop
      vertex -5 -12.6109 7.29849
      vertex -5 -12.6109 8.70151
      vertex -5.61199 -13.1981 7.4709
    endloop
  endfacet
  facet normal 0.692341 0.10269 0.714226
    outer loop
      vertex -5.55936 -14.7252 6.08901
      vertex -5.64991 -15.7644 6.32619
      vertex -5 -16.0344 5.73502
    endloop
  endfacet
  facet normal 0.692341 0.10269 0.714226
    outer loop
      vertex -5 -14.6456 5.53534
      vertex -5.55936 -14.7252 6.08901
      vertex -5 -16.0344 5.73502
    endloop
  endfacet
  facet normal 0.692341 0.472528 0.545326
    outer loop
      vertex -5.4073 -16.247 6.43634
      vertex -5.67448 -16.5273 7.01846
      vertex -5 -17.0947 6.6538
    endloop
  endfacet
  facet normal 0.692341 0.472528 0.545326
    outer loop
      vertex -5.64991 -15.7644 6.32619
      vertex -5.4073 -16.247 6.43634
      vertex -5 -16.0344 5.73502
    endloop
  endfacet
  facet normal 0.692341 0.472528 0.545326
    outer loop
      vertex -5 -16.0344 5.73502
      vertex -5.4073 -16.247 6.43634
      vertex -5 -17.0947 6.6538
    endloop
  endfacet
  facet normal 0.692341 0.692341 0.20329
    outer loop
      vertex -5 -17.49 8
      vertex -5 -17.0947 6.6538
      vertex -5.49 -17 8
    endloop
  endfacet
  facet normal 0.692341 0.692341 0.20329
    outer loop
      vertex -5.49 -17 8
      vertex -5 -17.0947 6.6538
      vertex -5.67448 -16.5273 7.01846
    endloop
  endfacet
  facet normal 0.692341 0.692341 -0.20329
    outer loop
      vertex -5 -17.49 8
      vertex -5.49 -17 8
      vertex -5 -17.0947 9.3462
    endloop
  endfacet
  facet normal 0.692341 0.692341 -0.20329
    outer loop
      vertex -5 -17.0947 9.3462
      vertex -5.49 -17 8
      vertex -5.67448 -16.5273 8.98154
    endloop
  endfacet
  facet normal 0.692341 0.472528 -0.545326
    outer loop
      vertex -5 -16.0344 10.265
      vertex -5 -17.0947 9.3462
      vertex -5.67448 -16.5273 8.98154
    endloop
  endfacet
  facet normal 0.692341 0.472528 -0.545326
    outer loop
      vertex -5.64991 -15.7644 9.67381
      vertex -5 -16.0344 10.265
      vertex -5.4073 -16.247 9.56366
    endloop
  endfacet
  facet normal 0.692341 0.472528 -0.545326
    outer loop
      vertex -5.4073 -16.247 9.56366
      vertex -5 -16.0344 10.265
      vertex -5.67448 -16.5273 8.98154
    endloop
  endfacet
  facet normal 0.692341 -0.299751 -0.656363
    outer loop
      vertex -5 -14.6456 10.4647
      vertex -5.55936 -14.7252 9.91099
      vertex -5.44879 -14.555 9.94986
    endloop
  endfacet
  facet normal 0.692341 -0.299751 -0.656363
    outer loop
      vertex -5.68656 -13.819 9.36295
      vertex -5 -14.6456 10.4647
      vertex -5.44879 -14.555 9.94986
    endloop
  endfacet
  facet normal 0.692341 -0.299751 -0.656363
    outer loop
      vertex -5.68656 -13.819 9.36295
      vertex -5 -13.3694 9.88182
      vertex -5 -14.6456 10.4647
    endloop
  endfacet
  facet normal 0.692341 0.10269 -0.714226
    outer loop
      vertex -5.64991 -15.7644 9.67381
      vertex -5.55936 -14.7252 9.91099
      vertex -5 -16.0344 10.265
    endloop
  endfacet
  facet normal 0.692341 0.10269 -0.714226
    outer loop
      vertex -5 -16.0344 10.265
      vertex -5.55936 -14.7252 9.91099
      vertex -5 -14.6456 10.4647
    endloop
  endfacet
  facet normal 0.692341 -0.607024 0.39011
    outer loop
      vertex -5 -13.3694 26.1182
      vertex -5.42116 -13.1981 27.1322
      vertex -5.68656 -13.819 26.6371
    endloop
  endfacet
  facet normal 0.692341 -0.607024 0.39011
    outer loop
      vertex -5 -12.6109 27.2985
      vertex -5.42116 -13.1981 27.1322
      vertex -5 -13.3694 26.1182
    endloop
  endfacet
  facet normal 0.692341 -0.607024 0.39011
    outer loop
      vertex -5.61199 -13.1981 27.4709
      vertex -5.42116 -13.1981 27.1322
      vertex -5 -12.6109 27.2985
    endloop
  endfacet
  facet normal 0.692341 -0.299751 0.656363
    outer loop
      vertex -5.68656 -13.819 26.6371
      vertex -5.44879 -14.555 26.0501
      vertex -5 -14.6456 25.5353
    endloop
  endfacet
  facet normal 0.692341 -0.299751 0.656363
    outer loop
      vertex -5 -14.6456 25.5353
      vertex -5.44879 -14.555 26.0501
      vertex -5.55936 -14.7252 26.089
    endloop
  endfacet
  facet normal 0.692341 -0.299751 0.656363
    outer loop
      vertex -5.68656 -13.819 26.6371
      vertex -5 -14.6456 25.5353
      vertex -5 -13.3694 26.1182
    endloop
  endfacet
  facet normal 0.692341 -0.607024 -0.39011
    outer loop
      vertex -5 -13.3694 29.8818
      vertex -5.68656 -13.819 29.3629
      vertex -5.42116 -13.1981 28.8678
    endloop
  endfacet
  facet normal 0.692341 -0.607024 -0.39011
    outer loop
      vertex -5 -12.6109 28.7015
      vertex -5 -13.3694 29.8818
      vertex -5.42116 -13.1981 28.8678
    endloop
  endfacet
  facet normal 0.692341 -0.607024 -0.39011
    outer loop
      vertex -5.61199 -13.1981 28.5291
      vertex -5 -12.6109 28.7015
      vertex -5.42116 -13.1981 28.8678
    endloop
  endfacet
  facet normal 0.692341 -0.72157 -1.53731e-016
    outer loop
      vertex -5 -12.6109 28.7015
      vertex -5.61199 -13.1981 28.5291
      vertex -5.61199 -13.1981 27.4709
    endloop
  endfacet
  facet normal 0.692341 -0.72157 -1.53731e-016
    outer loop
      vertex -5 -12.6109 27.2985
      vertex -5 -12.6109 28.7015
      vertex -5.61199 -13.1981 27.4709
    endloop
  endfacet
  facet normal 0.692341 0.10269 0.714226
    outer loop
      vertex -5.55936 -14.7252 26.089
      vertex -5.64991 -15.7644 26.3262
      vertex -5 -16.0344 25.735
    endloop
  endfacet
  facet normal 0.692341 0.10269 0.714226
    outer loop
      vertex -5 -14.6456 25.5353
      vertex -5.55936 -14.7252 26.089
      vertex -5 -16.0344 25.735
    endloop
  endfacet
  facet normal 0.692341 0.472528 0.545326
    outer loop
      vertex -5.4073 -16.247 26.4363
      vertex -5.67448 -16.5273 27.0185
      vertex -5 -17.0947 26.6538
    endloop
  endfacet
  facet normal 0.692341 0.472528 0.545326
    outer loop
      vertex -5.64991 -15.7644 26.3262
      vertex -5.4073 -16.247 26.4363
      vertex -5 -16.0344 25.735
    endloop
  endfacet
  facet normal 0.692341 0.472528 0.545326
    outer loop
      vertex -5 -16.0344 25.735
      vertex -5.4073 -16.247 26.4363
      vertex -5 -17.0947 26.6538
    endloop
  endfacet
  facet normal 0.692341 0.692341 0.20329
    outer loop
      vertex -5 -17.49 28
      vertex -5 -17.0947 26.6538
      vertex -5.49 -17 28
    endloop
  endfacet
  facet normal 0.692341 0.692341 0.20329
    outer loop
      vertex -5.49 -17 28
      vertex -5 -17.0947 26.6538
      vertex -5.67448 -16.5273 27.0185
    endloop
  endfacet
  facet normal 0.692341 0.692341 -0.20329
    outer loop
      vertex -5 -17.49 28
      vertex -5.49 -17 28
      vertex -5 -17.0947 29.3462
    endloop
  endfacet
  facet normal 0.692341 0.692341 -0.20329
    outer loop
      vertex -5 -17.0947 29.3462
      vertex -5.49 -17 28
      vertex -5.67448 -16.5273 28.9815
    endloop
  endfacet
  facet normal 0.692341 0.472528 -0.545326
    outer loop
      vertex -5 -16.0344 30.265
      vertex -5 -17.0947 29.3462
      vertex -5.67448 -16.5273 28.9815
    endloop
  endfacet
  facet normal 0.692341 0.472528 -0.545326
    outer loop
      vertex -5.64991 -15.7644 29.6738
      vertex -5 -16.0344 30.265
      vertex -5.4073 -16.247 29.5637
    endloop
  endfacet
  facet normal 0.692341 0.472528 -0.545326
    outer loop
      vertex -5.4073 -16.247 29.5637
      vertex -5 -16.0344 30.265
      vertex -5.67448 -16.5273 28.9815
    endloop
  endfacet
  facet normal 0.692341 -0.299751 -0.656363
    outer loop
      vertex -5 -14.6456 30.4647
      vertex -5.55936 -14.7252 29.911
      vertex -5.44879 -14.555 29.9499
    endloop
  endfacet
  facet normal 0.692341 -0.299751 -0.656363
    outer loop
      vertex -5.68656 -13.819 29.3629
      vertex -5 -14.6456 30.4647
      vertex -5.44879 -14.555 29.9499
    endloop
  endfacet
  facet normal 0.692341 -0.299751 -0.656363
    outer loop
      vertex -5.68656 -13.819 29.3629
      vertex -5 -13.3694 29.8818
      vertex -5 -14.6456 30.4647
    endloop
  endfacet
  facet normal 0.692341 0.10269 -0.714226
    outer loop
      vertex -5.64991 -15.7644 29.6738
      vertex -5.55936 -14.7252 29.911
      vertex -5 -16.0344 30.265
    endloop
  endfacet
  facet normal 0.692341 0.10269 -0.714226
    outer loop
      vertex -5 -16.0344 30.265
      vertex -5.55936 -14.7252 29.911
      vertex -5 -14.6456 30.4647
    endloop
  endfacet
  facet normal 0 0 -1
    outer loop
      vertex 5 -2.5 2.875
      vertex -5 -2.5 2.875
      vertex 5 -1.75 2.875
    endloop
  endfacet
  facet normal 0 0 -1
    outer loop
      vertex 5 -1.75 2.875
      vertex -5 -2.5 2.875
      vertex -5 -1.75 2.875
    endloop
  endfacet
  facet normal 0 0 1
    outer loop
      vertex -5 -2.5 4.125
      vertex 5 -2.5 4.125
      vertex 5 -1.75 4.125
    endloop
  endfacet
  facet normal 0 0 1
    outer loop
      vertex -5 -1.75 4.125
      vertex -5 -2.5 4.125
      vertex 5 -1.75 4.125
    endloop
  endfacet
  facet normal -1.77321e-016 1 0
    outer loop
      vertex 5 -2.5 7.875
      vertex 5 -2.5 4.125
      vertex -5 -2.5 7.875
    endloop
  endfacet
  facet normal -1.77321e-016 1 0
    outer loop
      vertex -5 -2.5 7.875
      vertex 5 -2.5 4.125
      vertex -5 -2.5 4.125
    endloop
  endfacet
  facet normal 0 0 -1
    outer loop
      vertex 5 -2.5 7.875
      vertex -5 -2.5 7.875
      vertex 5 -1.75 7.875
    endloop
  endfacet
  facet normal 0 0 -1
    outer loop
      vertex 5 -1.75 7.875
      vertex -5 -2.5 7.875
      vertex -5 -1.75 7.875
    endloop
  endfacet
  facet normal 0 0 1
    outer loop
      vertex -5 -2.5 9.125
      vertex 5 -2.5 9.125
      vertex 5 -1.75 9.125
    endloop
  endfacet
  facet normal 0 0 1
    outer loop
      vertex -5 -1.75 9.125
      vertex -5 -2.5 9.125
      vertex 5 -1.75 9.125
    endloop
  endfacet
  facet normal -1.77321e-016 1 0
    outer loop
      vertex 5 -2.5 12.5
      vertex 5 -2.5 9.125
      vertex -5 -2.5 12.5
    endloop
  endfacet
  facet normal -1.77321e-016 1 0
    outer loop
      vertex -5 -2.5 12.5
      vertex 5 -2.5 9.125
      vertex -5 -2.5 9.125
    endloop
  endfacet
  facet normal 0 0 1
    outer loop
      vertex -5 -10.25 12.5
      vertex 5 -10.25 12.5
      vertex 5 -2.5 12.5
    endloop
  endfacet
  facet normal 0 0 1
    outer loop
      vertex -5 -2.5 12.5
      vertex -5 -10.25 12.5
      vertex 5 -2.5 12.5
    endloop
  endfacet
  facet normal 0 0 -1
    outer loop
      vertex 5 -10.25 22.5
      vertex -5 -10.25 22.5
      vertex 5 -2.5 22.5
    endloop
  endfacet
  facet normal 0 0 -1
    outer loop
      vertex 5 -2.5 22.5
      vertex -5 -10.25 22.5
      vertex -5 -2.5 22.5
    endloop
  endfacet
  facet normal -1.77321e-016 1 0
    outer loop
      vertex 5 -2.5 22.875
      vertex 5 -2.5 22.5
      vertex -5 -2.5 22.875
    endloop
  endfacet
  facet normal -1.77321e-016 1 0
    outer loop
      vertex -5 -2.5 22.875
      vertex 5 -2.5 22.5
      vertex -5 -2.5 22.5
    endloop
  endfacet
  facet normal 0 0 -1
    outer loop
      vertex 5 -2.5 22.875
      vertex -5 -2.5 22.875
      vertex 5 -1.75 22.875
    endloop
  endfacet
  facet normal 0 0 -1
    outer loop
      vertex 5 -1.75 22.875
      vertex -5 -2.5 22.875
      vertex -5 -1.75 22.875
    endloop
  endfacet
  facet normal 0 0 1
    outer loop
      vertex -5 -2.5 24.125
      vertex 5 -2.5 24.125
      vertex 5 -1.75 24.125
    endloop
  endfacet
  facet normal 0 0 1
    outer loop
      vertex -5 -1.75 24.125
      vertex -5 -2.5 24.125
      vertex 5 -1.75 24.125
    endloop
  endfacet
  facet normal -1.77321e-016 1 0
    outer loop
      vertex 5 -2.5 27.875
      vertex 5 -2.5 24.125
      vertex -5 -2.5 27.875
    endloop
  endfacet
  facet normal -1.77321e-016 1 0
    outer loop
      vertex -5 -2.5 27.875
      vertex 5 -2.5 24.125
      vertex -5 -2.5 24.125
    endloop
  endfacet
  facet normal 0 0 -1
    outer loop
      vertex 5 -2.5 27.875
      vertex -5 -2.5 27.875
      vertex 5 -1.75 27.875
    endloop
  endfacet
  facet normal 0 0 -1
    outer loop
      vertex 5 -1.75 27.875
      vertex -5 -2.5 27.875
      vertex -5 -1.75 27.875
    endloop
  endfacet
  facet normal 0 0 1
    outer loop
      vertex -5 -2.5 29.125
      vertex 5 -2.5 29.125
      vertex 5 -1.75 29.125
    endloop
  endfacet
  facet normal 0 0 1
    outer loop
      vertex -5 -1.75 29.125
      vertex -5 -2.5 29.125
      vertex 5 -1.75 29.125
    endloop
  endfacet
  facet normal -1.77321e-016 1 0
    outer loop
      vertex 5 -2.5 32.875
      vertex 5 -2.5 29.125
      vertex -5 -2.5 32.875
    endloop
  endfacet
  facet normal -1.77321e-016 1 0
    outer loop
      vertex -5 -2.5 32.875
      vertex 5 -2.5 29.125
      vertex -5 -2.5 29.125
    endloop
  endfacet
  facet normal 0 0 -1
    outer loop
      vertex 5 -2.5 32.875
      vertex -5 -2.5 32.875
      vertex 5 -1.75 32.875
    endloop
  endfacet
  facet normal 0 0 -1
    outer loop
      vertex 5 -1.75 32.875
      vertex -5 -2.5 32.875
      vertex -5 -1.75 32.875
    endloop
  endfacet
  facet normal 0 0 1
    outer loop
      vertex -5 -2.5 34.125
      vertex 5 -2.5 34.125
      vertex 5 -1.75 34.125
    endloop
  endfacet
  facet normal 0 0 1
    outer loop
      vertex -5 -1.75 34.125
      vertex -5 -2.5 34.125
      vertex 5 -1.75 34.125
    endloop
  endfacet
  facet normal -1 -1.77321e-016 0
    outer loop
      vertex 5 -2.5 12.5
      vertex 5 -10.25 12.5
      vertex 5 -10.25 22.5
    endloop
  endfacet
  facet normal -1 -1.77321e-016 0
    outer loop
      vertex 5 -2.5 12.5
      vertex 5 -10.25 22.5
      vertex 5 -2.5 22.5
    endloop
  endfacet
  facet normal -1 -1.77321e-016 0
    outer loop
      vertex 5 -2.5 12.5
      vertex 5 -1.75 22.875
      vertex 5 -2.5 9.125
    endloop
  endfacet
  facet normal -1 -1.77321e-016 0
    outer loop
      vertex 5 -2.5 22.5
      vertex 5 -2.5 22.875
      vertex 5 -1.75 22.875
    endloop
  endfacet
  facet normal -1 -1.77321e-016 0
    outer loop
      vertex 5 -2.5 22.5
      vertex 5 -1.75 22.875
      vertex 5 -2.5 12.5
    endloop
  endfacet
  facet normal -1 -1.77321e-016 0
    outer loop
      vertex 5 -1.75 22.875
      vertex 5 -1.75 9.125
      vertex 5 -2.5 9.125
    endloop
  endfacet
  facet normal -1 -1.77321e-016 0
    outer loop
      vertex 5 -2.5 32.875
      vertex 5 -1.75 32.875
      vertex 5 -2.5 29.125
    endloop
  endfacet
  facet normal -1 -1.77321e-016 0
    outer loop
      vertex 5 -2.5 29.125
      vertex 5 -1.75 32.875
      vertex 5 -1.75 29.125
    endloop
  endfacet
  facet normal -1 -1.77321e-016 0
    outer loop
      vertex 5 -2.5 27.875
      vertex 5 -1.75 27.875
      vertex 5 -2.5 24.125
    endloop
  endfacet
  facet normal -1 -1.77321e-016 0
    outer loop
      vertex 5 -2.5 24.125
      vertex 5 -1.75 27.875
      vertex 5 -1.75 24.125
    endloop
  endfacet
  facet normal -1 -1.77321e-016 0
    outer loop
      vertex 5 -2.5 7.875
      vertex 5 -1.75 7.875
      vertex 5 -2.5 4.125
    endloop
  endfacet
  facet normal -1 -1.77321e-016 0
    outer loop
      vertex 5 -2.5 4.125
      vertex 5 -1.75 7.875
      vertex 5 -1.75 4.125
    endloop
  endfacet
endsolid OpenSCAD_Model
