solid OpenSCAD_Model
  facet normal -2.22045e-016 0 -1
    outer loop
      vertex -22.8992 -16.9656 10.5
      vertex -24.049 -14.9741 10.5
      vertex -21.5176 -18.5 10.5
    endloop
  endfacet
  facet normal -2.22045e-016 0 -1
    outer loop
      vertex -21.5176 -18.5 10.5
      vertex -24.049 -14.9741 10.5
      vertex -24.7596 -12.787 10.5
    endloop
  endfacet
  facet normal -2.22045e-016 0 -1
    outer loop
      vertex -21.5176 -18.5 10.5
      vertex -24.7596 -12.787 10.5
      vertex -25 -10.5 10.5
    endloop
  endfacet
  facet normal -2.22045e-016 0 -1
    outer loop
      vertex -17.5365 -12.5734 10.5
      vertex -25 -10.5 10.5
      vertex -11 -10.5 10.5
    endloop
  endfacet
  facet normal -2.22045e-016 0 -1
    outer loop
      vertex -21.5176 -18.5 10.5
      vertex -11 -10.5 10.5
      vertex -11 -18.5 10.5
    endloop
  endfacet
  facet normal -2.22045e-016 0 -1
    outer loop
      vertex -21.5176 -18.5 10.5
      vertex -17.5365 -15.4266 10.5
      vertex -16.7865 -14.8817 10.5
    endloop
  endfacet
  facet normal -2.22045e-016 0 -1
    outer loop
      vertex -21.5176 -18.5 10.5
      vertex -16.7865 -14.8817 10.5
      vertex -11 -10.5 10.5
    endloop
  endfacet
  facet normal -2.22045e-016 0 -1
    outer loop
      vertex -19.2135 -14.8817 10.5
      vertex -25 -10.5 10.5
      vertex -19.5 -14 10.5
    endloop
  endfacet
  facet normal -2.22045e-016 0 -1
    outer loop
      vertex -19.2135 -13.1183 10.5
      vertex -25 -10.5 10.5
      vertex -18.4635 -12.5734 10.5
    endloop
  endfacet
  facet normal -2.22045e-016 0 -1
    outer loop
      vertex -16.5 -14 10.5
      vertex -16.7865 -13.1183 10.5
      vertex -11 -10.5 10.5
    endloop
  endfacet
  facet normal -2.22045e-016 0 -1
    outer loop
      vertex -18.4635 -12.5734 10.5
      vertex -25 -10.5 10.5
      vertex -17.5365 -12.5734 10.5
    endloop
  endfacet
  facet normal -2.22045e-016 0 -1
    outer loop
      vertex -16.7865 -13.1183 10.5
      vertex -17.5365 -12.5734 10.5
      vertex -11 -10.5 10.5
    endloop
  endfacet
  facet normal -2.22045e-016 0 -1
    outer loop
      vertex -19.5 -14 10.5
      vertex -25 -10.5 10.5
      vertex -19.2135 -13.1183 10.5
    endloop
  endfacet
  facet normal -2.22045e-016 0 -1
    outer loop
      vertex -21.5176 -18.5 10.5
      vertex -25 -10.5 10.5
      vertex -19.2135 -14.8817 10.5
    endloop
  endfacet
  facet normal -2.22045e-016 0 -1
    outer loop
      vertex -21.5176 -18.5 10.5
      vertex -19.2135 -14.8817 10.5
      vertex -18.4635 -15.4266 10.5
    endloop
  endfacet
  facet normal -2.22045e-016 0 -1
    outer loop
      vertex -21.5176 -18.5 10.5
      vertex -18.4635 -15.4266 10.5
      vertex -17.5365 -15.4266 10.5
    endloop
  endfacet
  facet normal -2.22045e-016 0 -1
    outer loop
      vertex -16.5 -14 10.5
      vertex -11 -10.5 10.5
      vertex -16.7865 -14.8817 10.5
    endloop
  endfacet
  facet normal 3.93732e-032 -1 1.77321e-016
    outer loop
      vertex -21.5176 -18.5 10.5
      vertex -11 -18.5 10.5
      vertex -11 -18.5 10.6468
    endloop
  endfacet
  facet normal 3.93732e-032 -1 1.77321e-016
    outer loop
      vertex -21.5176 -18.5 10.6468
      vertex -21.5176 -18.5 10.5
      vertex -11 -18.5 10.6468
    endloop
  endfacet
  facet normal 1 0 -1.77321e-016
    outer loop
      vertex -11 -18.5 10.6468
      vertex -11 -18.5 10.5
      vertex -11 -10.5 10.5
    endloop
  endfacet
  facet normal 1 0 -1.77321e-016
    outer loop
      vertex -11 10 10.7437
      vertex -11 -18.5 10.6468
      vertex -11 -10 10.6625
    endloop
  endfacet
  facet normal 1 0 -1.77321e-016
    outer loop
      vertex -11 -10 10.6625
      vertex -11 -18.5 10.6468
      vertex -11 -10.5 10.5
    endloop
  endfacet
  facet normal 1 0 -1.77321e-016
    outer loop
      vertex -11 10 10.5
      vertex -11 -10 10.6625
      vertex -11 -10 10.5
    endloop
  endfacet
  facet normal 1 0 -1.77321e-016
    outer loop
      vertex -11 10 10.7437
      vertex -11 -10 10.6625
      vertex -11 10 10.5
    endloop
  endfacet
  facet normal 1 0 -1.77321e-016
    outer loop
      vertex -11 21.6771 11.7366
      vertex -11 -18.5 10.6468
      vertex -11 10 10.7437
    endloop
  endfacet
  facet normal 1 0 -1.77321e-016
    outer loop
      vertex -11 19.25 10.5
      vertex -11 10 10.7437
      vertex -11 10.75 10.5
    endloop
  endfacet
  facet normal 1 0 -1.77321e-016
    outer loop
      vertex -11 19.25 10.6468
      vertex -11 10 10.7437
      vertex -11 19.25 10.5
    endloop
  endfacet
  facet normal 1 0 -1.77321e-016
    outer loop
      vertex -11 20.1771 10.6468
      vertex -11 10 10.7437
      vertex -11 19.25 10.6468
    endloop
  endfacet
  facet normal 1 0 -1.77321e-016
    outer loop
      vertex -11 21.6771 11.7366
      vertex -11 10 10.7437
      vertex -11 20.1771 10.6468
    endloop
  endfacet
  facet normal 1 0 -1.77321e-016
    outer loop
      vertex -11 22.076 12.9645
      vertex -11 -18.5 10.6468
      vertex -11 21.6771 11.7366
    endloop
  endfacet
  facet normal 1 0 -1.77321e-016
    outer loop
      vertex -11 7.94983 12.5
      vertex -11 -18.5 10.6468
      vertex -11 22.076 12.9645
    endloop
  endfacet
  facet normal 1 0 -1.77321e-016
    outer loop
      vertex -11 10.75 15
      vertex -11 10.75 14.8532
      vertex -11 19.25 15
    endloop
  endfacet
  facet normal 1 0 -1.77321e-016
    outer loop
      vertex -11 8.32295 13.7634
      vertex -11 21.0134 14.4271
      vertex -11 19.25 15
    endloop
  endfacet
  facet normal 1 0 -1.77321e-016
    outer loop
      vertex -11 10.75 14.8532
      vertex -11 8.32295 13.7634
      vertex -11 19.25 15
    endloop
  endfacet
  facet normal 1 0 -1.77321e-016
    outer loop
      vertex -11 21.0134 14.4271
      vertex -11 7.92401 12.5355
      vertex -11 22.076 12.9645
    endloop
  endfacet
  facet normal 1 0 -1.77321e-016
    outer loop
      vertex -11 7.92401 12.5355
      vertex -11 7.94983 12.5
      vertex -11 22.076 12.9645
    endloop
  endfacet
  facet normal 1 0 -1.77321e-016
    outer loop
      vertex -11 -7.67401 12.5355
      vertex -11 -18.5 10.6468
      vertex -11 -7.69983 12.5
    endloop
  endfacet
  facet normal 1 0 -1.77321e-016
    outer loop
      vertex -11 -8.07295 13.7634
      vertex -11 -18.5 10.6468
      vertex -11 -7.67401 12.5355
    endloop
  endfacet
  facet normal 1 0 -1.77321e-016
    outer loop
      vertex -11 -9.57295 14.8532
      vertex -11 -18.5 10.6468
      vertex -11 -8.07295 13.7634
    endloop
  endfacet
  facet normal 1 0 -1.77321e-016
    outer loop
      vertex -11 -10.5 14.8532
      vertex -11 -18.5 10.6468
      vertex -11 -9.57295 14.8532
    endloop
  endfacet
  facet normal 1 0 -1.77321e-016
    outer loop
      vertex -11 -10.5 15
      vertex -11 -18.5 10.6468
      vertex -11 -10.5 14.8532
    endloop
  endfacet
  facet normal 1 0 -1.77321e-016
    outer loop
      vertex -11 -18.5 15
      vertex -11 -18.5 10.6468
      vertex -11 -10.5 15
    endloop
  endfacet
  facet normal 1 0 -1.77321e-016
    outer loop
      vertex -11 9.82295 14.8532
      vertex -11 8.32295 13.7634
      vertex -11 10.75 14.8532
    endloop
  endfacet
  facet normal 1 0 -1.77321e-016
    outer loop
      vertex -11 8.32295 13.7634
      vertex -11 7.92401 12.5355
      vertex -11 21.0134 14.4271
    endloop
  endfacet
  facet normal 1 0 -1.77321e-016
    outer loop
      vertex -11 7.94983 12.5
      vertex -11 -7.69983 12.5
      vertex -11 -18.5 10.6468
    endloop
  endfacet
  facet normal 1 0 -1.77321e-016
    outer loop
      vertex -11 -19.4271 10.6468
      vertex -11 -21.326 12.9645
      vertex -11 -20.9271 11.7366
    endloop
  endfacet
  facet normal 1 0 -1.77321e-016
    outer loop
      vertex -11 -19.4271 10.6468
      vertex -11 -20.2634 14.4271
      vertex -11 -21.326 12.9645
    endloop
  endfacet
  facet normal 1 0 -1.77321e-016
    outer loop
      vertex -11 -19.4271 10.6468
      vertex -11 -18.5 15
      vertex -11 -20.2634 14.4271
    endloop
  endfacet
  facet normal 1 0 -1.77321e-016
    outer loop
      vertex -11 -19.4271 10.6468
      vertex -11 -18.5 10.6468
      vertex -11 -18.5 15
    endloop
  endfacet
  facet normal -0.743145 -0.669131 2.96787e-016
    outer loop
      vertex -21.3604 -18.6746 10.6468
      vertex -21.3604 -18.6746 14.9433
      vertex -21.5176 -18.5 10.6468
    endloop
  endfacet
  facet normal -0.743145 -0.669131 2.96787e-016
    outer loop
      vertex -21.5176 -18.5 10.6468
      vertex -21.3604 -18.6746 14.9433
      vertex -21.5176 -18.5 15
    endloop
  endfacet
  facet normal -0.743145 -0.669131 2.96787e-016
    outer loop
      vertex -21.5176 -18.5 10.6468
      vertex -21.5176 -18.5 15
      vertex -22.8992 -16.9656 15
    endloop
  endfacet
  facet normal -0.743145 -0.669131 2.96787e-016
    outer loop
      vertex -21.5176 -18.5 10.6468
      vertex -22.8992 -16.9656 15
      vertex -22.8992 -16.9656 10.5
    endloop
  endfacet
  facet normal -0.743145 -0.669131 2.96787e-016
    outer loop
      vertex -21.5176 -18.5 10.6468
      vertex -22.8992 -16.9656 10.5
      vertex -21.5176 -18.5 10.5
    endloop
  endfacet
  facet normal -2.11177e-016 0.309017 -0.951057
    outer loop
      vertex -25 -10 10.6625
      vertex -11 -10 10.6625
      vertex -25 -10.5 10.5
    endloop
  endfacet
  facet normal -2.11177e-016 0.309017 -0.951057
    outer loop
      vertex -25 -10.5 10.5
      vertex -11 -10 10.6625
      vertex -11 -10.5 10.5
    endloop
  endfacet
  facet normal -1 0 1.77321e-016
    outer loop
      vertex -25 -10.5 10.5
      vertex -25 -10.5 12.75
      vertex -25 -10.5 15
    endloop
  endfacet
  facet normal -1 0 1.77321e-016
    outer loop
      vertex -25 -10.5 10.5
      vertex -25 -10.5 15
      vertex -25 -10.5 14.8532
    endloop
  endfacet
  facet normal -1 0 1.77321e-016
    outer loop
      vertex -25 -10 10.6625
      vertex -25 11.25 12.75
      vertex -25 10 10.7437
    endloop
  endfacet
  facet normal -1 0 1.77321e-016
    outer loop
      vertex -25 -10 10.6625
      vertex -25 7.94983 12.5
      vertex -25 11.25 12.75
    endloop
  endfacet
  facet normal -1 0 1.77321e-016
    outer loop
      vertex -25 -10.5 10.5
      vertex -25 -9.57295 14.8532
      vertex -25 -8.07295 13.7634
    endloop
  endfacet
  facet normal -1 0 1.77321e-016
    outer loop
      vertex -25 -10.5 10.5
      vertex -25 -8.07295 13.7634
      vertex -25 -7.67401 12.5355
    endloop
  endfacet
  facet normal -1 0 1.77321e-016
    outer loop
      vertex -25 -10.5 10.5
      vertex -25 -7.67401 12.5355
      vertex -25 -7.69983 12.5
    endloop
  endfacet
  facet normal -1 0 1.77321e-016
    outer loop
      vertex -25 -10 10.6625
      vertex -25 -7.69983 12.5
      vertex -25 7.94983 12.5
    endloop
  endfacet
  facet normal -1 0 1.77321e-016
    outer loop
      vertex -25 7.94983 12.5
      vertex -25 7.92401 12.5355
      vertex -25 8.32295 13.7634
    endloop
  endfacet
  facet normal -1 0 1.77321e-016
    outer loop
      vertex -25 7.94983 12.5
      vertex -25 8.32295 13.7634
      vertex -25 9.82295 14.8532
    endloop
  endfacet
  facet normal -1 0 1.77321e-016
    outer loop
      vertex -25 7.94983 12.5
      vertex -25 9.82295 14.8532
      vertex -25 10.75 14.8532
    endloop
  endfacet
  facet normal -1 0 1.77321e-016
    outer loop
      vertex -25 10.75 14.8532
      vertex -25 10.75 15
      vertex -25 11.25 15
    endloop
  endfacet
  facet normal -1 0 1.77321e-016
    outer loop
      vertex -25 10.75 14.8532
      vertex -25 11.25 15
      vertex -25 7.94983 12.5
    endloop
  endfacet
  facet normal -1 0 1.77321e-016
    outer loop
      vertex -25 7.94983 12.5
      vertex -25 11.25 15
      vertex -25 11.25 12.75
    endloop
  endfacet
  facet normal -1 0 1.77321e-016
    outer loop
      vertex -25 10.75 10.5
      vertex -25 11.25 12.75
      vertex -25 11.25 10.5
    endloop
  endfacet
  facet normal -1 0 1.77321e-016
    outer loop
      vertex -25 10 10.7437
      vertex -25 11.25 12.75
      vertex -25 10.75 10.5
    endloop
  endfacet
  facet normal -1 0 1.77321e-016
    outer loop
      vertex -25 -10 10.5
      vertex -25 10 10.7437
      vertex -25 10 10.5
    endloop
  endfacet
  facet normal -1 0 1.77321e-016
    outer loop
      vertex -25 -10.5 10.5
      vertex -25 -7.69983 12.5
      vertex -25 -10 10.6625
    endloop
  endfacet
  facet normal -1 0 1.77321e-016
    outer loop
      vertex -25 -9.57295 14.8532
      vertex -25 -10.5 10.5
      vertex -25 -10.5 14.8532
    endloop
  endfacet
  facet normal -1 0 1.77321e-016
    outer loop
      vertex -25 -10 10.6625
      vertex -25 10 10.7437
      vertex -25 -10 10.5
    endloop
  endfacet
  facet normal -0.994522 -0.104528 3.97178e-016
    outer loop
      vertex -25 -10.5 15
      vertex -25 -10.5 12.75
      vertex -24.7596 -12.787 15
    endloop
  endfacet
  facet normal -0.994522 -0.104528 3.97178e-016
    outer loop
      vertex -24.7596 -12.787 15
      vertex -25 -10.5 12.75
      vertex -25 -10.5 10.5
    endloop
  endfacet
  facet normal -0.994522 -0.104528 3.97178e-016
    outer loop
      vertex -24.7596 -12.787 15
      vertex -25 -10.5 10.5
      vertex -24.7596 -12.787 10.5
    endloop
  endfacet
  facet normal -0.951056 -0.309017 3.79819e-016
    outer loop
      vertex -24.7596 -12.787 15
      vertex -24.7596 -12.787 10.5
      vertex -24.049 -14.9741 15
    endloop
  endfacet
  facet normal -0.951056 -0.309017 3.79819e-016
    outer loop
      vertex -24.049 -14.9741 15
      vertex -24.7596 -12.787 10.5
      vertex -24.049 -14.9741 10.5
    endloop
  endfacet
  facet normal -0.866025 -0.5 3.45861e-016
    outer loop
      vertex -24.049 -14.9741 15
      vertex -24.049 -14.9741 10.5
      vertex -22.8992 -16.9656 15
    endloop
  endfacet
  facet normal -0.866025 -0.5 3.45861e-016
    outer loop
      vertex -22.8992 -16.9656 15
      vertex -24.049 -14.9741 10.5
      vertex -22.8992 -16.9656 10.5
    endloop
  endfacet
  facet normal 0 1 0
    outer loop
      vertex -17.5365 -15.4266 10.5
      vertex -18.4635 -15.4266 10.5
      vertex -17.5365 -15.4266 12.51
    endloop
  endfacet
  facet normal 0 1 0
    outer loop
      vertex -17.5365 -15.4266 12.51
      vertex -18.4635 -15.4266 10.5
      vertex -18.4635 -15.4266 12.51
    endloop
  endfacet
  facet normal -0.587785 0.809017 2.34741e-016
    outer loop
      vertex -17.5365 -15.4266 10.5
      vertex -17.5365 -15.4266 12.51
      vertex -16.7865 -14.8817 10.5
    endloop
  endfacet
  facet normal -0.587785 0.809017 2.34741e-016
    outer loop
      vertex -16.7865 -14.8817 10.5
      vertex -17.5365 -15.4266 12.51
      vertex -16.7865 -14.8817 12.51
    endloop
  endfacet
  facet normal 0.587785 0.809017 -2.34741e-016
    outer loop
      vertex -18.4635 -15.4266 10.5
      vertex -19.2135 -14.8817 10.5
      vertex -18.4635 -15.4266 12.51
    endloop
  endfacet
  facet normal 0.587785 0.809017 -2.34741e-016
    outer loop
      vertex -18.4635 -15.4266 12.51
      vertex -19.2135 -14.8817 10.5
      vertex -19.2135 -14.8817 12.51
    endloop
  endfacet
  facet normal 0.951056 0.309017 -3.79819e-016
    outer loop
      vertex -19.2135 -14.8817 12.51
      vertex -19.2135 -14.8817 10.5
      vertex -19.5 -14 10.5
    endloop
  endfacet
  facet normal 0.951056 0.309017 -3.79819e-016
    outer loop
      vertex -19.5 -14 12.51
      vertex -19.2135 -14.8817 12.51
      vertex -19.5 -14 10.5
    endloop
  endfacet
  facet normal 0.951056 -0.309017 -3.79819e-016
    outer loop
      vertex -19.5 -14 12.51
      vertex -19.5 -14 10.5
      vertex -19.2135 -13.1183 10.5
    endloop
  endfacet
  facet normal 0.951056 -0.309017 -3.79819e-016
    outer loop
      vertex -19.2135 -13.1183 12.51
      vertex -19.5 -14 12.51
      vertex -19.2135 -13.1183 10.5
    endloop
  endfacet
  facet normal 0.587785 -0.809017 -2.34741e-016
    outer loop
      vertex -19.2135 -13.1183 12.51
      vertex -19.2135 -13.1183 10.5
      vertex -18.4635 -12.5734 10.5
    endloop
  endfacet
  facet normal 0.587785 -0.809017 -2.34741e-016
    outer loop
      vertex -18.4635 -12.5734 12.51
      vertex -19.2135 -13.1183 12.51
      vertex -18.4635 -12.5734 10.5
    endloop
  endfacet
  facet normal 0 -1 0
    outer loop
      vertex -18.4635 -12.5734 10.5
      vertex -17.5365 -12.5734 10.5
      vertex -17.5365 -12.5734 12.51
    endloop
  endfacet
  facet normal 0 -1 0
    outer loop
      vertex -18.4635 -12.5734 12.51
      vertex -18.4635 -12.5734 10.5
      vertex -17.5365 -12.5734 12.51
    endloop
  endfacet
  facet normal -0.587785 -0.809017 2.34741e-016
    outer loop
      vertex -17.5365 -12.5734 10.5
      vertex -16.7865 -13.1183 10.5
      vertex -16.7865 -13.1183 12.51
    endloop
  endfacet
  facet normal -0.587785 -0.809017 2.34741e-016
    outer loop
      vertex -17.5365 -12.5734 12.51
      vertex -17.5365 -12.5734 10.5
      vertex -16.7865 -13.1183 12.51
    endloop
  endfacet
  facet normal -0.951056 -0.309017 3.79819e-016
    outer loop
      vertex -16.5 -14 10.5
      vertex -16.5 -14 12.51
      vertex -16.7865 -13.1183 10.5
    endloop
  endfacet
  facet normal -0.951056 -0.309017 3.79819e-016
    outer loop
      vertex -16.7865 -13.1183 10.5
      vertex -16.5 -14 12.51
      vertex -16.7865 -13.1183 12.51
    endloop
  endfacet
  facet normal -0.951056 0.309017 3.79819e-016
    outer loop
      vertex -16.7865 -14.8817 10.5
      vertex -16.7865 -14.8817 12.51
      vertex -16.5 -14 10.5
    endloop
  endfacet
  facet normal -0.951056 0.309017 3.79819e-016
    outer loop
      vertex -16.5 -14 10.5
      vertex -16.7865 -14.8817 12.51
      vertex -16.5 -14 12.51
    endloop
  endfacet
  facet normal -2.22045e-016 -1.77321e-016 -1
    outer loop
      vertex -20.3248 -19.4271 10.6468
      vertex -21.3604 -18.6746 10.6468
      vertex -11 -19.4271 10.6468
    endloop
  endfacet
  facet normal -2.22045e-016 -1.77321e-016 -1
    outer loop
      vertex -11 -19.4271 10.6468
      vertex -21.3604 -18.6746 10.6468
      vertex -21.5176 -18.5 10.6468
    endloop
  endfacet
  facet normal -2.22045e-016 -1.77321e-016 -1
    outer loop
      vertex -11 -19.4271 10.6468
      vertex -21.5176 -18.5 10.6468
      vertex -11 -18.5 10.6468
    endloop
  endfacet
  facet normal -1.79638e-016 -0.587785 -0.809017
    outer loop
      vertex -17.4768 -20.9271 11.7366
      vertex -19.5 -20.0263 11.0822
      vertex -11 -20.9271 11.7366
    endloop
  endfacet
  facet normal -1.79638e-016 -0.587785 -0.809017
    outer loop
      vertex -11 -20.9271 11.7366
      vertex -19.5 -20.0263 11.0822
      vertex -20.3248 -19.4271 10.6468
    endloop
  endfacet
  facet normal -1.79638e-016 -0.587785 -0.809017
    outer loop
      vertex -11 -20.9271 11.7366
      vertex -20.3248 -19.4271 10.6468
      vertex -11 -19.4271 10.6468
    endloop
  endfacet
  facet normal -6.86155e-017 -0.951057 -0.309017
    outer loop
      vertex -11 -21.326 12.9645
      vertex -15.685 -21.326 12.9645
      vertex -17.3992 -20.9616 11.843
    endloop
  endfacet
  facet normal -6.86155e-017 -0.951057 -0.309017
    outer loop
      vertex -11 -20.9271 11.7366
      vertex -11 -21.326 12.9645
      vertex -17.4768 -20.9271 11.7366
    endloop
  endfacet
  facet normal -6.86155e-017 -0.951057 -0.309017
    outer loop
      vertex -17.4768 -20.9271 11.7366
      vertex -11 -21.326 12.9645
      vertex -17.3992 -20.9616 11.843
    endloop
  endfacet
  facet normal 1.30515e-016 -0.809017 0.587785
    outer loop
      vertex -11 -20.2634 14.4271
      vertex -18.9675 -20.2634 14.4271
      vertex -17.3992 -20.9616 13.466
    endloop
  endfacet
  facet normal 1.30515e-016 -0.809017 0.587785
    outer loop
      vertex -11 -21.326 12.9645
      vertex -11 -20.2634 14.4271
      vertex -15.685 -21.326 12.9645
    endloop
  endfacet
  facet normal 1.30515e-016 -0.809017 0.587785
    outer loop
      vertex -15.685 -21.326 12.9645
      vertex -11 -20.2634 14.4271
      vertex -17.3992 -20.9616 13.466
    endloop
  endfacet
  facet normal 2.11177e-016 -0.309017 0.951057
    outer loop
      vertex -11 -18.5 15
      vertex -21.5176 -18.5 15
      vertex -21.3604 -18.6746 14.9433
    endloop
  endfacet
  facet normal 2.11177e-016 -0.309017 0.951057
    outer loop
      vertex -18.9675 -20.2634 14.4271
      vertex -11 -18.5 15
      vertex -19.5 -20.0263 14.5041
    endloop
  endfacet
  facet normal 2.11177e-016 -0.309017 0.951057
    outer loop
      vertex -19.5 -20.0263 14.5041
      vertex -11 -18.5 15
      vertex -21.3604 -18.6746 14.9433
    endloop
  endfacet
  facet normal 2.11177e-016 -0.309017 0.951057
    outer loop
      vertex -11 -20.2634 14.4271
      vertex -11 -18.5 15
      vertex -18.9675 -20.2634 14.4271
    endloop
  endfacet
  facet normal 2.22045e-016 0 1
    outer loop
      vertex -19.8609 -10.7768 15
      vertex -11 -10.5 15
      vertex -25 -10.5 15
    endloop
  endfacet
  facet normal 2.22045e-016 0 1
    outer loop
      vertex -16.7855 -10.95 15
      vertex -16.1391 -10.7768 15
      vertex -19.2145 -10.95 15
    endloop
  endfacet
  facet normal 2.22045e-016 0 1
    outer loop
      vertex -21.2486 -14.4732 15
      vertex -21.7218 -14 15
      vertex -24.049 -14.9741 15
    endloop
  endfacet
  facet normal 2.22045e-016 0 1
    outer loop
      vertex -20.0341 -16.5768 15
      vertex -21.2486 -14.4732 15
      vertex -22.8992 -16.9656 15
    endloop
  endfacet
  facet normal 2.22045e-016 0 1
    outer loop
      vertex -21.5176 -18.5 15
      vertex -19.8609 -17.2232 15
      vertex -22.8992 -16.9656 15
    endloop
  endfacet
  facet normal 2.22045e-016 0 1
    outer loop
      vertex -16.7855 -17.05 15
      vertex -19.2145 -17.05 15
      vertex -21.5176 -18.5 15
    endloop
  endfacet
  facet normal 2.22045e-016 0 1
    outer loop
      vertex -19.8609 -17.2232 15
      vertex -20.0341 -16.5768 15
      vertex -22.8992 -16.9656 15
    endloop
  endfacet
  facet normal 2.22045e-016 0 1
    outer loop
      vertex -14.2782 -14 15
      vertex -14.7514 -14.4732 15
      vertex -11 -18.5 15
    endloop
  endfacet
  facet normal 2.22045e-016 0 1
    outer loop
      vertex -22.8992 -16.9656 15
      vertex -21.2486 -14.4732 15
      vertex -24.049 -14.9741 15
    endloop
  endfacet
  facet normal 2.22045e-016 0 1
    outer loop
      vertex -24.049 -14.9741 15
      vertex -21.7218 -14 15
      vertex -24.7596 -12.787 15
    endloop
  endfacet
  facet normal 2.22045e-016 0 1
    outer loop
      vertex -21.7218 -14 15
      vertex -21.2486 -13.5268 15
      vertex -24.7596 -12.787 15
    endloop
  endfacet
  facet normal 2.22045e-016 0 1
    outer loop
      vertex -24.7596 -12.787 15
      vertex -20.0341 -11.4232 15
      vertex -25 -10.5 15
    endloop
  endfacet
  facet normal 2.22045e-016 0 1
    outer loop
      vertex -20.0341 -11.4232 15
      vertex -19.8609 -10.7768 15
      vertex -25 -10.5 15
    endloop
  endfacet
  facet normal 2.22045e-016 0 1
    outer loop
      vertex -16.1391 -10.7768 15
      vertex -11 -10.5 15
      vertex -19.8609 -10.7768 15
    endloop
  endfacet
  facet normal 2.22045e-016 0 1
    outer loop
      vertex -19.2145 -10.95 15
      vertex -16.1391 -10.7768 15
      vertex -19.8609 -10.7768 15
    endloop
  endfacet
  facet normal 2.22045e-016 0 1
    outer loop
      vertex -16.1391 -10.7768 15
      vertex -15.9659 -11.4232 15
      vertex -11 -10.5 15
    endloop
  endfacet
  facet normal 2.22045e-016 0 1
    outer loop
      vertex -21.2486 -13.5268 15
      vertex -20.0341 -11.4232 15
      vertex -24.7596 -12.787 15
    endloop
  endfacet
  facet normal 2.22045e-016 0 1
    outer loop
      vertex -14.2782 -14 15
      vertex -11 -10.5 15
      vertex -14.7514 -13.5268 15
    endloop
  endfacet
  facet normal 2.22045e-016 0 1
    outer loop
      vertex -11 -18.5 15
      vertex -11 -10.5 15
      vertex -14.2782 -14 15
    endloop
  endfacet
  facet normal 2.22045e-016 0 1
    outer loop
      vertex -11 -18.5 15
      vertex -14.7514 -14.4732 15
      vertex -15.9659 -16.5768 15
    endloop
  endfacet
  facet normal 2.22045e-016 0 1
    outer loop
      vertex -11 -18.5 15
      vertex -16.1391 -17.2232 15
      vertex -21.5176 -18.5 15
    endloop
  endfacet
  facet normal 2.22045e-016 0 1
    outer loop
      vertex -11 -18.5 15
      vertex -15.9659 -16.5768 15
      vertex -16.1391 -17.2232 15
    endloop
  endfacet
  facet normal 2.22045e-016 0 1
    outer loop
      vertex -16.1391 -17.2232 15
      vertex -16.7855 -17.05 15
      vertex -21.5176 -18.5 15
    endloop
  endfacet
  facet normal 2.22045e-016 0 1
    outer loop
      vertex -19.2145 -17.05 15
      vertex -19.8609 -17.2232 15
      vertex -21.5176 -18.5 15
    endloop
  endfacet
  facet normal 2.22045e-016 0 1
    outer loop
      vertex -15.9659 -11.4232 15
      vertex -14.7514 -13.5268 15
      vertex -11 -10.5 15
    endloop
  endfacet
  facet normal -3.03575e-032 1 -1.36718e-016
    outer loop
      vertex -11 -10.5 14.8532
      vertex -25 -10.5 14.8532
      vertex -11 -10.5 15
    endloop
  endfacet
  facet normal -3.03575e-032 1 -1.36718e-016
    outer loop
      vertex -11 -10.5 15
      vertex -25 -10.5 14.8532
      vertex -25 -10.5 15
    endloop
  endfacet
  facet normal 2.22045e-016 1.36718e-016 1
    outer loop
      vertex -25 -9.57295 14.8532
      vertex -25 -10.5 14.8532
      vertex -11 -10.5 14.8532
    endloop
  endfacet
  facet normal 2.22045e-016 1.36718e-016 1
    outer loop
      vertex -11 -9.57295 14.8532
      vertex -25 -9.57295 14.8532
      vertex -11 -10.5 14.8532
    endloop
  endfacet
  facet normal 1.79638e-016 0.587785 0.809017
    outer loop
      vertex -25 -8.07295 13.7634
      vertex -25 -9.57295 14.8532
      vertex -11 -9.57295 14.8532
    endloop
  endfacet
  facet normal 1.79638e-016 0.587785 0.809017
    outer loop
      vertex -11 -8.07295 13.7634
      vertex -25 -8.07295 13.7634
      vertex -11 -9.57295 14.8532
    endloop
  endfacet
  facet normal 6.86155e-017 0.951057 0.309017
    outer loop
      vertex -25 -8.07295 13.7634
      vertex -11 -8.07295 13.7634
      vertex -25 -7.67401 12.5355
    endloop
  endfacet
  facet normal 6.86155e-017 0.951057 0.309017
    outer loop
      vertex -25 -7.67401 12.5355
      vertex -11 -8.07295 13.7634
      vertex -11 -7.67401 12.5355
    endloop
  endfacet
  facet normal -1.30515e-016 0.809017 -0.587785
    outer loop
      vertex -25 -7.67401 12.5355
      vertex -11 -7.67401 12.5355
      vertex -25 -7.69983 12.5
    endloop
  endfacet
  facet normal -1.30515e-016 0.809017 -0.587785
    outer loop
      vertex -25 -7.69983 12.5
      vertex -11 -7.67401 12.5355
      vertex -11 -7.69983 12.5
    endloop
  endfacet
  facet normal 2.22045e-016 0 1
    outer loop
      vertex -25 -7.69983 12.5
      vertex -11 -7.69983 12.5
      vertex -11 7.94983 12.5
    endloop
  endfacet
  facet normal 2.22045e-016 0 1
    outer loop
      vertex -25 7.94983 12.5
      vertex -25 -7.69983 12.5
      vertex -11 7.94983 12.5
    endloop
  endfacet
  facet normal -1.30515e-016 -0.809017 -0.587785
    outer loop
      vertex -25 7.94983 12.5
      vertex -11 7.94983 12.5
      vertex -11 7.92401 12.5355
    endloop
  endfacet
  facet normal -1.30515e-016 -0.809017 -0.587785
    outer loop
      vertex -25 7.92401 12.5355
      vertex -25 7.94983 12.5
      vertex -11 7.92401 12.5355
    endloop
  endfacet
  facet normal 6.86155e-017 -0.951057 0.309017
    outer loop
      vertex -25 7.92401 12.5355
      vertex -11 7.92401 12.5355
      vertex -11 8.32295 13.7634
    endloop
  endfacet
  facet normal 6.86155e-017 -0.951057 0.309017
    outer loop
      vertex -25 8.32295 13.7634
      vertex -25 7.92401 12.5355
      vertex -11 8.32295 13.7634
    endloop
  endfacet
  facet normal 1.79638e-016 -0.587785 0.809017
    outer loop
      vertex -25 8.32295 13.7634
      vertex -11 8.32295 13.7634
      vertex -11 9.82295 14.8532
    endloop
  endfacet
  facet normal 1.79638e-016 -0.587785 0.809017
    outer loop
      vertex -25 9.82295 14.8532
      vertex -25 8.32295 13.7634
      vertex -11 9.82295 14.8532
    endloop
  endfacet
  facet normal 2.22045e-016 -1.36718e-016 1
    outer loop
      vertex -25 9.82295 14.8532
      vertex -11 9.82295 14.8532
      vertex -11 10.75 14.8532
    endloop
  endfacet
  facet normal 2.22045e-016 -1.36718e-016 1
    outer loop
      vertex -25 10.75 14.8532
      vertex -25 9.82295 14.8532
      vertex -11 10.75 14.8532
    endloop
  endfacet
  facet normal -3.03575e-032 -1 -1.36718e-016
    outer loop
      vertex -11 10.75 15
      vertex -25 10.75 15
      vertex -25 10.75 14.8532
    endloop
  endfacet
  facet normal -3.03575e-032 -1 -1.36718e-016
    outer loop
      vertex -11 10.75 14.8532
      vertex -11 10.75 15
      vertex -25 10.75 14.8532
    endloop
  endfacet
  facet normal 2.22045e-016 0 1
    outer loop
      vertex -16.1391 10.7768 15
      vertex -11 10.75 15
      vertex -11 19.25 15
    endloop
  endfacet
  facet normal 2.22045e-016 0 1
    outer loop
      vertex -22.8992 17.7156 15
      vertex -25 10.75 15
      vertex -21.5176 19.25 15
    endloop
  endfacet
  facet normal 2.22045e-016 0 1
    outer loop
      vertex -24.049 15.7241 15
      vertex -25 10.75 15
      vertex -22.8992 17.7156 15
    endloop
  endfacet
  facet normal 2.22045e-016 0 1
    outer loop
      vertex -24.7596 13.537 15
      vertex -25 10.75 15
      vertex -24.049 15.7241 15
    endloop
  endfacet
  facet normal 2.22045e-016 0 1
    outer loop
      vertex -25 11.25 15
      vertex -25 10.75 15
      vertex -24.7596 13.537 15
    endloop
  endfacet
  facet normal 2.22045e-016 0 1
    outer loop
      vertex -14.2782 14 15
      vertex -16.1391 10.7768 15
      vertex -11 19.25 15
    endloop
  endfacet
  facet normal 2.22045e-016 0 1
    outer loop
      vertex -25 10.75 15
      vertex -11 10.75 15
      vertex -16.1391 10.7768 15
    endloop
  endfacet
  facet normal 2.22045e-016 0 1
    outer loop
      vertex -19.8609 10.7768 15
      vertex -16.1391 10.7768 15
      vertex -16.7855 10.95 15
    endloop
  endfacet
  facet normal 2.22045e-016 0 1
    outer loop
      vertex -19.8609 10.7768 15
      vertex -20.0341 11.4232 15
      vertex -25 10.75 15
    endloop
  endfacet
  facet normal 2.22045e-016 0 1
    outer loop
      vertex -25 10.75 15
      vertex -16.1391 10.7768 15
      vertex -19.8609 10.7768 15
    endloop
  endfacet
  facet normal 2.22045e-016 0 1
    outer loop
      vertex -21.7218 14 15
      vertex -21.2486 14.4732 15
      vertex -21.5176 19.25 15
    endloop
  endfacet
  facet normal 2.22045e-016 0 1
    outer loop
      vertex -14.7514 14.4732 15
      vertex -14.2782 14 15
      vertex -11 19.25 15
    endloop
  endfacet
  facet normal 2.22045e-016 0 1
    outer loop
      vertex -21.7218 14 15
      vertex -25 10.75 15
      vertex -21.2486 13.5268 15
    endloop
  endfacet
  facet normal 2.22045e-016 0 1
    outer loop
      vertex -19.2145 17.05 15
      vertex -16.7855 17.05 15
      vertex -11 19.25 15
    endloop
  endfacet
  facet normal 2.22045e-016 0 1
    outer loop
      vertex -21.5176 19.25 15
      vertex -25 10.75 15
      vertex -21.7218 14 15
    endloop
  endfacet
  facet normal 2.22045e-016 0 1
    outer loop
      vertex -16.1391 17.2232 15
      vertex -15.9659 16.5768 15
      vertex -11 19.25 15
    endloop
  endfacet
  facet normal 2.22045e-016 0 1
    outer loop
      vertex -21.5176 19.25 15
      vertex -21.2486 14.4732 15
      vertex -20.0341 16.5768 15
    endloop
  endfacet
  facet normal 2.22045e-016 0 1
    outer loop
      vertex -21.5176 19.25 15
      vertex -19.8609 17.2232 15
      vertex -11 19.25 15
    endloop
  endfacet
  facet normal 2.22045e-016 0 1
    outer loop
      vertex -21.5176 19.25 15
      vertex -20.0341 16.5768 15
      vertex -19.8609 17.2232 15
    endloop
  endfacet
  facet normal 2.22045e-016 0 1
    outer loop
      vertex -19.8609 17.2232 15
      vertex -19.2145 17.05 15
      vertex -11 19.25 15
    endloop
  endfacet
  facet normal 2.22045e-016 0 1
    outer loop
      vertex -16.7855 17.05 15
      vertex -16.1391 17.2232 15
      vertex -11 19.25 15
    endloop
  endfacet
  facet normal 2.22045e-016 0 1
    outer loop
      vertex -15.9659 11.4232 15
      vertex -16.1391 10.7768 15
      vertex -14.2782 14 15
    endloop
  endfacet
  facet normal 2.22045e-016 0 1
    outer loop
      vertex -14.7514 13.5268 15
      vertex -15.9659 11.4232 15
      vertex -14.2782 14 15
    endloop
  endfacet
  facet normal 2.22045e-016 0 1
    outer loop
      vertex -20.0341 11.4232 15
      vertex -21.2486 13.5268 15
      vertex -25 10.75 15
    endloop
  endfacet
  facet normal 2.22045e-016 0 1
    outer loop
      vertex -19.2145 10.95 15
      vertex -19.8609 10.7768 15
      vertex -16.7855 10.95 15
    endloop
  endfacet
  facet normal 2.22045e-016 0 1
    outer loop
      vertex -15.9659 16.5768 15
      vertex -14.7514 14.4732 15
      vertex -11 19.25 15
    endloop
  endfacet
  facet normal 2.11177e-016 0.309017 0.951057
    outer loop
      vertex -11 19.25 15
      vertex -11 21.0134 14.4271
      vertex -18.9675 21.0134 14.4271
    endloop
  endfacet
  facet normal 2.11177e-016 0.309017 0.951057
    outer loop
      vertex -21.3604 19.4246 14.9433
      vertex -11 19.25 15
      vertex -19.5 20.7763 14.5041
    endloop
  endfacet
  facet normal 2.11177e-016 0.309017 0.951057
    outer loop
      vertex -19.5 20.7763 14.5041
      vertex -11 19.25 15
      vertex -18.9675 21.0134 14.4271
    endloop
  endfacet
  facet normal 2.11177e-016 0.309017 0.951057
    outer loop
      vertex -21.5176 19.25 15
      vertex -11 19.25 15
      vertex -21.3604 19.4246 14.9433
    endloop
  endfacet
  facet normal 1.30515e-016 0.809017 0.587785
    outer loop
      vertex -11 22.076 12.9645
      vertex -15.685 22.076 12.9645
      vertex -11 21.0134 14.4271
    endloop
  endfacet
  facet normal 1.30515e-016 0.809017 0.587785
    outer loop
      vertex -11 21.0134 14.4271
      vertex -15.685 22.076 12.9645
      vertex -17.3992 21.7116 13.466
    endloop
  endfacet
  facet normal 1.30515e-016 0.809017 0.587785
    outer loop
      vertex -11 21.0134 14.4271
      vertex -17.3992 21.7116 13.466
      vertex -18.9675 21.0134 14.4271
    endloop
  endfacet
  facet normal -6.86155e-017 0.951057 -0.309017
    outer loop
      vertex -11 21.6771 11.7366
      vertex -17.4768 21.6771 11.7366
      vertex -11 22.076 12.9645
    endloop
  endfacet
  facet normal -6.86155e-017 0.951057 -0.309017
    outer loop
      vertex -11 22.076 12.9645
      vertex -17.4768 21.6771 11.7366
      vertex -17.3992 21.7116 11.843
    endloop
  endfacet
  facet normal -6.86155e-017 0.951057 -0.309017
    outer loop
      vertex -11 22.076 12.9645
      vertex -17.3992 21.7116 11.843
      vertex -15.685 22.076 12.9645
    endloop
  endfacet
  facet normal -1.79638e-016 0.587785 -0.809017
    outer loop
      vertex -11 20.1771 10.6468
      vertex -20.3248 20.1771 10.6468
      vertex -11 21.6771 11.7366
    endloop
  endfacet
  facet normal -1.79638e-016 0.587785 -0.809017
    outer loop
      vertex -11 21.6771 11.7366
      vertex -20.3248 20.1771 10.6468
      vertex -19.5 20.7763 11.0822
    endloop
  endfacet
  facet normal -1.79638e-016 0.587785 -0.809017
    outer loop
      vertex -11 21.6771 11.7366
      vertex -19.5 20.7763 11.0822
      vertex -17.4768 21.6771 11.7366
    endloop
  endfacet
  facet normal -2.22045e-016 1.77321e-016 -1
    outer loop
      vertex -11 19.25 10.6468
      vertex -21.5176 19.25 10.6468
      vertex -11 20.1771 10.6468
    endloop
  endfacet
  facet normal -2.22045e-016 1.77321e-016 -1
    outer loop
      vertex -11 20.1771 10.6468
      vertex -21.5176 19.25 10.6468
      vertex -21.3604 19.4246 10.6468
    endloop
  endfacet
  facet normal -2.22045e-016 1.77321e-016 -1
    outer loop
      vertex -11 20.1771 10.6468
      vertex -21.3604 19.4246 10.6468
      vertex -20.3248 20.1771 10.6468
    endloop
  endfacet
  facet normal 3.93732e-032 1 1.77321e-016
    outer loop
      vertex -21.5176 19.25 10.6468
      vertex -11 19.25 10.6468
      vertex -21.5176 19.25 10.5
    endloop
  endfacet
  facet normal 3.93732e-032 1 1.77321e-016
    outer loop
      vertex -21.5176 19.25 10.5
      vertex -11 19.25 10.6468
      vertex -11 19.25 10.5
    endloop
  endfacet
  facet normal -2.22045e-016 0 -1
    outer loop
      vertex -18.4635 15.4266 10.5
      vertex -25 11.25 10.5
      vertex -24.7596 13.537 10.5
    endloop
  endfacet
  facet normal -2.22045e-016 0 -1
    outer loop
      vertex -11 19.25 10.5
      vertex -24.7596 13.537 10.5
      vertex -24.049 15.7241 10.5
    endloop
  endfacet
  facet normal -2.22045e-016 0 -1
    outer loop
      vertex -11 19.25 10.5
      vertex -24.049 15.7241 10.5
      vertex -22.8992 17.7156 10.5
    endloop
  endfacet
  facet normal -2.22045e-016 0 -1
    outer loop
      vertex -11 19.25 10.5
      vertex -22.8992 17.7156 10.5
      vertex -21.5176 19.25 10.5
    endloop
  endfacet
  facet normal -2.22045e-016 0 -1
    outer loop
      vertex -11 10.75 10.5
      vertex -25 10.75 10.5
      vertex -18.4635 12.5734 10.5
    endloop
  endfacet
  facet normal -2.22045e-016 0 -1
    outer loop
      vertex -19.2135 13.1183 10.5
      vertex -25 10.75 10.5
      vertex -19.5 14 10.5
    endloop
  endfacet
  facet normal -2.22045e-016 0 -1
    outer loop
      vertex -11 10.75 10.5
      vertex -18.4635 12.5734 10.5
      vertex -17.5365 12.5734 10.5
    endloop
  endfacet
  facet normal -2.22045e-016 0 -1
    outer loop
      vertex -11 10.75 10.5
      vertex -17.5365 12.5734 10.5
      vertex -16.7865 13.1183 10.5
    endloop
  endfacet
  facet normal -2.22045e-016 0 -1
    outer loop
      vertex -11 10.75 10.5
      vertex -16.7865 13.1183 10.5
      vertex -11 19.25 10.5
    endloop
  endfacet
  facet normal -2.22045e-016 0 -1
    outer loop
      vertex -16.7865 14.8817 10.5
      vertex -11 19.25 10.5
      vertex -16.5 14 10.5
    endloop
  endfacet
  facet normal -2.22045e-016 0 -1
    outer loop
      vertex -17.5365 15.4266 10.5
      vertex -11 19.25 10.5
      vertex -16.7865 14.8817 10.5
    endloop
  endfacet
  facet normal -2.22045e-016 0 -1
    outer loop
      vertex -18.4635 15.4266 10.5
      vertex -11 19.25 10.5
      vertex -17.5365 15.4266 10.5
    endloop
  endfacet
  facet normal -2.22045e-016 0 -1
    outer loop
      vertex -19.2135 14.8817 10.5
      vertex -25 11.25 10.5
      vertex -18.4635 15.4266 10.5
    endloop
  endfacet
  facet normal -2.22045e-016 0 -1
    outer loop
      vertex -11 19.25 10.5
      vertex -18.4635 15.4266 10.5
      vertex -24.7596 13.537 10.5
    endloop
  endfacet
  facet normal -2.22045e-016 0 -1
    outer loop
      vertex -19.5 14 10.5
      vertex -25 11.25 10.5
      vertex -19.2135 14.8817 10.5
    endloop
  endfacet
  facet normal -2.22045e-016 0 -1
    outer loop
      vertex -19.5 14 10.5
      vertex -25 10.75 10.5
      vertex -25 11.25 10.5
    endloop
  endfacet
  facet normal -2.22045e-016 0 -1
    outer loop
      vertex -18.4635 12.5734 10.5
      vertex -25 10.75 10.5
      vertex -19.2135 13.1183 10.5
    endloop
  endfacet
  facet normal -2.22045e-016 0 -1
    outer loop
      vertex -16.5 14 10.5
      vertex -11 19.25 10.5
      vertex -16.7865 13.1183 10.5
    endloop
  endfacet
  facet normal -2.11177e-016 -0.309017 -0.951057
    outer loop
      vertex -11 10.75 10.5
      vertex -11 10 10.7437
      vertex -25 10.75 10.5
    endloop
  endfacet
  facet normal -2.11177e-016 -0.309017 -0.951057
    outer loop
      vertex -25 10.75 10.5
      vertex -11 10 10.7437
      vertex -25 10 10.7437
    endloop
  endfacet
  facet normal 0 1 0
    outer loop
      vertex -11 10 10.5
      vertex -25 10 10.5
      vertex -11 10 10.7437
    endloop
  endfacet
  facet normal 0 1 0
    outer loop
      vertex -11 10 10.7437
      vertex -25 10 10.5
      vertex -25 10 10.7437
    endloop
  endfacet
  facet normal -2.22045e-016 0 -1
    outer loop
      vertex -11 -10 10.5
      vertex -25 -10 10.5
      vertex -11 10 10.5
    endloop
  endfacet
  facet normal -2.22045e-016 0 -1
    outer loop
      vertex -11 10 10.5
      vertex -25 -10 10.5
      vertex -25 10 10.5
    endloop
  endfacet
  facet normal 0 -1 0
    outer loop
      vertex -25 -10 10.5
      vertex -11 -10 10.5
      vertex -11 -10 10.6625
    endloop
  endfacet
  facet normal 0 -1 0
    outer loop
      vertex -25 -10 10.6625
      vertex -25 -10 10.5
      vertex -11 -10 10.6625
    endloop
  endfacet
  facet normal -0.587785 -0.809017 2.34741e-016
    outer loop
      vertex -20.3248 -19.4271 10.6468
      vertex -19.5 -20.0263 11.0822
      vertex -19.5 -20.0263 14.5041
    endloop
  endfacet
  facet normal -0.587785 -0.809017 2.34741e-016
    outer loop
      vertex -21.3604 -18.6746 10.6468
      vertex -20.3248 -19.4271 10.6468
      vertex -21.3604 -18.6746 14.9433
    endloop
  endfacet
  facet normal -0.587785 -0.809017 2.34741e-016
    outer loop
      vertex -21.3604 -18.6746 14.9433
      vertex -20.3248 -19.4271 10.6468
      vertex -19.5 -20.0263 14.5041
    endloop
  endfacet
  facet normal -0.994522 0.104528 3.97178e-016
    outer loop
      vertex -25 11.25 10.5
      vertex -25 11.25 12.75
      vertex -24.7596 13.537 10.5
    endloop
  endfacet
  facet normal -0.994522 0.104528 3.97178e-016
    outer loop
      vertex -24.7596 13.537 10.5
      vertex -25 11.25 12.75
      vertex -25 11.25 15
    endloop
  endfacet
  facet normal -0.994522 0.104528 3.97178e-016
    outer loop
      vertex -24.7596 13.537 10.5
      vertex -25 11.25 15
      vertex -24.7596 13.537 15
    endloop
  endfacet
  facet normal 4.47233e-017 0 1
    outer loop
      vertex -20.0341 -16.5768 12.51
      vertex -19.2145 -17.05 12.51
      vertex -21.2486 -13.5268 12.51
    endloop
  endfacet
  facet normal 4.47233e-017 0 1
    outer loop
      vertex -21.2486 -13.5268 12.51
      vertex -21.7218 -14 12.51
      vertex -21.2486 -14.4732 12.51
    endloop
  endfacet
  facet normal 4.47233e-017 0 1
    outer loop
      vertex -16.7855 -17.05 12.51
      vertex -16.1391 -17.2232 12.51
      vertex -21.2486 -13.5268 12.51
    endloop
  endfacet
  facet normal 4.47233e-017 0 1
    outer loop
      vertex -20.0341 -16.5768 12.51
      vertex -21.2486 -13.5268 12.51
      vertex -21.2486 -14.4732 12.51
    endloop
  endfacet
  facet normal 4.47233e-017 0 1
    outer loop
      vertex -19.8609 -17.2232 12.51
      vertex -19.2145 -17.05 12.51
      vertex -20.0341 -16.5768 12.51
    endloop
  endfacet
  facet normal 4.47233e-017 0 1
    outer loop
      vertex -19.2145 -17.05 12.51
      vertex -16.7855 -17.05 12.51
      vertex -21.2486 -13.5268 12.51
    endloop
  endfacet
  facet normal 4.47233e-017 0 1
    outer loop
      vertex -16.7865 -13.1183 12.51
      vertex -16.5 -14 12.51
      vertex -14.2782 -14 12.51
    endloop
  endfacet
  facet normal 4.47233e-017 0 1
    outer loop
      vertex -18.4635 -12.5734 12.51
      vertex -15.9659 -11.4232 12.51
      vertex -21.2486 -13.5268 12.51
    endloop
  endfacet
  facet normal 4.47233e-017 0 1
    outer loop
      vertex -18.4635 -12.5734 12.51
      vertex -17.5365 -12.5734 12.51
      vertex -15.9659 -11.4232 12.51
    endloop
  endfacet
  facet normal 4.47233e-017 0 1
    outer loop
      vertex -15.9659 -11.4232 12.51
      vertex -16.1391 -10.7768 12.51
      vertex -21.2486 -13.5268 12.51
    endloop
  endfacet
  facet normal 4.47233e-017 0 1
    outer loop
      vertex -16.7855 -10.95 12.51
      vertex -19.2145 -10.95 12.51
      vertex -21.2486 -13.5268 12.51
    endloop
  endfacet
  facet normal 4.47233e-017 0 1
    outer loop
      vertex -16.1391 -10.7768 12.51
      vertex -16.7855 -10.95 12.51
      vertex -21.2486 -13.5268 12.51
    endloop
  endfacet
  facet normal 4.47233e-017 0 1
    outer loop
      vertex -19.2135 -14.8817 12.51
      vertex -19.5 -14 12.51
      vertex -21.2486 -13.5268 12.51
    endloop
  endfacet
  facet normal 4.47233e-017 0 1
    outer loop
      vertex -19.2145 -10.95 12.51
      vertex -19.8609 -10.7768 12.51
      vertex -20.0341 -11.4232 12.51
    endloop
  endfacet
  facet normal 4.47233e-017 0 1
    outer loop
      vertex -16.1391 -17.2232 12.51
      vertex -19.2135 -14.8817 12.51
      vertex -21.2486 -13.5268 12.51
    endloop
  endfacet
  facet normal 4.47233e-017 0 1
    outer loop
      vertex -16.5 -14 12.51
      vertex -16.7865 -14.8817 12.51
      vertex -14.7514 -14.4732 12.51
    endloop
  endfacet
  facet normal 4.47233e-017 0 1
    outer loop
      vertex -19.2135 -13.1183 12.51
      vertex -18.4635 -12.5734 12.51
      vertex -21.2486 -13.5268 12.51
    endloop
  endfacet
  facet normal 4.47233e-017 0 1
    outer loop
      vertex -16.7865 -13.1183 12.51
      vertex -14.2782 -14 12.51
      vertex -14.7514 -13.5268 12.51
    endloop
  endfacet
  facet normal 4.47233e-017 0 1
    outer loop
      vertex -14.7514 -13.5268 12.51
      vertex -15.9659 -11.4232 12.51
      vertex -17.5365 -12.5734 12.51
    endloop
  endfacet
  facet normal 4.47233e-017 0 1
    outer loop
      vertex -17.5365 -15.4266 12.51
      vertex -18.4635 -15.4266 12.51
      vertex -15.9659 -16.5768 12.51
    endloop
  endfacet
  facet normal 4.47233e-017 0 1
    outer loop
      vertex -14.7514 -13.5268 12.51
      vertex -17.5365 -12.5734 12.51
      vertex -16.7865 -13.1183 12.51
    endloop
  endfacet
  facet normal 4.47233e-017 0 1
    outer loop
      vertex -14.7514 -14.4732 12.51
      vertex -14.2782 -14 12.51
      vertex -16.5 -14 12.51
    endloop
  endfacet
  facet normal 4.47233e-017 0 1
    outer loop
      vertex -15.9659 -16.5768 12.51
      vertex -14.7514 -14.4732 12.51
      vertex -16.7865 -14.8817 12.51
    endloop
  endfacet
  facet normal 4.47233e-017 0 1
    outer loop
      vertex -15.9659 -16.5768 12.51
      vertex -16.7865 -14.8817 12.51
      vertex -17.5365 -15.4266 12.51
    endloop
  endfacet
  facet normal 4.47233e-017 0 1
    outer loop
      vertex -16.1391 -17.2232 12.51
      vertex -18.4635 -15.4266 12.51
      vertex -19.2135 -14.8817 12.51
    endloop
  endfacet
  facet normal 4.47233e-017 0 1
    outer loop
      vertex -16.1391 -17.2232 12.51
      vertex -15.9659 -16.5768 12.51
      vertex -18.4635 -15.4266 12.51
    endloop
  endfacet
  facet normal 4.47233e-017 0 1
    outer loop
      vertex -20.0341 -11.4232 12.51
      vertex -21.2486 -13.5268 12.51
      vertex -19.2145 -10.95 12.51
    endloop
  endfacet
  facet normal 4.47233e-017 0 1
    outer loop
      vertex -19.5 -14 12.51
      vertex -19.2135 -13.1183 12.51
      vertex -21.2486 -13.5268 12.51
    endloop
  endfacet
  facet normal -0.406737 -0.913545 1.62437e-016
    outer loop
      vertex -17.4768 -20.9271 11.7366
      vertex -17.3992 -20.9616 11.843
      vertex -17.3992 -20.9616 13.466
    endloop
  endfacet
  facet normal -0.406737 -0.913545 1.62437e-016
    outer loop
      vertex -19.5 -20.0263 14.5041
      vertex -17.4768 -20.9271 11.7366
      vertex -18.9675 -20.2634 14.4271
    endloop
  endfacet
  facet normal -0.406737 -0.913545 1.62437e-016
    outer loop
      vertex -18.9675 -20.2634 14.4271
      vertex -17.4768 -20.9271 11.7366
      vertex -17.3992 -20.9616 13.466
    endloop
  endfacet
  facet normal -0.406737 -0.913545 1.62437e-016
    outer loop
      vertex -19.5 -20.0263 11.0822
      vertex -17.4768 -20.9271 11.7366
      vertex -19.5 -20.0263 14.5041
    endloop
  endfacet
  facet normal -0.207912 -0.978148 8.30328e-017
    outer loop
      vertex -15.685 -21.326 12.9645
      vertex -17.3992 -20.9616 13.466
      vertex -17.3992 -20.9616 11.843
    endloop
  endfacet
  facet normal -0.258819 0.965926 -1.15753e-017
    outer loop
      vertex -19.8609 -17.2232 12.51
      vertex -19.8609 -17.2232 15
      vertex -19.2145 -17.05 12.51
    endloop
  endfacet
  facet normal -0.258819 0.965926 -1.15753e-017
    outer loop
      vertex -19.2145 -17.05 12.51
      vertex -19.8609 -17.2232 15
      vertex -19.2145 -17.05 15
    endloop
  endfacet
  facet normal 0.965926 0.258819 4.31994e-017
    outer loop
      vertex -19.8609 -17.2232 12.51
      vertex -20.0341 -16.5768 12.51
      vertex -20.0341 -16.5768 15
    endloop
  endfacet
  facet normal 0.965926 0.258819 4.31994e-017
    outer loop
      vertex -19.8609 -17.2232 15
      vertex -19.8609 -17.2232 12.51
      vertex -20.0341 -16.5768 15
    endloop
  endfacet
  facet normal 0 1 0
    outer loop
      vertex -19.2145 -17.05 12.51
      vertex -19.2145 -17.05 15
      vertex -16.7855 -17.05 12.51
    endloop
  endfacet
  facet normal 0 1 0
    outer loop
      vertex -16.7855 -17.05 12.51
      vertex -19.2145 -17.05 15
      vertex -16.7855 -17.05 15
    endloop
  endfacet
  facet normal 0.258819 0.965926 1.15753e-017
    outer loop
      vertex -16.7855 -17.05 12.51
      vertex -16.7855 -17.05 15
      vertex -16.1391 -17.2232 12.51
    endloop
  endfacet
  facet normal 0.258819 0.965926 1.15753e-017
    outer loop
      vertex -16.1391 -17.2232 12.51
      vertex -16.7855 -17.05 15
      vertex -16.1391 -17.2232 15
    endloop
  endfacet
  facet normal -0.965926 0.258819 -4.31994e-017
    outer loop
      vertex -16.1391 -17.2232 12.51
      vertex -16.1391 -17.2232 15
      vertex -15.9659 -16.5768 12.51
    endloop
  endfacet
  facet normal -0.965926 0.258819 -4.31994e-017
    outer loop
      vertex -15.9659 -16.5768 12.51
      vertex -16.1391 -17.2232 15
      vertex -15.9659 -16.5768 15
    endloop
  endfacet
  facet normal -0.866025 0.5 -3.87315e-017
    outer loop
      vertex -15.9659 -16.5768 12.51
      vertex -15.9659 -16.5768 15
      vertex -14.7514 -14.4732 12.51
    endloop
  endfacet
  facet normal -0.866025 0.5 -3.87315e-017
    outer loop
      vertex -14.7514 -14.4732 12.51
      vertex -15.9659 -16.5768 15
      vertex -14.7514 -14.4732 15
    endloop
  endfacet
  facet normal -0.707107 0.707107 -3.16242e-017
    outer loop
      vertex -14.7514 -14.4732 12.51
      vertex -14.7514 -14.4732 15
      vertex -14.2782 -14 12.51
    endloop
  endfacet
  facet normal -0.707107 0.707107 -3.16242e-017
    outer loop
      vertex -14.2782 -14 12.51
      vertex -14.7514 -14.4732 15
      vertex -14.2782 -14 15
    endloop
  endfacet
  facet normal -0.707107 -0.707107 -3.16242e-017
    outer loop
      vertex -14.7514 -13.5268 15
      vertex -14.7514 -13.5268 12.51
      vertex -14.2782 -14 12.51
    endloop
  endfacet
  facet normal -0.707107 -0.707107 -3.16242e-017
    outer loop
      vertex -14.2782 -14 15
      vertex -14.7514 -13.5268 15
      vertex -14.2782 -14 12.51
    endloop
  endfacet
  facet normal -0.866025 -0.5 -3.87315e-017
    outer loop
      vertex -15.9659 -11.4232 12.51
      vertex -14.7514 -13.5268 12.51
      vertex -15.9659 -11.4232 15
    endloop
  endfacet
  facet normal -0.866025 -0.5 -3.87315e-017
    outer loop
      vertex -15.9659 -11.4232 15
      vertex -14.7514 -13.5268 12.51
      vertex -14.7514 -13.5268 15
    endloop
  endfacet
  facet normal -0.965926 -0.258819 -4.31994e-017
    outer loop
      vertex -16.1391 -10.7768 12.51
      vertex -15.9659 -11.4232 12.51
      vertex -16.1391 -10.7768 15
    endloop
  endfacet
  facet normal -0.965926 -0.258819 -4.31994e-017
    outer loop
      vertex -16.1391 -10.7768 15
      vertex -15.9659 -11.4232 12.51
      vertex -15.9659 -11.4232 15
    endloop
  endfacet
  facet normal 0.258819 -0.965926 1.15753e-017
    outer loop
      vertex -16.7855 -10.95 15
      vertex -16.7855 -10.95 12.51
      vertex -16.1391 -10.7768 12.51
    endloop
  endfacet
  facet normal 0.258819 -0.965926 1.15753e-017
    outer loop
      vertex -16.1391 -10.7768 15
      vertex -16.7855 -10.95 15
      vertex -16.1391 -10.7768 12.51
    endloop
  endfacet
  facet normal 0 -1 0
    outer loop
      vertex -19.2145 -10.95 15
      vertex -19.2145 -10.95 12.51
      vertex -16.7855 -10.95 12.51
    endloop
  endfacet
  facet normal 0 -1 0
    outer loop
      vertex -16.7855 -10.95 15
      vertex -19.2145 -10.95 15
      vertex -16.7855 -10.95 12.51
    endloop
  endfacet
  facet normal -0.258819 -0.965926 -1.15753e-017
    outer loop
      vertex -19.8609 -10.7768 15
      vertex -19.8609 -10.7768 12.51
      vertex -19.2145 -10.95 12.51
    endloop
  endfacet
  facet normal -0.258819 -0.965926 -1.15753e-017
    outer loop
      vertex -19.2145 -10.95 15
      vertex -19.8609 -10.7768 15
      vertex -19.2145 -10.95 12.51
    endloop
  endfacet
  facet normal 0.965926 -0.258819 4.31994e-017
    outer loop
      vertex -20.0341 -11.4232 15
      vertex -20.0341 -11.4232 12.51
      vertex -19.8609 -10.7768 12.51
    endloop
  endfacet
  facet normal 0.965926 -0.258819 4.31994e-017
    outer loop
      vertex -19.8609 -10.7768 15
      vertex -20.0341 -11.4232 15
      vertex -19.8609 -10.7768 12.51
    endloop
  endfacet
  facet normal 0.866025 -0.5 3.87315e-017
    outer loop
      vertex -21.2486 -13.5268 15
      vertex -21.2486 -13.5268 12.51
      vertex -20.0341 -11.4232 12.51
    endloop
  endfacet
  facet normal 0.866025 -0.5 3.87315e-017
    outer loop
      vertex -20.0341 -11.4232 15
      vertex -21.2486 -13.5268 15
      vertex -20.0341 -11.4232 12.51
    endloop
  endfacet
  facet normal 0.707107 -0.707107 3.16242e-017
    outer loop
      vertex -21.7218 -14 15
      vertex -21.7218 -14 12.51
      vertex -21.2486 -13.5268 12.51
    endloop
  endfacet
  facet normal 0.707107 -0.707107 3.16242e-017
    outer loop
      vertex -21.2486 -13.5268 15
      vertex -21.7218 -14 15
      vertex -21.2486 -13.5268 12.51
    endloop
  endfacet
  facet normal 0.707107 0.707107 3.16242e-017
    outer loop
      vertex -21.7218 -14 12.51
      vertex -21.7218 -14 15
      vertex -21.2486 -14.4732 12.51
    endloop
  endfacet
  facet normal 0.707107 0.707107 3.16242e-017
    outer loop
      vertex -21.2486 -14.4732 12.51
      vertex -21.7218 -14 15
      vertex -21.2486 -14.4732 15
    endloop
  endfacet
  facet normal 0.866025 0.5 3.87315e-017
    outer loop
      vertex -20.0341 -16.5768 12.51
      vertex -21.2486 -14.4732 12.51
      vertex -21.2486 -14.4732 15
    endloop
  endfacet
  facet normal 0.866025 0.5 3.87315e-017
    outer loop
      vertex -20.0341 -16.5768 15
      vertex -20.0341 -16.5768 12.51
      vertex -21.2486 -14.4732 15
    endloop
  endfacet
  facet normal -0.951056 0.309017 3.79819e-016
    outer loop
      vertex -24.7596 13.537 10.5
      vertex -24.7596 13.537 15
      vertex -24.049 15.7241 10.5
    endloop
  endfacet
  facet normal -0.951056 0.309017 3.79819e-016
    outer loop
      vertex -24.049 15.7241 10.5
      vertex -24.7596 13.537 15
      vertex -24.049 15.7241 15
    endloop
  endfacet
  facet normal -0.866025 0.5 3.45861e-016
    outer loop
      vertex -24.049 15.7241 10.5
      vertex -24.049 15.7241 15
      vertex -22.8992 17.7156 10.5
    endloop
  endfacet
  facet normal -0.866025 0.5 3.45861e-016
    outer loop
      vertex -22.8992 17.7156 10.5
      vertex -24.049 15.7241 15
      vertex -22.8992 17.7156 15
    endloop
  endfacet
  facet normal -0.743145 0.669131 2.96787e-016
    outer loop
      vertex -22.8992 17.7156 10.5
      vertex -22.8992 17.7156 15
      vertex -21.5176 19.25 10.5
    endloop
  endfacet
  facet normal -0.743145 0.669131 2.96787e-016
    outer loop
      vertex -21.5176 19.25 10.6468
      vertex -22.8992 17.7156 15
      vertex -21.5176 19.25 15
    endloop
  endfacet
  facet normal -0.743145 0.669131 2.96787e-016
    outer loop
      vertex -21.5176 19.25 10.5
      vertex -22.8992 17.7156 15
      vertex -21.5176 19.25 10.6468
    endloop
  endfacet
  facet normal -0.743145 0.669131 2.96787e-016
    outer loop
      vertex -21.5176 19.25 10.6468
      vertex -21.5176 19.25 15
      vertex -21.3604 19.4246 14.9433
    endloop
  endfacet
  facet normal -0.743145 0.669131 2.96787e-016
    outer loop
      vertex -21.5176 19.25 10.6468
      vertex -21.3604 19.4246 14.9433
      vertex -21.3604 19.4246 10.6468
    endloop
  endfacet
  facet normal 0.258819 0.965926 1.15753e-017
    outer loop
      vertex -16.1391 10.7768 15
      vertex -16.1391 10.7768 12.51
      vertex -16.7855 10.95 15
    endloop
  endfacet
  facet normal 0.258819 0.965926 1.15753e-017
    outer loop
      vertex -16.7855 10.95 15
      vertex -16.1391 10.7768 12.51
      vertex -16.7855 10.95 12.51
    endloop
  endfacet
  facet normal -0.965926 0.258819 -4.31994e-017
    outer loop
      vertex -15.9659 11.4232 15
      vertex -15.9659 11.4232 12.51
      vertex -16.1391 10.7768 15
    endloop
  endfacet
  facet normal -0.965926 0.258819 -4.31994e-017
    outer loop
      vertex -16.1391 10.7768 15
      vertex -15.9659 11.4232 12.51
      vertex -16.1391 10.7768 12.51
    endloop
  endfacet
  facet normal -0.866025 0.5 -3.87315e-017
    outer loop
      vertex -14.7514 13.5268 15
      vertex -14.7514 13.5268 12.51
      vertex -15.9659 11.4232 15
    endloop
  endfacet
  facet normal -0.866025 0.5 -3.87315e-017
    outer loop
      vertex -15.9659 11.4232 15
      vertex -14.7514 13.5268 12.51
      vertex -15.9659 11.4232 12.51
    endloop
  endfacet
  facet normal -0.707107 0.707107 -3.16242e-017
    outer loop
      vertex -14.2782 14 15
      vertex -14.2782 14 12.51
      vertex -14.7514 13.5268 15
    endloop
  endfacet
  facet normal -0.707107 0.707107 -3.16242e-017
    outer loop
      vertex -14.7514 13.5268 15
      vertex -14.2782 14 12.51
      vertex -14.7514 13.5268 12.51
    endloop
  endfacet
  facet normal -0.707107 -0.707107 -3.16242e-017
    outer loop
      vertex -14.2782 14 15
      vertex -14.7514 14.4732 15
      vertex -14.2782 14 12.51
    endloop
  endfacet
  facet normal -0.707107 -0.707107 -3.16242e-017
    outer loop
      vertex -14.2782 14 12.51
      vertex -14.7514 14.4732 15
      vertex -14.7514 14.4732 12.51
    endloop
  endfacet
  facet normal -0.866025 -0.5 -3.87315e-017
    outer loop
      vertex -14.7514 14.4732 15
      vertex -15.9659 16.5768 15
      vertex -14.7514 14.4732 12.51
    endloop
  endfacet
  facet normal -0.866025 -0.5 -3.87315e-017
    outer loop
      vertex -14.7514 14.4732 12.51
      vertex -15.9659 16.5768 15
      vertex -15.9659 16.5768 12.51
    endloop
  endfacet
  facet normal -0.965926 -0.258819 -4.31994e-017
    outer loop
      vertex -15.9659 16.5768 15
      vertex -16.1391 17.2232 15
      vertex -15.9659 16.5768 12.51
    endloop
  endfacet
  facet normal -0.965926 -0.258819 -4.31994e-017
    outer loop
      vertex -15.9659 16.5768 12.51
      vertex -16.1391 17.2232 15
      vertex -16.1391 17.2232 12.51
    endloop
  endfacet
  facet normal 0.258819 -0.965926 1.15753e-017
    outer loop
      vertex -16.1391 17.2232 12.51
      vertex -16.1391 17.2232 15
      vertex -16.7855 17.05 15
    endloop
  endfacet
  facet normal 0.258819 -0.965926 1.15753e-017
    outer loop
      vertex -16.7855 17.05 12.51
      vertex -16.1391 17.2232 12.51
      vertex -16.7855 17.05 15
    endloop
  endfacet
  facet normal 0 -1 0
    outer loop
      vertex -16.7855 17.05 12.51
      vertex -16.7855 17.05 15
      vertex -19.2145 17.05 15
    endloop
  endfacet
  facet normal 0 -1 0
    outer loop
      vertex -19.2145 17.05 12.51
      vertex -16.7855 17.05 12.51
      vertex -19.2145 17.05 15
    endloop
  endfacet
  facet normal -0.258819 -0.965926 -1.15753e-017
    outer loop
      vertex -19.2145 17.05 12.51
      vertex -19.2145 17.05 15
      vertex -19.8609 17.2232 15
    endloop
  endfacet
  facet normal -0.258819 -0.965926 -1.15753e-017
    outer loop
      vertex -19.8609 17.2232 12.51
      vertex -19.2145 17.05 12.51
      vertex -19.8609 17.2232 15
    endloop
  endfacet
  facet normal 0.965926 -0.258819 4.31994e-017
    outer loop
      vertex -19.8609 17.2232 12.51
      vertex -19.8609 17.2232 15
      vertex -20.0341 16.5768 15
    endloop
  endfacet
  facet normal 0.965926 -0.258819 4.31994e-017
    outer loop
      vertex -20.0341 16.5768 12.51
      vertex -19.8609 17.2232 12.51
      vertex -20.0341 16.5768 15
    endloop
  endfacet
  facet normal 0.866025 -0.5 3.87315e-017
    outer loop
      vertex -20.0341 16.5768 12.51
      vertex -20.0341 16.5768 15
      vertex -21.2486 14.4732 15
    endloop
  endfacet
  facet normal 0.866025 -0.5 3.87315e-017
    outer loop
      vertex -21.2486 14.4732 12.51
      vertex -20.0341 16.5768 12.51
      vertex -21.2486 14.4732 15
    endloop
  endfacet
  facet normal 0.707107 -0.707107 3.16242e-017
    outer loop
      vertex -21.2486 14.4732 12.51
      vertex -21.2486 14.4732 15
      vertex -21.7218 14 15
    endloop
  endfacet
  facet normal 0.707107 -0.707107 3.16242e-017
    outer loop
      vertex -21.7218 14 12.51
      vertex -21.2486 14.4732 12.51
      vertex -21.7218 14 15
    endloop
  endfacet
  facet normal 0.707107 0.707107 3.16242e-017
    outer loop
      vertex -21.7218 14 15
      vertex -21.2486 13.5268 15
      vertex -21.2486 13.5268 12.51
    endloop
  endfacet
  facet normal 0.707107 0.707107 3.16242e-017
    outer loop
      vertex -21.7218 14 12.51
      vertex -21.7218 14 15
      vertex -21.2486 13.5268 12.51
    endloop
  endfacet
  facet normal 0.866025 0.5 3.87315e-017
    outer loop
      vertex -21.2486 13.5268 15
      vertex -20.0341 11.4232 15
      vertex -20.0341 11.4232 12.51
    endloop
  endfacet
  facet normal 0.866025 0.5 3.87315e-017
    outer loop
      vertex -21.2486 13.5268 12.51
      vertex -21.2486 13.5268 15
      vertex -20.0341 11.4232 12.51
    endloop
  endfacet
  facet normal 0.965926 0.258819 4.31994e-017
    outer loop
      vertex -20.0341 11.4232 15
      vertex -19.8609 10.7768 15
      vertex -19.8609 10.7768 12.51
    endloop
  endfacet
  facet normal 0.965926 0.258819 4.31994e-017
    outer loop
      vertex -20.0341 11.4232 12.51
      vertex -20.0341 11.4232 15
      vertex -19.8609 10.7768 12.51
    endloop
  endfacet
  facet normal -0.258819 0.965926 -1.15753e-017
    outer loop
      vertex -19.2145 10.95 15
      vertex -19.2145 10.95 12.51
      vertex -19.8609 10.7768 15
    endloop
  endfacet
  facet normal -0.258819 0.965926 -1.15753e-017
    outer loop
      vertex -19.8609 10.7768 15
      vertex -19.2145 10.95 12.51
      vertex -19.8609 10.7768 12.51
    endloop
  endfacet
  facet normal 0 1 0
    outer loop
      vertex -16.7855 10.95 15
      vertex -16.7855 10.95 12.51
      vertex -19.2145 10.95 15
    endloop
  endfacet
  facet normal 0 1 0
    outer loop
      vertex -19.2145 10.95 15
      vertex -16.7855 10.95 12.51
      vertex -19.2145 10.95 12.51
    endloop
  endfacet
  facet normal -0.587785 0.809017 2.34741e-016
    outer loop
      vertex -21.3604 19.4246 10.6468
      vertex -21.3604 19.4246 14.9433
      vertex -20.3248 20.1771 10.6468
    endloop
  endfacet
  facet normal -0.587785 0.809017 2.34741e-016
    outer loop
      vertex -20.3248 20.1771 10.6468
      vertex -21.3604 19.4246 14.9433
      vertex -19.5 20.7763 14.5041
    endloop
  endfacet
  facet normal -0.587785 0.809017 2.34741e-016
    outer loop
      vertex -20.3248 20.1771 10.6468
      vertex -19.5 20.7763 14.5041
      vertex -19.5 20.7763 11.0822
    endloop
  endfacet
  facet normal -0.406737 0.913545 1.62437e-016
    outer loop
      vertex -19.5 20.7763 11.0822
      vertex -19.5 20.7763 14.5041
      vertex -17.4768 21.6771 11.7366
    endloop
  endfacet
  facet normal -0.406737 0.913545 1.62437e-016
    outer loop
      vertex -17.4768 21.6771 11.7366
      vertex -19.5 20.7763 14.5041
      vertex -18.9675 21.0134 14.4271
    endloop
  endfacet
  facet normal -0.406737 0.913545 1.62437e-016
    outer loop
      vertex -17.4768 21.6771 11.7366
      vertex -18.9675 21.0134 14.4271
      vertex -17.3992 21.7116 13.466
    endloop
  endfacet
  facet normal -0.406737 0.913545 1.62437e-016
    outer loop
      vertex -17.4768 21.6771 11.7366
      vertex -17.3992 21.7116 13.466
      vertex -17.3992 21.7116 11.843
    endloop
  endfacet
  facet normal -0.207912 0.978148 8.30328e-017
    outer loop
      vertex -15.685 22.076 12.9645
      vertex -17.3992 21.7116 11.843
      vertex -17.3992 21.7116 13.466
    endloop
  endfacet
  facet normal 0 1 0
    outer loop
      vertex -18.4635 12.5734 12.51
      vertex -17.5365 12.5734 12.51
      vertex -18.4635 12.5734 10.5
    endloop
  endfacet
  facet normal 0 1 0
    outer loop
      vertex -18.4635 12.5734 10.5
      vertex -17.5365 12.5734 12.51
      vertex -17.5365 12.5734 10.5
    endloop
  endfacet
  facet normal 0.587785 0.809017 -2.34741e-016
    outer loop
      vertex -19.2135 13.1183 12.51
      vertex -18.4635 12.5734 12.51
      vertex -19.2135 13.1183 10.5
    endloop
  endfacet
  facet normal 0.587785 0.809017 -2.34741e-016
    outer loop
      vertex -19.2135 13.1183 10.5
      vertex -18.4635 12.5734 12.51
      vertex -18.4635 12.5734 10.5
    endloop
  endfacet
  facet normal 0.951056 0.309017 -3.79819e-016
    outer loop
      vertex -19.5 14 10.5
      vertex -19.5 14 12.51
      vertex -19.2135 13.1183 12.51
    endloop
  endfacet
  facet normal 0.951056 0.309017 -3.79819e-016
    outer loop
      vertex -19.2135 13.1183 10.5
      vertex -19.5 14 10.5
      vertex -19.2135 13.1183 12.51
    endloop
  endfacet
  facet normal 0.951056 -0.309017 -3.79819e-016
    outer loop
      vertex -19.2135 14.8817 10.5
      vertex -19.2135 14.8817 12.51
      vertex -19.5 14 12.51
    endloop
  endfacet
  facet normal 0.951056 -0.309017 -3.79819e-016
    outer loop
      vertex -19.5 14 10.5
      vertex -19.2135 14.8817 10.5
      vertex -19.5 14 12.51
    endloop
  endfacet
  facet normal 0.587785 -0.809017 -2.34741e-016
    outer loop
      vertex -18.4635 15.4266 10.5
      vertex -18.4635 15.4266 12.51
      vertex -19.2135 14.8817 12.51
    endloop
  endfacet
  facet normal 0.587785 -0.809017 -2.34741e-016
    outer loop
      vertex -19.2135 14.8817 10.5
      vertex -18.4635 15.4266 10.5
      vertex -19.2135 14.8817 12.51
    endloop
  endfacet
  facet normal 0 -1 0
    outer loop
      vertex -17.5365 15.4266 12.51
      vertex -18.4635 15.4266 12.51
      vertex -18.4635 15.4266 10.5
    endloop
  endfacet
  facet normal 0 -1 0
    outer loop
      vertex -17.5365 15.4266 10.5
      vertex -17.5365 15.4266 12.51
      vertex -18.4635 15.4266 10.5
    endloop
  endfacet
  facet normal -0.587785 -0.809017 2.34741e-016
    outer loop
      vertex -16.7865 14.8817 12.51
      vertex -17.5365 15.4266 12.51
      vertex -17.5365 15.4266 10.5
    endloop
  endfacet
  facet normal -0.587785 -0.809017 2.34741e-016
    outer loop
      vertex -16.7865 14.8817 10.5
      vertex -16.7865 14.8817 12.51
      vertex -17.5365 15.4266 10.5
    endloop
  endfacet
  facet normal -0.951056 -0.309017 3.79819e-016
    outer loop
      vertex -16.7865 14.8817 12.51
      vertex -16.7865 14.8817 10.5
      vertex -16.5 14 12.51
    endloop
  endfacet
  facet normal -0.951056 -0.309017 3.79819e-016
    outer loop
      vertex -16.5 14 12.51
      vertex -16.7865 14.8817 10.5
      vertex -16.5 14 10.5
    endloop
  endfacet
  facet normal -0.951056 0.309017 3.79819e-016
    outer loop
      vertex -16.5 14 12.51
      vertex -16.5 14 10.5
      vertex -16.7865 13.1183 12.51
    endloop
  endfacet
  facet normal -0.951056 0.309017 3.79819e-016
    outer loop
      vertex -16.7865 13.1183 12.51
      vertex -16.5 14 10.5
      vertex -16.7865 13.1183 10.5
    endloop
  endfacet
  facet normal -0.587785 0.809017 2.34741e-016
    outer loop
      vertex -16.7865 13.1183 12.51
      vertex -16.7865 13.1183 10.5
      vertex -17.5365 12.5734 12.51
    endloop
  endfacet
  facet normal -0.587785 0.809017 2.34741e-016
    outer loop
      vertex -17.5365 12.5734 12.51
      vertex -16.7865 13.1183 10.5
      vertex -17.5365 12.5734 10.5
    endloop
  endfacet
  facet normal 4.47233e-017 0 1
    outer loop
      vertex -21.2486 13.5268 12.51
      vertex -20.0341 11.4232 12.51
      vertex -19.2145 10.95 12.51
    endloop
  endfacet
  facet normal 4.47233e-017 0 1
    outer loop
      vertex -19.2145 10.95 12.51
      vertex -20.0341 11.4232 12.51
      vertex -19.8609 10.7768 12.51
    endloop
  endfacet
  facet normal 4.47233e-017 0 1
    outer loop
      vertex -21.2486 13.5268 12.51
      vertex -16.7855 10.95 12.51
      vertex -16.1391 10.7768 12.51
    endloop
  endfacet
  facet normal 4.47233e-017 0 1
    outer loop
      vertex -21.2486 13.5268 12.51
      vertex -19.2145 10.95 12.51
      vertex -16.7855 10.95 12.51
    endloop
  endfacet
  facet normal 4.47233e-017 0 1
    outer loop
      vertex -15.9659 11.4232 12.51
      vertex -21.2486 13.5268 12.51
      vertex -16.1391 10.7768 12.51
    endloop
  endfacet
  facet normal 4.47233e-017 0 1
    outer loop
      vertex -18.4635 12.5734 12.51
      vertex -21.2486 13.5268 12.51
      vertex -15.9659 11.4232 12.51
    endloop
  endfacet
  facet normal 4.47233e-017 0 1
    outer loop
      vertex -18.4635 15.4266 12.51
      vertex -17.5365 15.4266 12.51
      vertex -15.9659 16.5768 12.51
    endloop
  endfacet
  facet normal 4.47233e-017 0 1
    outer loop
      vertex -16.7865 14.8817 12.51
      vertex -16.5 14 12.51
      vertex -14.7514 14.4732 12.51
    endloop
  endfacet
  facet normal 4.47233e-017 0 1
    outer loop
      vertex -16.7855 17.05 12.51
      vertex -21.2486 13.5268 12.51
      vertex -16.1391 17.2232 12.51
    endloop
  endfacet
  facet normal 4.47233e-017 0 1
    outer loop
      vertex -19.2145 17.05 12.51
      vertex -21.2486 13.5268 12.51
      vertex -16.7855 17.05 12.51
    endloop
  endfacet
  facet normal 4.47233e-017 0 1
    outer loop
      vertex -20.0341 16.5768 12.51
      vertex -21.2486 13.5268 12.51
      vertex -19.2145 17.05 12.51
    endloop
  endfacet
  facet normal 4.47233e-017 0 1
    outer loop
      vertex -19.8609 17.2232 12.51
      vertex -20.0341 16.5768 12.51
      vertex -19.2145 17.05 12.51
    endloop
  endfacet
  facet normal 4.47233e-017 0 1
    outer loop
      vertex -21.7218 14 12.51
      vertex -21.2486 13.5268 12.51
      vertex -21.2486 14.4732 12.51
    endloop
  endfacet
  facet normal 4.47233e-017 0 1
    outer loop
      vertex -16.5 14 12.51
      vertex -14.7514 13.5268 12.51
      vertex -14.2782 14 12.51
    endloop
  endfacet
  facet normal 4.47233e-017 0 1
    outer loop
      vertex -16.5 14 12.51
      vertex -16.7865 13.1183 12.51
      vertex -14.7514 13.5268 12.51
    endloop
  endfacet
  facet normal 4.47233e-017 0 1
    outer loop
      vertex -16.1391 17.2232 12.51
      vertex -21.2486 13.5268 12.51
      vertex -19.2135 14.8817 12.51
    endloop
  endfacet
  facet normal 4.47233e-017 0 1
    outer loop
      vertex -16.1391 17.2232 12.51
      vertex -18.4635 15.4266 12.51
      vertex -15.9659 16.5768 12.51
    endloop
  endfacet
  facet normal 4.47233e-017 0 1
    outer loop
      vertex -16.1391 17.2232 12.51
      vertex -19.2135 14.8817 12.51
      vertex -18.4635 15.4266 12.51
    endloop
  endfacet
  facet normal 4.47233e-017 0 1
    outer loop
      vertex -15.9659 16.5768 12.51
      vertex -17.5365 15.4266 12.51
      vertex -14.7514 14.4732 12.51
    endloop
  endfacet
  facet normal 4.47233e-017 0 1
    outer loop
      vertex -17.5365 15.4266 12.51
      vertex -16.7865 14.8817 12.51
      vertex -14.7514 14.4732 12.51
    endloop
  endfacet
  facet normal 4.47233e-017 0 1
    outer loop
      vertex -14.7514 14.4732 12.51
      vertex -16.5 14 12.51
      vertex -14.2782 14 12.51
    endloop
  endfacet
  facet normal 4.47233e-017 0 1
    outer loop
      vertex -19.5 14 12.51
      vertex -19.2135 14.8817 12.51
      vertex -21.2486 13.5268 12.51
    endloop
  endfacet
  facet normal 4.47233e-017 0 1
    outer loop
      vertex -14.7514 13.5268 12.51
      vertex -16.7865 13.1183 12.51
      vertex -15.9659 11.4232 12.51
    endloop
  endfacet
  facet normal 4.47233e-017 0 1
    outer loop
      vertex -16.7865 13.1183 12.51
      vertex -17.5365 12.5734 12.51
      vertex -15.9659 11.4232 12.51
    endloop
  endfacet
  facet normal 4.47233e-017 0 1
    outer loop
      vertex -17.5365 12.5734 12.51
      vertex -18.4635 12.5734 12.51
      vertex -15.9659 11.4232 12.51
    endloop
  endfacet
  facet normal 4.47233e-017 0 1
    outer loop
      vertex -20.0341 16.5768 12.51
      vertex -21.2486 14.4732 12.51
      vertex -21.2486 13.5268 12.51
    endloop
  endfacet
  facet normal 4.47233e-017 0 1
    outer loop
      vertex -18.4635 12.5734 12.51
      vertex -19.2135 13.1183 12.51
      vertex -21.2486 13.5268 12.51
    endloop
  endfacet
  facet normal 4.47233e-017 0 1
    outer loop
      vertex -19.2135 13.1183 12.51
      vertex -19.5 14 12.51
      vertex -21.2486 13.5268 12.51
    endloop
  endfacet
endsolid OpenSCAD_Model
