solid OpenSCAD_Model
  facet normal -1 0 0
    outer loop
      vertex -4 -57 0
      vertex -4 -57 13
      vertex -4 -56 0
    endloop
  endfacet
  facet normal -1 0 0
    outer loop
      vertex -4 -56 0
      vertex -4 -57 13
      vertex -4 -56 13
    endloop
  endfacet
  facet normal -0.900969 -0.433884 0
    outer loop
      vertex -4 -57 0
      vertex -3.24698 -58.5637 0
      vertex -4 -57 13
    endloop
  endfacet
  facet normal -0.900969 -0.433884 0
    outer loop
      vertex -4 -57 13
      vertex -3.24698 -58.5637 0
      vertex -3.24698 -58.5637 13
    endloop
  endfacet
  facet normal 0 0 -1
    outer loop
      vertex -4 -57 0
      vertex -4 -56 0
      vertex -3.24698 -58.5637 0
    endloop
  endfacet
  facet normal 0 0 -1
    outer loop
      vertex -3.24698 -58.5637 0
      vertex -4 -56 0
      vertex -3.84828 -56 0
    endloop
  endfacet
  facet normal 0 0 -1
    outer loop
      vertex -3.24698 -58.5637 0
      vertex -3.84828 -56 0
      vertex -3.56366 -54.753 0
    endloop
  endfacet
  facet normal 0 0 -1
    outer loop
      vertex -3.24698 -58.5637 0
      vertex -3.56366 -54.753 0
      vertex -2 -54 0
    endloop
  endfacet
  facet normal 0 0 -1
    outer loop
      vertex -3.24698 -58.5637 0
      vertex -2 -54 0
      vertex 21 -54 0
    endloop
  endfacet
  facet normal 0 0 -1
    outer loop
      vertex 21 -54 0
      vertex 21 -22 0
      vertex 21.1468 -22 0
    endloop
  endfacet
  facet normal 0 0 -1
    outer loop
      vertex 21.1468 -22 0
      vertex 21.1468 -21.0729 0
      vertex 22.2366 -19.5729 0
    endloop
  endfacet
  facet normal 0 0 -1
    outer loop
      vertex 21.1468 -22 0
      vertex 22.2366 -19.5729 0
      vertex 21 -54 0
    endloop
  endfacet
  facet normal 0 0 -1
    outer loop
      vertex 21 -54 0
      vertex 22.2366 -19.5729 0
      vertex 24 -19 0
    endloop
  endfacet
  facet normal 0 0 -1
    outer loop
      vertex 21 -54 0
      vertex 24 -19 0
      vertex 32 -19 0
    endloop
  endfacet
  facet normal 0 0 -1
    outer loop
      vertex 21 -54 0
      vertex 32 -19 0
      vertex 32 -19.1468 0
    endloop
  endfacet
  facet normal 0 0 -1
    outer loop
      vertex 21 -54 0
      vertex 32 -19.1468 0
      vertex 32.9271 -19.1468 0
    endloop
  endfacet
  facet normal 0 0 -1
    outer loop
      vertex 21 -54 0
      vertex 32.9271 -19.1468 0
      vertex 34.4271 -20.2366 0
    endloop
  endfacet
  facet normal 0 0 -1
    outer loop
      vertex 21 -54 0
      vertex 34.4271 -20.2366 0
      vertex 35 -22 0
    endloop
  endfacet
  facet normal 0 0 -1
    outer loop
      vertex 21 -54 0
      vertex 35 -22 0
      vertex 35 -45 0
    endloop
  endfacet
  facet normal 0 0 -1
    outer loop
      vertex 47.4821 -46.0292 0
      vertex 35 -45 0
      vertex 52 -45 0
    endloop
  endfacet
  facet normal 0 0 -1
    outer loop
      vertex 49.2723 -46.7081 0
      vertex 52.9271 -45.1468 0
      vertex 54.4271 -46.2366 0
    endloop
  endfacet
  facet normal 0 0 -1
    outer loop
      vertex 50.5418 -48.1411 0
      vertex 54.4271 -46.2366 0
      vertex 55 -48 0
    endloop
  endfacet
  facet normal 0 0 -1
    outer loop
      vertex 54.8532 -56 0
      vertex 55 -48 0
      vertex 55 -56 0
    endloop
  endfacet
  facet normal 0 0 -1
    outer loop
      vertex 49.2723 -53.2919 0
      vertex 55 -48 0
      vertex 54.8532 -56 0
    endloop
  endfacet
  facet normal 0 0 -1
    outer loop
      vertex 43.1162 -49.0427 0
      vertex 21 -54 0
      vertex 44.006 -47.3475 0
    endloop
  endfacet
  facet normal 0 0 -1
    outer loop
      vertex -3.24698 -58.5637 0
      vertex 54.8532 -56.9271 0
      vertex 53.7634 -58.4271 0
    endloop
  endfacet
  facet normal 0 0 -1
    outer loop
      vertex -3.24698 -58.5637 0
      vertex 53.7634 -58.4271 0
      vertex 52 -59 0
    endloop
  endfacet
  facet normal 0 0 -1
    outer loop
      vertex -2 -58.8483 0
      vertex 52 -59 0
      vertex -2 -59 0
    endloop
  endfacet
  facet normal 0 0 -1
    outer loop
      vertex -3.24698 -58.5637 0
      vertex 52 -59 0
      vertex -2 -58.8483 0
    endloop
  endfacet
  facet normal 0 0 -1
    outer loop
      vertex 43.1162 -50.9573 0
      vertex -3.24698 -58.5637 0
      vertex 21 -54 0
    endloop
  endfacet
  facet normal 0 0 -1
    outer loop
      vertex 49.2723 -53.2919 0
      vertex 54.8532 -56 0
      vertex 47.4821 -53.9708 0
    endloop
  endfacet
  facet normal 0 0 -1
    outer loop
      vertex -3.24698 -58.5637 0
      vertex 43.1162 -50.9573 0
      vertex 44.006 -52.6525 0
    endloop
  endfacet
  facet normal 0 0 -1
    outer loop
      vertex -3.24698 -58.5637 0
      vertex 44.006 -52.6525 0
      vertex 45.5816 -53.7401 0
    endloop
  endfacet
  facet normal 0 0 -1
    outer loop
      vertex -3.24698 -58.5637 0
      vertex 45.5816 -53.7401 0
      vertex 54.8532 -56 0
    endloop
  endfacet
  facet normal 0 0 -1
    outer loop
      vertex 45.5816 -53.7401 0
      vertex 47.4821 -53.9708 0
      vertex 54.8532 -56 0
    endloop
  endfacet
  facet normal 0 0 -1
    outer loop
      vertex 50.5418 -51.8589 0
      vertex 55 -48 0
      vertex 49.2723 -53.2919 0
    endloop
  endfacet
  facet normal 0 0 -1
    outer loop
      vertex 50.5418 -48.1411 0
      vertex 55 -48 0
      vertex 51 -50 0
    endloop
  endfacet
  facet normal 0 0 -1
    outer loop
      vertex 51 -50 0
      vertex 55 -48 0
      vertex 50.5418 -51.8589 0
    endloop
  endfacet
  facet normal 0 0 -1
    outer loop
      vertex 47.4821 -46.0292 0
      vertex 52.9271 -45.1468 0
      vertex 49.2723 -46.7081 0
    endloop
  endfacet
  facet normal 0 0 -1
    outer loop
      vertex 49.2723 -46.7081 0
      vertex 54.4271 -46.2366 0
      vertex 50.5418 -48.1411 0
    endloop
  endfacet
  facet normal 0 0 -1
    outer loop
      vertex 43.1162 -50.9573 0
      vertex 21 -54 0
      vertex 43.1162 -49.0427 0
    endloop
  endfacet
  facet normal 0 0 -1
    outer loop
      vertex 45.5816 -46.2599 0
      vertex 35 -45 0
      vertex 47.4821 -46.0292 0
    endloop
  endfacet
  facet normal 0 0 -1
    outer loop
      vertex 44.006 -47.3475 0
      vertex 21 -54 0
      vertex 45.5816 -46.2599 0
    endloop
  endfacet
  facet normal 0 0 -1
    outer loop
      vertex 21 -54 0
      vertex 35 -45 0
      vertex 45.5816 -46.2599 0
    endloop
  endfacet
  facet normal 0 0 -1
    outer loop
      vertex 54.8532 -56.9271 0
      vertex -3.24698 -58.5637 0
      vertex 54.8532 -56 0
    endloop
  endfacet
  facet normal 0 0 -1
    outer loop
      vertex 47.4821 -46.0292 0
      vertex 52 -45 0
      vertex 52 -45.1468 0
    endloop
  endfacet
  facet normal 0 0 -1
    outer loop
      vertex 47.4821 -46.0292 0
      vertex 52 -45.1468 0
      vertex 52.9271 -45.1468 0
    endloop
  endfacet
  facet normal 1.77321e-016 1 0
    outer loop
      vertex -3.84828 -56 13
      vertex -3.84828 -56 0
      vertex -4 -56 13
    endloop
  endfacet
  facet normal 1.77321e-016 1 0
    outer loop
      vertex -4 -56 13
      vertex -3.84828 -56 0
      vertex -4 -56 0
    endloop
  endfacet
  facet normal 0 0 1
    outer loop
      vertex -4 -56 13
      vertex -4 -57 13
      vertex -3.24698 -58.5637 13
    endloop
  endfacet
  facet normal 0 0 1
    outer loop
      vertex 52 -59 13
      vertex -4 -56 13
      vertex -2 -58.8483 13
    endloop
  endfacet
  facet normal 0 0 1
    outer loop
      vertex -2 -58.8483 13
      vertex -4 -56 13
      vertex -3.24698 -58.5637 13
    endloop
  endfacet
  facet normal 0 0 1
    outer loop
      vertex 52 -59 13
      vertex -2 -58.8483 13
      vertex -2 -59 13
    endloop
  endfacet
  facet normal 0 0 1
    outer loop
      vertex 53.7634 -58.4271 13
      vertex -4 -56 13
      vertex 52 -59 13
    endloop
  endfacet
  facet normal 0 0 1
    outer loop
      vertex 54.8532 -56.9271 13
      vertex -4 -56 13
      vertex 53.7634 -58.4271 13
    endloop
  endfacet
  facet normal 0 0 1
    outer loop
      vertex -3.84828 -56 13
      vertex -4 -56 13
      vertex 54.8532 -56.9271 13
    endloop
  endfacet
  facet normal 0 0 1
    outer loop
      vertex 43.1162 -50.9573 13
      vertex 43.1162 -49.0427 13
      vertex 21 -54 13
    endloop
  endfacet
  facet normal 0 0 1
    outer loop
      vertex 55 -48 13
      vertex 54.8532 -56 13
      vertex 55 -56 13
    endloop
  endfacet
  facet normal 0 0 1
    outer loop
      vertex -3.56366 -54.753 13
      vertex -3.84828 -56 13
      vertex 54.8532 -56 13
    endloop
  endfacet
  facet normal 0 0 1
    outer loop
      vertex 22.2366 -19.5729 13
      vertex 21.1468 -22 13
      vertex 24 -19 13
    endloop
  endfacet
  facet normal 0 0 1
    outer loop
      vertex 49.2723 -46.7081 13
      vertex 50.5418 -48.1411 13
      vertex 54.4271 -46.2366 13
    endloop
  endfacet
  facet normal 0 0 1
    outer loop
      vertex -3.56366 -54.753 13
      vertex 54.8532 -56 13
      vertex 21 -54 13
    endloop
  endfacet
  facet normal 0 0 1
    outer loop
      vertex 47.4821 -53.9708 13
      vertex 21 -54 13
      vertex 54.8532 -56 13
    endloop
  endfacet
  facet normal 0 0 1
    outer loop
      vertex 54.8532 -56 13
      vertex -3.84828 -56 13
      vertex 54.8532 -56.9271 13
    endloop
  endfacet
  facet normal 0 0 1
    outer loop
      vertex 49.2723 -53.2919 13
      vertex 47.4821 -53.9708 13
      vertex 54.8532 -56 13
    endloop
  endfacet
  facet normal 0 0 1
    outer loop
      vertex 47.4821 -46.0292 13
      vertex 49.2723 -46.7081 13
      vertex 52.9271 -45.1468 13
    endloop
  endfacet
  facet normal 0 0 1
    outer loop
      vertex 50.5418 -48.1411 13
      vertex 51 -50 13
      vertex 55 -48 13
    endloop
  endfacet
  facet normal 0 0 1
    outer loop
      vertex 35 -45 13
      vertex 45.5816 -46.2599 13
      vertex 52 -45 13
    endloop
  endfacet
  facet normal 0 0 1
    outer loop
      vertex 52 -45.1468 13
      vertex 47.4821 -46.0292 13
      vertex 52.9271 -45.1468 13
    endloop
  endfacet
  facet normal 0 0 1
    outer loop
      vertex 52.9271 -45.1468 13
      vertex 49.2723 -46.7081 13
      vertex 54.4271 -46.2366 13
    endloop
  endfacet
  facet normal 0 0 1
    outer loop
      vertex 54.4271 -46.2366 13
      vertex 50.5418 -48.1411 13
      vertex 55 -48 13
    endloop
  endfacet
  facet normal 0 0 1
    outer loop
      vertex 55 -48 13
      vertex 51 -50 13
      vertex 54.8532 -56 13
    endloop
  endfacet
  facet normal 0 0 1
    outer loop
      vertex 51 -50 13
      vertex 50.5418 -51.8589 13
      vertex 54.8532 -56 13
    endloop
  endfacet
  facet normal 0 0 1
    outer loop
      vertex 50.5418 -51.8589 13
      vertex 49.2723 -53.2919 13
      vertex 54.8532 -56 13
    endloop
  endfacet
  facet normal 0 0 1
    outer loop
      vertex 45.5816 -53.7401 13
      vertex 21 -54 13
      vertex 47.4821 -53.9708 13
    endloop
  endfacet
  facet normal 0 0 1
    outer loop
      vertex 44.006 -52.6525 13
      vertex 21 -54 13
      vertex 45.5816 -53.7401 13
    endloop
  endfacet
  facet normal 0 0 1
    outer loop
      vertex 43.1162 -50.9573 13
      vertex 21 -54 13
      vertex 44.006 -52.6525 13
    endloop
  endfacet
  facet normal 0 0 1
    outer loop
      vertex -3.56366 -54.753 13
      vertex 21 -54 13
      vertex -2 -54 13
    endloop
  endfacet
  facet normal 0 0 1
    outer loop
      vertex 21.1468 -21.0729 13
      vertex 21.1468 -22 13
      vertex 22.2366 -19.5729 13
    endloop
  endfacet
  facet normal 0 0 1
    outer loop
      vertex 21.1468 -22 13
      vertex 32 -19 13
      vertex 24 -19 13
    endloop
  endfacet
  facet normal 0 0 1
    outer loop
      vertex 21.1468 -22 13
      vertex 32 -19.1468 13
      vertex 32 -19 13
    endloop
  endfacet
  facet normal 0 0 1
    outer loop
      vertex 21.1468 -22 13
      vertex 32.9271 -19.1468 13
      vertex 32 -19.1468 13
    endloop
  endfacet
  facet normal 0 0 1
    outer loop
      vertex 21.1468 -22 13
      vertex 34.4271 -20.2366 13
      vertex 32.9271 -19.1468 13
    endloop
  endfacet
  facet normal 0 0 1
    outer loop
      vertex 21.1468 -22 13
      vertex 35 -22 13
      vertex 34.4271 -20.2366 13
    endloop
  endfacet
  facet normal 0 0 1
    outer loop
      vertex 21.1468 -22 13
      vertex 35 -45 13
      vertex 35 -22 13
    endloop
  endfacet
  facet normal 0 0 1
    outer loop
      vertex 21 -22 13
      vertex 35 -45 13
      vertex 21.1468 -22 13
    endloop
  endfacet
  facet normal 0 0 1
    outer loop
      vertex 45.5816 -46.2599 13
      vertex 52 -45.1468 13
      vertex 52 -45 13
    endloop
  endfacet
  facet normal 0 0 1
    outer loop
      vertex 45.5816 -46.2599 13
      vertex 47.4821 -46.0292 13
      vertex 52 -45.1468 13
    endloop
  endfacet
  facet normal 0 0 1
    outer loop
      vertex 35 -45 13
      vertex 44.006 -47.3475 13
      vertex 45.5816 -46.2599 13
    endloop
  endfacet
  facet normal 0 0 1
    outer loop
      vertex 35 -45 13
      vertex 43.1162 -49.0427 13
      vertex 44.006 -47.3475 13
    endloop
  endfacet
  facet normal 0 0 1
    outer loop
      vertex 35 -45 13
      vertex 21 -54 13
      vertex 43.1162 -49.0427 13
    endloop
  endfacet
  facet normal 0 0 1
    outer loop
      vertex 21 -22 13
      vertex 21 -54 13
      vertex 35 -45 13
    endloop
  endfacet
  facet normal -0.222521 -0.974928 0
    outer loop
      vertex -3.24698 -58.5637 13
      vertex -3.24698 -58.5637 0
      vertex -2 -58.8483 0
    endloop
  endfacet
  facet normal -0.222521 -0.974928 0
    outer loop
      vertex -2 -58.8483 13
      vertex -3.24698 -58.5637 13
      vertex -2 -58.8483 0
    endloop
  endfacet
  facet normal -1 1.22461e-016 0
    outer loop
      vertex -2 -58.8483 13
      vertex -2 -58.8483 0
      vertex -2 -59 13
    endloop
  endfacet
  facet normal -1 1.22461e-016 0
    outer loop
      vertex -2 -59 13
      vertex -2 -58.8483 0
      vertex -2 -59 0
    endloop
  endfacet
  facet normal 0 -1 0
    outer loop
      vertex 6.48441 -59 1.2724
      vertex -2 -59 0
      vertex 52 -59 0
    endloop
  endfacet
  facet normal 0 -1 0
    outer loop
      vertex 6.48441 -59 1.2724
      vertex 4.56327 -59 1.45042
      vertex -2 -59 0
    endloop
  endfacet
  facet normal 0 -1 0
    outer loop
      vertex -2 -59 13
      vertex -2 -59 0
      vertex 0.839391 -59 5.53532
    endloop
  endfacet
  facet normal 0 -1 0
    outer loop
      vertex 10.8955 -59 4.60348
      vertex 9.8798 -59 2.9631
      vertex 52 -59 0
    endloop
  endfacet
  facet normal 0 -1 0
    outer loop
      vertex -2 -59 13
      vertex 0.839391 -59 5.53532
      vertex 0.839391 -59 7.46469
    endloop
  endfacet
  facet normal 0 -1 0
    outer loop
      vertex 11.25 -59 6.5
      vertex 10.8955 -59 4.60348
      vertex 52 -59 0
    endloop
  endfacet
  facet normal 0 -1 0
    outer loop
      vertex -2 -59 13
      vertex 0.839391 -59 7.46469
      vertex 1.53636 -59 9.26377
    endloop
  endfacet
  facet normal 0 -1 0
    outer loop
      vertex 10.8955 -59 8.39652
      vertex 11.25 -59 6.5
      vertex 52 -59 0
    endloop
  endfacet
  facet normal 0 -1 0
    outer loop
      vertex -2 -59 13
      vertex 1.53636 -59 9.26377
      vertex 2.83617 -59 10.6896
    endloop
  endfacet
  facet normal 0 -1 0
    outer loop
      vertex 9.8798 -59 10.0369
      vertex 10.8955 -59 8.39652
      vertex 52 -59 0
    endloop
  endfacet
  facet normal 0 -1 0
    outer loop
      vertex 6.48441 -59 11.7276
      vertex -2 -59 13
      vertex 4.56327 -59 11.5496
    endloop
  endfacet
  facet normal 0 -1 0
    outer loop
      vertex 8.34013 -59 11.1996
      vertex 9.8798 -59 10.0369
      vertex 52 -59 0
    endloop
  endfacet
  facet normal 0 -1 0
    outer loop
      vertex 52 -59 13
      vertex -2 -59 13
      vertex 6.48441 -59 11.7276
    endloop
  endfacet
  facet normal 0 -1 0
    outer loop
      vertex 52 -59 13
      vertex 8.34013 -59 11.1996
      vertex 52 -59 0
    endloop
  endfacet
  facet normal 0 -1 0
    outer loop
      vertex 6.48441 -59 11.7276
      vertex 8.34013 -59 11.1996
      vertex 52 -59 13
    endloop
  endfacet
  facet normal 0 -1 0
    outer loop
      vertex 9.8798 -59 2.9631
      vertex 8.34013 -59 1.80039
      vertex 52 -59 0
    endloop
  endfacet
  facet normal 0 -1 0
    outer loop
      vertex 8.34013 -59 1.80039
      vertex 6.48441 -59 1.2724
      vertex 52 -59 0
    endloop
  endfacet
  facet normal 0 -1 0
    outer loop
      vertex 4.56327 -59 1.45042
      vertex 2.83617 -59 2.31041
      vertex -2 -59 0
    endloop
  endfacet
  facet normal 0 -1 0
    outer loop
      vertex 1.53636 -59 3.73623
      vertex -2 -59 0
      vertex 2.83617 -59 2.31041
    endloop
  endfacet
  facet normal 0 -1 0
    outer loop
      vertex 0.839391 -59 5.53532
      vertex -2 -59 0
      vertex 1.53636 -59 3.73623
    endloop
  endfacet
  facet normal 0 -1 0
    outer loop
      vertex 2.83617 -59 10.6896
      vertex 4.56327 -59 11.5496
      vertex -2 -59 13
    endloop
  endfacet
  facet normal 0.309017 -0.951057 0
    outer loop
      vertex 52 -59 13
      vertex 52 -59 0
      vertex 53.7634 -58.4271 0
    endloop
  endfacet
  facet normal 0.309017 -0.951057 0
    outer loop
      vertex 53.7634 -58.4271 13
      vertex 52 -59 13
      vertex 53.7634 -58.4271 0
    endloop
  endfacet
  facet normal 0.809017 -0.587785 0
    outer loop
      vertex 53.7634 -58.4271 13
      vertex 53.7634 -58.4271 0
      vertex 54.8532 -56.9271 0
    endloop
  endfacet
  facet normal 0.809017 -0.587785 0
    outer loop
      vertex 54.8532 -56.9271 13
      vertex 53.7634 -58.4271 13
      vertex 54.8532 -56.9271 0
    endloop
  endfacet
  facet normal 1 -1.36718e-016 0
    outer loop
      vertex 54.8532 -56.9271 13
      vertex 54.8532 -56.9271 0
      vertex 54.8532 -56 0
    endloop
  endfacet
  facet normal 1 -1.36718e-016 0
    outer loop
      vertex 54.8532 -56 13
      vertex 54.8532 -56.9271 13
      vertex 54.8532 -56 0
    endloop
  endfacet
  facet normal -1.36718e-016 -1 0
    outer loop
      vertex 55 -56 0
      vertex 55 -56 13
      vertex 54.8532 -56 13
    endloop
  endfacet
  facet normal -1.36718e-016 -1 0
    outer loop
      vertex 54.8532 -56 0
      vertex 55 -56 0
      vertex 54.8532 -56 13
    endloop
  endfacet
  facet normal 1 0 0
    outer loop
      vertex 55 -56 13
      vertex 55 -56 0
      vertex 55 -48 0
    endloop
  endfacet
  facet normal 1 0 0
    outer loop
      vertex 55 -48 13
      vertex 55 -56 13
      vertex 55 -48 0
    endloop
  endfacet
  facet normal 0.951057 0.309017 0
    outer loop
      vertex 55 -48 0
      vertex 54.4271 -46.2366 0
      vertex 54.4271 -46.2366 13
    endloop
  endfacet
  facet normal 0.951057 0.309017 0
    outer loop
      vertex 55 -48 13
      vertex 55 -48 0
      vertex 54.4271 -46.2366 13
    endloop
  endfacet
  facet normal 0.587785 0.809017 0
    outer loop
      vertex 52.9271 -45.1468 0
      vertex 52.9271 -45.1468 13
      vertex 54.4271 -46.2366 0
    endloop
  endfacet
  facet normal 0.587785 0.809017 0
    outer loop
      vertex 54.4271 -46.2366 0
      vertex 52.9271 -45.1468 13
      vertex 54.4271 -46.2366 13
    endloop
  endfacet
  facet normal 0 1 0
    outer loop
      vertex 52 -45.1468 0
      vertex 52 -45.1468 13
      vertex 52.9271 -45.1468 0
    endloop
  endfacet
  facet normal 0 1 0
    outer loop
      vertex 52.9271 -45.1468 0
      vertex 52 -45.1468 13
      vertex 52.9271 -45.1468 13
    endloop
  endfacet
  facet normal 1 0 0
    outer loop
      vertex 52 -45 0
      vertex 52 -45 13
      vertex 52 -45.1468 13
    endloop
  endfacet
  facet normal 1 0 0
    outer loop
      vertex 52 -45.1468 0
      vertex 52 -45 0
      vertex 52 -45.1468 13
    endloop
  endfacet
  facet normal 0 1 0
    outer loop
      vertex 35 -45 0
      vertex 35 -45 13
      vertex 52 -45 0
    endloop
  endfacet
  facet normal 0 1 0
    outer loop
      vertex 52 -45 0
      vertex 35 -45 13
      vertex 52 -45 13
    endloop
  endfacet
  facet normal 1 0 0
    outer loop
      vertex 35 -38.0353 1.33939
      vertex 35 -45 0
      vertex 35 -22 0
    endloop
  endfacet
  facet normal 1 0 0
    outer loop
      vertex 35 -39 11.75
      vertex 35 -37.1035 11.3955
      vertex 35 -22 13
    endloop
  endfacet
  facet normal 1 0 0
    outer loop
      vertex 35 -38.0353 1.33939
      vertex 35 -39.9647 1.33939
      vertex 35 -45 0
    endloop
  endfacet
  facet normal 1 0 0
    outer loop
      vertex 35 -45 13
      vertex 35 -45 0
      vertex 35 -44.0496 5.06327
    endloop
  endfacet
  facet normal 1 0 0
    outer loop
      vertex 35 -34.8104 3.33617
      vertex 35 -36.2362 2.03636
      vertex 35 -22 0
    endloop
  endfacet
  facet normal 1 0 0
    outer loop
      vertex 35 -45 13
      vertex 35 -44.0496 5.06327
      vertex 35 -44.2276 6.98441
    endloop
  endfacet
  facet normal 1 0 0
    outer loop
      vertex 35 -45 13
      vertex 35 -44.2276 6.98441
      vertex 35 -43.6996 8.84013
    endloop
  endfacet
  facet normal 1 0 0
    outer loop
      vertex 35 -33.9504 5.06327
      vertex 35 -34.8104 3.33617
      vertex 35 -22 0
    endloop
  endfacet
  facet normal 1 0 0
    outer loop
      vertex 35 -45 13
      vertex 35 -43.6996 8.84013
      vertex 35 -42.5369 10.3798
    endloop
  endfacet
  facet normal 1 0 0
    outer loop
      vertex 35 -33.7724 6.98441
      vertex 35 -33.9504 5.06327
      vertex 35 -22 0
    endloop
  endfacet
  facet normal 1 0 0
    outer loop
      vertex 35 -39 11.75
      vertex 35 -45 13
      vertex 35 -40.8965 11.3955
    endloop
  endfacet
  facet normal 1 0 0
    outer loop
      vertex 35 -35.4631 10.3798
      vertex 35 -34.3004 8.84013
      vertex 35 -22 0
    endloop
  endfacet
  facet normal 1 0 0
    outer loop
      vertex 35 -22 13
      vertex 35 -45 13
      vertex 35 -39 11.75
    endloop
  endfacet
  facet normal 1 0 0
    outer loop
      vertex 35 -34.3004 8.84013
      vertex 35 -33.7724 6.98441
      vertex 35 -22 0
    endloop
  endfacet
  facet normal 1 0 0
    outer loop
      vertex 35 -22 13
      vertex 35 -35.4631 10.3798
      vertex 35 -22 0
    endloop
  endfacet
  facet normal 1 0 0
    outer loop
      vertex 35 -22 13
      vertex 35 -37.1035 11.3955
      vertex 35 -35.4631 10.3798
    endloop
  endfacet
  facet normal 1 0 0
    outer loop
      vertex 35 -36.2362 2.03636
      vertex 35 -38.0353 1.33939
      vertex 35 -22 0
    endloop
  endfacet
  facet normal 1 0 0
    outer loop
      vertex 35 -41.7638 2.03636
      vertex 35 -45 0
      vertex 35 -39.9647 1.33939
    endloop
  endfacet
  facet normal 1 0 0
    outer loop
      vertex 35 -43.1896 3.33617
      vertex 35 -45 0
      vertex 35 -41.7638 2.03636
    endloop
  endfacet
  facet normal 1 0 0
    outer loop
      vertex 35 -44.0496 5.06327
      vertex 35 -45 0
      vertex 35 -43.1896 3.33617
    endloop
  endfacet
  facet normal 1 0 0
    outer loop
      vertex 35 -42.5369 10.3798
      vertex 35 -40.8965 11.3955
      vertex 35 -45 13
    endloop
  endfacet
  facet normal 0.951057 0.309017 0
    outer loop
      vertex 35 -22 0
      vertex 34.4271 -20.2366 0
      vertex 34.4271 -20.2366 13
    endloop
  endfacet
  facet normal 0.951057 0.309017 0
    outer loop
      vertex 35 -22 13
      vertex 35 -22 0
      vertex 34.4271 -20.2366 13
    endloop
  endfacet
  facet normal 0.587785 0.809017 0
    outer loop
      vertex 32.9271 -19.1468 0
      vertex 32.9271 -19.1468 13
      vertex 34.4271 -20.2366 0
    endloop
  endfacet
  facet normal 0.587785 0.809017 0
    outer loop
      vertex 34.4271 -20.2366 0
      vertex 32.9271 -19.1468 13
      vertex 34.4271 -20.2366 13
    endloop
  endfacet
  facet normal 0 1 0
    outer loop
      vertex 32 -19.1468 0
      vertex 32 -19.1468 13
      vertex 32.9271 -19.1468 0
    endloop
  endfacet
  facet normal 0 1 0
    outer loop
      vertex 32.9271 -19.1468 0
      vertex 32 -19.1468 13
      vertex 32.9271 -19.1468 13
    endloop
  endfacet
  facet normal 1 0 0
    outer loop
      vertex 32 -19 0
      vertex 32 -19 13
      vertex 32 -19.1468 13
    endloop
  endfacet
  facet normal 1 0 0
    outer loop
      vertex 32 -19.1468 0
      vertex 32 -19 0
      vertex 32 -19.1468 13
    endloop
  endfacet
  facet normal 0 1 0
    outer loop
      vertex 24 -19 0
      vertex 24 -19 13
      vertex 32 -19 0
    endloop
  endfacet
  facet normal 0 1 0
    outer loop
      vertex 32 -19 0
      vertex 24 -19 13
      vertex 32 -19 13
    endloop
  endfacet
  facet normal -0.309017 0.951057 0
    outer loop
      vertex 22.2366 -19.5729 0
      vertex 22.2366 -19.5729 13
      vertex 24 -19 0
    endloop
  endfacet
  facet normal -0.309017 0.951057 0
    outer loop
      vertex 24 -19 0
      vertex 22.2366 -19.5729 13
      vertex 24 -19 13
    endloop
  endfacet
  facet normal -0.809017 0.587785 0
    outer loop
      vertex 21.1468 -21.0729 0
      vertex 21.1468 -21.0729 13
      vertex 22.2366 -19.5729 0
    endloop
  endfacet
  facet normal -0.809017 0.587785 0
    outer loop
      vertex 22.2366 -19.5729 0
      vertex 21.1468 -21.0729 13
      vertex 22.2366 -19.5729 13
    endloop
  endfacet
  facet normal -1 1.77321e-016 0
    outer loop
      vertex 21.1468 -22 0
      vertex 21.1468 -22 13
      vertex 21.1468 -21.0729 0
    endloop
  endfacet
  facet normal -1 1.77321e-016 0
    outer loop
      vertex 21.1468 -21.0729 0
      vertex 21.1468 -22 13
      vertex 21.1468 -21.0729 13
    endloop
  endfacet
  facet normal 1.77321e-016 1 0
    outer loop
      vertex 21.1468 -22 13
      vertex 21.1468 -22 0
      vertex 21 -22 13
    endloop
  endfacet
  facet normal 1.77321e-016 1 0
    outer loop
      vertex 21 -22 13
      vertex 21.1468 -22 0
      vertex 21 -22 0
    endloop
  endfacet
  facet normal -1 0 0
    outer loop
      vertex 21 -36.5438 4.3717
      vertex 21 -22 0
      vertex 21 -38.0844 3.38165
    endloop
  endfacet
  facet normal -1 0 0
    outer loop
      vertex 21 -39 9.75
      vertex 21 -54 13
      vertex 21 -22 13
    endloop
  endfacet
  facet normal -1 0 0
    outer loop
      vertex 21 -54 0
      vertex 21 -54 13
      vertex 21 -41.9563 7.8501
    endloop
  endfacet
  facet normal -1 0 0
    outer loop
      vertex 21 -54 0
      vertex 21 -41.9563 7.8501
      vertex 21 -42.2169 6.03748
    endloop
  endfacet
  facet normal -1 0 0
    outer loop
      vertex 21 -54 0
      vertex 21 -42.2169 6.03748
      vertex 21 -41.4562 4.3717
    endloop
  endfacet
  facet normal -1 0 0
    outer loop
      vertex 21 -54 0
      vertex 21 -41.4562 4.3717
      vertex 21 -39.9156 3.38165
    endloop
  endfacet
  facet normal -1 0 0
    outer loop
      vertex 21 -54 0
      vertex 21 -39.9156 3.38165
      vertex 21 -22 0
    endloop
  endfacet
  facet normal -1 0 0
    outer loop
      vertex 21 -39.9156 3.38165
      vertex 21 -38.0844 3.38165
      vertex 21 -22 0
    endloop
  endfacet
  facet normal -1 0 0
    outer loop
      vertex 21 -35.7831 6.03748
      vertex 21 -22 0
      vertex 21 -36.5438 4.3717
    endloop
  endfacet
  facet normal -1 0 0
    outer loop
      vertex 21 -22 0
      vertex 21 -35.7831 6.03748
      vertex 21 -22 13
    endloop
  endfacet
  facet normal -1 0 0
    outer loop
      vertex 21 -35.7831 6.03748
      vertex 21 -36.0437 7.8501
      vertex 21 -22 13
    endloop
  endfacet
  facet normal -1 0 0
    outer loop
      vertex 21 -36.0437 7.8501
      vertex 21 -37.2429 9.23407
      vertex 21 -22 13
    endloop
  endfacet
  facet normal -1 0 0
    outer loop
      vertex 21 -37.2429 9.23407
      vertex 21 -39 9.75
      vertex 21 -22 13
    endloop
  endfacet
  facet normal -1 0 0
    outer loop
      vertex 21 -41.9563 7.8501
      vertex 21 -54 13
      vertex 21 -40.7571 9.23407
    endloop
  endfacet
  facet normal -1 0 0
    outer loop
      vertex 21 -40.7571 9.23407
      vertex 21 -54 13
      vertex 21 -39 9.75
    endloop
  endfacet
  facet normal 0 1 0
    outer loop
      vertex 7.3501 -54 9.4563
      vertex -2 -54 13
      vertex 21 -54 13
    endloop
  endfacet
  facet normal 0 1 0
    outer loop
      vertex -2 -54 0
      vertex -2 -54 13
      vertex 2.88165 -54 7.41563
    endloop
  endfacet
  facet normal 0 1 0
    outer loop
      vertex -2 -54 0
      vertex 2.88165 -54 7.41563
      vertex 2.88165 -54 5.58437
    endloop
  endfacet
  facet normal 0 1 0
    outer loop
      vertex -2 -54 0
      vertex 2.88165 -54 5.58437
      vertex 3.8717 -54 4.04381
    endloop
  endfacet
  facet normal 0 1 0
    outer loop
      vertex -2 -54 0
      vertex 3.8717 -54 4.04381
      vertex 5.53748 -54 3.28308
    endloop
  endfacet
  facet normal 0 1 0
    outer loop
      vertex -2 -54 0
      vertex 5.53748 -54 3.28308
      vertex 21 -54 0
    endloop
  endfacet
  facet normal 0 1 0
    outer loop
      vertex 8.73407 -54 4.74292
      vertex 21 -54 0
      vertex 7.3501 -54 3.5437
    endloop
  endfacet
  facet normal 0 1 0
    outer loop
      vertex 9.25 -54 6.5
      vertex 21 -54 0
      vertex 8.73407 -54 4.74292
    endloop
  endfacet
  facet normal 0 1 0
    outer loop
      vertex 8.73407 -54 8.25708
      vertex 21 -54 0
      vertex 9.25 -54 6.5
    endloop
  endfacet
  facet normal 0 1 0
    outer loop
      vertex 3.8717 -54 8.95619
      vertex -2 -54 13
      vertex 5.53748 -54 9.71692
    endloop
  endfacet
  facet normal 0 1 0
    outer loop
      vertex 21 -54 0
      vertex 8.73407 -54 8.25708
      vertex 21 -54 13
    endloop
  endfacet
  facet normal 0 1 0
    outer loop
      vertex 5.53748 -54 9.71692
      vertex -2 -54 13
      vertex 7.3501 -54 9.4563
    endloop
  endfacet
  facet normal 0 1 0
    outer loop
      vertex 8.73407 -54 8.25708
      vertex 7.3501 -54 9.4563
      vertex 21 -54 13
    endloop
  endfacet
  facet normal 0 1 0
    outer loop
      vertex 2.88165 -54 7.41563
      vertex -2 -54 13
      vertex 3.8717 -54 8.95619
    endloop
  endfacet
  facet normal 0 1 0
    outer loop
      vertex 7.3501 -54 3.5437
      vertex 21 -54 0
      vertex 5.53748 -54 3.28308
    endloop
  endfacet
  facet normal -0.433884 0.900969 0
    outer loop
      vertex -3.56366 -54.753 0
      vertex -3.56366 -54.753 13
      vertex -2 -54 0
    endloop
  endfacet
  facet normal -0.433884 0.900969 0
    outer loop
      vertex -2 -54 0
      vertex -3.56366 -54.753 13
      vertex -2 -54 13
    endloop
  endfacet
  facet normal -0.974928 0.222521 0
    outer loop
      vertex -3.84828 -56 0
      vertex -3.84828 -56 13
      vertex -3.56366 -54.753 0
    endloop
  endfacet
  facet normal -0.974928 0.222521 0
    outer loop
      vertex -3.56366 -54.753 0
      vertex -3.84828 -56 13
      vertex -3.56366 -54.753 13
    endloop
  endfacet
  facet normal 1 0 0
    outer loop
      vertex 43.1162 -49.0427 0
      vertex 43.1162 -49.0427 13
      vertex 43.1162 -50.9573 13
    endloop
  endfacet
  facet normal 1 0 0
    outer loop
      vertex 43.1162 -50.9573 0
      vertex 43.1162 -49.0427 0
      vertex 43.1162 -50.9573 13
    endloop
  endfacet
  facet normal 0.885456 -0.464723 0
    outer loop
      vertex 44.006 -47.3475 0
      vertex 44.006 -47.3475 13
      vertex 43.1162 -49.0427 13
    endloop
  endfacet
  facet normal 0.885456 -0.464723 0
    outer loop
      vertex 43.1162 -49.0427 0
      vertex 44.006 -47.3475 0
      vertex 43.1162 -49.0427 13
    endloop
  endfacet
  facet normal 0.568065 -0.822984 0
    outer loop
      vertex 45.5816 -46.2599 0
      vertex 45.5816 -46.2599 13
      vertex 44.006 -47.3475 13
    endloop
  endfacet
  facet normal 0.568065 -0.822984 0
    outer loop
      vertex 44.006 -47.3475 0
      vertex 45.5816 -46.2599 0
      vertex 44.006 -47.3475 13
    endloop
  endfacet
  facet normal 0.120536 -0.992709 0
    outer loop
      vertex 47.4821 -46.0292 0
      vertex 47.4821 -46.0292 13
      vertex 45.5816 -46.2599 13
    endloop
  endfacet
  facet normal 0.120536 -0.992709 0
    outer loop
      vertex 45.5816 -46.2599 0
      vertex 47.4821 -46.0292 0
      vertex 45.5816 -46.2599 13
    endloop
  endfacet
  facet normal -0.354605 -0.935016 0
    outer loop
      vertex 49.2723 -46.7081 0
      vertex 49.2723 -46.7081 13
      vertex 47.4821 -46.0292 13
    endloop
  endfacet
  facet normal -0.354605 -0.935016 0
    outer loop
      vertex 47.4821 -46.0292 0
      vertex 49.2723 -46.7081 0
      vertex 47.4821 -46.0292 13
    endloop
  endfacet
  facet normal -0.748511 -0.663123 0
    outer loop
      vertex 50.5418 -48.1411 13
      vertex 49.2723 -46.7081 13
      vertex 50.5418 -48.1411 0
    endloop
  endfacet
  facet normal -0.748511 -0.663123 0
    outer loop
      vertex 50.5418 -48.1411 0
      vertex 49.2723 -46.7081 13
      vertex 49.2723 -46.7081 0
    endloop
  endfacet
  facet normal -0.970942 -0.239316 0
    outer loop
      vertex 51 -50 13
      vertex 50.5418 -48.1411 13
      vertex 51 -50 0
    endloop
  endfacet
  facet normal -0.970942 -0.239316 0
    outer loop
      vertex 51 -50 0
      vertex 50.5418 -48.1411 13
      vertex 50.5418 -48.1411 0
    endloop
  endfacet
  facet normal -0.970942 0.239316 0
    outer loop
      vertex 51 -50 13
      vertex 51 -50 0
      vertex 50.5418 -51.8589 13
    endloop
  endfacet
  facet normal -0.970942 0.239316 0
    outer loop
      vertex 50.5418 -51.8589 13
      vertex 51 -50 0
      vertex 50.5418 -51.8589 0
    endloop
  endfacet
  facet normal -0.748511 0.663123 0
    outer loop
      vertex 50.5418 -51.8589 13
      vertex 50.5418 -51.8589 0
      vertex 49.2723 -53.2919 13
    endloop
  endfacet
  facet normal -0.748511 0.663123 0
    outer loop
      vertex 49.2723 -53.2919 13
      vertex 50.5418 -51.8589 0
      vertex 49.2723 -53.2919 0
    endloop
  endfacet
  facet normal -0.354605 0.935016 0
    outer loop
      vertex 49.2723 -53.2919 13
      vertex 49.2723 -53.2919 0
      vertex 47.4821 -53.9708 13
    endloop
  endfacet
  facet normal -0.354605 0.935016 0
    outer loop
      vertex 47.4821 -53.9708 13
      vertex 49.2723 -53.2919 0
      vertex 47.4821 -53.9708 0
    endloop
  endfacet
  facet normal 0.120536 0.992709 0
    outer loop
      vertex 47.4821 -53.9708 13
      vertex 47.4821 -53.9708 0
      vertex 45.5816 -53.7401 13
    endloop
  endfacet
  facet normal 0.120536 0.992709 0
    outer loop
      vertex 45.5816 -53.7401 13
      vertex 47.4821 -53.9708 0
      vertex 45.5816 -53.7401 0
    endloop
  endfacet
  facet normal 0.568065 0.822984 0
    outer loop
      vertex 45.5816 -53.7401 13
      vertex 45.5816 -53.7401 0
      vertex 44.006 -52.6525 13
    endloop
  endfacet
  facet normal 0.568065 0.822984 0
    outer loop
      vertex 44.006 -52.6525 13
      vertex 45.5816 -53.7401 0
      vertex 44.006 -52.6525 0
    endloop
  endfacet
  facet normal 0.885456 0.464723 0
    outer loop
      vertex 43.1162 -50.9573 13
      vertex 44.006 -52.6525 13
      vertex 44.006 -52.6525 0
    endloop
  endfacet
  facet normal 0.885456 0.464723 0
    outer loop
      vertex 43.1162 -50.9573 0
      vertex 43.1162 -50.9573 13
      vertex 44.006 -52.6525 0
    endloop
  endfacet
  facet normal 0.932472 -8.02118e-017 0.361242
    outer loop
      vertex 1.53636 -59 3.73623
      vertex 1.53636 -57.8 3.73623
      vertex 0.839391 -57.8 5.53532
    endloop
  endfacet
  facet normal 0.932472 -8.02118e-017 0.361242
    outer loop
      vertex 0.839391 -59 5.53532
      vertex 1.53636 -59 3.73623
      vertex 0.839391 -57.8 5.53532
    endloop
  endfacet
  facet normal 1 0 0
    outer loop
      vertex 0.839391 -57.8 5.53532
      vertex 0.839391 -57.8 7.46469
      vertex 0.839391 -59 7.46469
    endloop
  endfacet
  facet normal 1 0 0
    outer loop
      vertex 0.839391 -59 5.53532
      vertex 0.839391 -57.8 5.53532
      vertex 0.839391 -59 7.46469
    endloop
  endfacet
  facet normal 0.739009 -1.49591e-016 0.673696
    outer loop
      vertex 2.83617 -59 2.31041
      vertex 2.83617 -57.8 2.31041
      vertex 1.53636 -57.8 3.73623
    endloop
  endfacet
  facet normal 0.739009 -1.49591e-016 0.673696
    outer loop
      vertex 1.53636 -59 3.73623
      vertex 2.83617 -59 2.31041
      vertex 1.53636 -57.8 3.73623
    endloop
  endfacet
  facet normal 0.445739 -1.98766e-016 0.895163
    outer loop
      vertex 4.56327 -59 1.45042
      vertex 4.56327 -57.8 1.45042
      vertex 2.83617 -57.8 2.31041
    endloop
  endfacet
  facet normal 0.445739 -1.98766e-016 0.895163
    outer loop
      vertex 2.83617 -59 2.31041
      vertex 4.56327 -59 1.45042
      vertex 2.83617 -57.8 2.31041
    endloop
  endfacet
  facet normal 0.0922679 -2.21097e-016 0.995734
    outer loop
      vertex 6.48441 -59 1.2724
      vertex 6.48441 -57.8 1.2724
      vertex 4.56327 -57.8 1.45042
    endloop
  endfacet
  facet normal 0.0922679 -2.21097e-016 0.995734
    outer loop
      vertex 4.56327 -59 1.45042
      vertex 6.48441 -59 1.2724
      vertex 4.56327 -57.8 1.45042
    endloop
  endfacet
  facet normal -0.273663 -2.13568e-016 0.961826
    outer loop
      vertex 8.34013 -59 1.80039
      vertex 8.34013 -57.8 1.80039
      vertex 6.48441 -57.8 1.2724
    endloop
  endfacet
  facet normal -0.273663 -2.13568e-016 0.961826
    outer loop
      vertex 6.48441 -59 1.2724
      vertex 8.34013 -59 1.80039
      vertex 6.48441 -57.8 1.2724
    endloop
  endfacet
  facet normal -0.602634 -1.77195e-016 0.798017
    outer loop
      vertex 9.8798 -59 2.9631
      vertex 9.8798 -57.8 2.9631
      vertex 8.34013 -57.8 1.80039
    endloop
  endfacet
  facet normal -0.602634 -1.77195e-016 0.798017
    outer loop
      vertex 8.34013 -59 1.80039
      vertex 9.8798 -59 2.9631
      vertex 8.34013 -57.8 1.80039
    endloop
  endfacet
  facet normal -0.850217 -1.16891e-016 0.526432
    outer loop
      vertex 10.8955 -57.8 4.60348
      vertex 9.8798 -57.8 2.9631
      vertex 10.8955 -59 4.60348
    endloop
  endfacet
  facet normal -0.850217 -1.16891e-016 0.526432
    outer loop
      vertex 10.8955 -59 4.60348
      vertex 9.8798 -57.8 2.9631
      vertex 9.8798 -59 2.9631
    endloop
  endfacet
  facet normal -0.982973 -4.08006e-017 0.18375
    outer loop
      vertex 11.25 -57.8 6.5
      vertex 10.8955 -57.8 4.60348
      vertex 11.25 -59 6.5
    endloop
  endfacet
  facet normal -0.982973 -4.08006e-017 0.18375
    outer loop
      vertex 11.25 -59 6.5
      vertex 10.8955 -57.8 4.60348
      vertex 10.8955 -59 4.60348
    endloop
  endfacet
  facet normal -0.982973 4.08006e-017 -0.18375
    outer loop
      vertex 11.25 -57.8 6.5
      vertex 11.25 -59 6.5
      vertex 10.8955 -57.8 8.39652
    endloop
  endfacet
  facet normal -0.982973 4.08006e-017 -0.18375
    outer loop
      vertex 10.8955 -57.8 8.39652
      vertex 11.25 -59 6.5
      vertex 10.8955 -59 8.39652
    endloop
  endfacet
  facet normal -0.850217 1.16891e-016 -0.526432
    outer loop
      vertex 10.8955 -57.8 8.39652
      vertex 10.8955 -59 8.39652
      vertex 9.8798 -57.8 10.0369
    endloop
  endfacet
  facet normal -0.850217 1.16891e-016 -0.526432
    outer loop
      vertex 9.8798 -57.8 10.0369
      vertex 10.8955 -59 8.39652
      vertex 9.8798 -59 10.0369
    endloop
  endfacet
  facet normal -0.602634 1.77195e-016 -0.798017
    outer loop
      vertex 9.8798 -57.8 10.0369
      vertex 9.8798 -59 10.0369
      vertex 8.34013 -57.8 11.1996
    endloop
  endfacet
  facet normal -0.602634 1.77195e-016 -0.798017
    outer loop
      vertex 8.34013 -57.8 11.1996
      vertex 9.8798 -59 10.0369
      vertex 8.34013 -59 11.1996
    endloop
  endfacet
  facet normal -0.273663 2.13568e-016 -0.961826
    outer loop
      vertex 8.34013 -57.8 11.1996
      vertex 8.34013 -59 11.1996
      vertex 6.48441 -57.8 11.7276
    endloop
  endfacet
  facet normal -0.273663 2.13568e-016 -0.961826
    outer loop
      vertex 6.48441 -57.8 11.7276
      vertex 8.34013 -59 11.1996
      vertex 6.48441 -59 11.7276
    endloop
  endfacet
  facet normal 0.0922679 2.21097e-016 -0.995734
    outer loop
      vertex 6.48441 -57.8 11.7276
      vertex 6.48441 -59 11.7276
      vertex 4.56327 -57.8 11.5496
    endloop
  endfacet
  facet normal 0.0922679 2.21097e-016 -0.995734
    outer loop
      vertex 4.56327 -57.8 11.5496
      vertex 6.48441 -59 11.7276
      vertex 4.56327 -59 11.5496
    endloop
  endfacet
  facet normal 0.445739 1.98766e-016 -0.895163
    outer loop
      vertex 4.56327 -57.8 11.5496
      vertex 4.56327 -59 11.5496
      vertex 2.83617 -57.8 10.6896
    endloop
  endfacet
  facet normal 0.445739 1.98766e-016 -0.895163
    outer loop
      vertex 2.83617 -57.8 10.6896
      vertex 4.56327 -59 11.5496
      vertex 2.83617 -59 10.6896
    endloop
  endfacet
  facet normal 0.739009 1.49591e-016 -0.673696
    outer loop
      vertex 1.53636 -57.8 9.26377
      vertex 2.83617 -57.8 10.6896
      vertex 2.83617 -59 10.6896
    endloop
  endfacet
  facet normal 0.739009 1.49591e-016 -0.673696
    outer loop
      vertex 1.53636 -59 9.26377
      vertex 1.53636 -57.8 9.26377
      vertex 2.83617 -59 10.6896
    endloop
  endfacet
  facet normal 0.932472 8.02118e-017 -0.361242
    outer loop
      vertex 0.839391 -57.8 7.46469
      vertex 1.53636 -57.8 9.26377
      vertex 1.53636 -59 9.26377
    endloop
  endfacet
  facet normal 0.932472 8.02118e-017 -0.361242
    outer loop
      vertex 0.839391 -59 7.46469
      vertex 0.839391 -57.8 7.46469
      vertex 1.53636 -59 9.26377
    endloop
  endfacet
  facet normal 9.89739e-017 0.895163 0.445739
    outer loop
      vertex 35 -44.0496 5.06327
      vertex 35 -43.1896 3.33617
      vertex 28.8 -44.0496 5.06327
    endloop
  endfacet
  facet normal 9.89739e-017 0.895163 0.445739
    outer loop
      vertex 28.8 -44.0496 5.06327
      vertex 35 -43.1896 3.33617
      vertex 28.8 -43.1896 3.33617
    endloop
  endfacet
  facet normal 2.04876e-017 0.995734 0.0922679
    outer loop
      vertex 35 -44.2276 6.98441
      vertex 35 -44.0496 5.06327
      vertex 28.8 -44.2276 6.98441
    endloop
  endfacet
  facet normal 2.04876e-017 0.995734 0.0922679
    outer loop
      vertex 28.8 -44.2276 6.98441
      vertex 35 -44.0496 5.06327
      vertex 28.8 -44.0496 5.06327
    endloop
  endfacet
  facet normal 1.64093e-016 0.673696 0.739009
    outer loop
      vertex 28.8 -43.1896 3.33617
      vertex 35 -43.1896 3.33617
      vertex 35 -41.7638 2.03636
    endloop
  endfacet
  facet normal 1.64093e-016 0.673696 0.739009
    outer loop
      vertex 28.8 -41.7638 2.03636
      vertex 28.8 -43.1896 3.33617
      vertex 35 -41.7638 2.03636
    endloop
  endfacet
  facet normal 2.0705e-016 0.361242 0.932472
    outer loop
      vertex 28.8 -41.7638 2.03636
      vertex 35 -41.7638 2.03636
      vertex 35 -39.9647 1.33939
    endloop
  endfacet
  facet normal 2.0705e-016 0.361242 0.932472
    outer loop
      vertex 28.8 -39.9647 1.33939
      vertex 28.8 -41.7638 2.03636
      vertex 35 -39.9647 1.33939
    endloop
  endfacet
  facet normal 2.22045e-016 0 1
    outer loop
      vertex 35 -39.9647 1.33939
      vertex 35 -38.0353 1.33939
      vertex 28.8 -38.0353 1.33939
    endloop
  endfacet
  facet normal 2.22045e-016 0 1
    outer loop
      vertex 28.8 -39.9647 1.33939
      vertex 35 -39.9647 1.33939
      vertex 28.8 -38.0353 1.33939
    endloop
  endfacet
  facet normal 2.0705e-016 -0.361242 0.932472
    outer loop
      vertex 35 -38.0353 1.33939
      vertex 35 -36.2362 2.03636
      vertex 28.8 -36.2362 2.03636
    endloop
  endfacet
  facet normal 2.0705e-016 -0.361242 0.932472
    outer loop
      vertex 28.8 -38.0353 1.33939
      vertex 35 -38.0353 1.33939
      vertex 28.8 -36.2362 2.03636
    endloop
  endfacet
  facet normal 1.64093e-016 -0.673696 0.739009
    outer loop
      vertex 35 -36.2362 2.03636
      vertex 35 -34.8104 3.33617
      vertex 28.8 -34.8104 3.33617
    endloop
  endfacet
  facet normal 1.64093e-016 -0.673696 0.739009
    outer loop
      vertex 28.8 -36.2362 2.03636
      vertex 35 -36.2362 2.03636
      vertex 28.8 -34.8104 3.33617
    endloop
  endfacet
  facet normal 9.89739e-017 -0.895163 0.445739
    outer loop
      vertex 35 -34.8104 3.33617
      vertex 35 -33.9504 5.06327
      vertex 28.8 -33.9504 5.06327
    endloop
  endfacet
  facet normal 9.89739e-017 -0.895163 0.445739
    outer loop
      vertex 28.8 -34.8104 3.33617
      vertex 35 -34.8104 3.33617
      vertex 28.8 -33.9504 5.06327
    endloop
  endfacet
  facet normal 2.04876e-017 -0.995734 0.0922679
    outer loop
      vertex 35 -33.9504 5.06327
      vertex 35 -33.7724 6.98441
      vertex 28.8 -33.7724 6.98441
    endloop
  endfacet
  facet normal 2.04876e-017 -0.995734 0.0922679
    outer loop
      vertex 28.8 -33.9504 5.06327
      vertex 35 -33.9504 5.06327
      vertex 28.8 -33.7724 6.98441
    endloop
  endfacet
  facet normal -6.07654e-017 -0.961826 -0.273663
    outer loop
      vertex 35 -33.7724 6.98441
      vertex 35 -34.3004 8.84013
      vertex 28.8 -34.3004 8.84013
    endloop
  endfacet
  facet normal -6.07654e-017 -0.961826 -0.273663
    outer loop
      vertex 28.8 -33.7724 6.98441
      vertex 35 -33.7724 6.98441
      vertex 28.8 -34.3004 8.84013
    endloop
  endfacet
  facet normal -1.33812e-016 -0.798017 -0.602634
    outer loop
      vertex 35 -34.3004 8.84013
      vertex 35 -35.4631 10.3798
      vertex 28.8 -35.4631 10.3798
    endloop
  endfacet
  facet normal -1.33812e-016 -0.798017 -0.602634
    outer loop
      vertex 28.8 -34.3004 8.84013
      vertex 35 -34.3004 8.84013
      vertex 28.8 -35.4631 10.3798
    endloop
  endfacet
  facet normal -1.88786e-016 -0.526432 -0.850217
    outer loop
      vertex 35 -37.1035 11.3955
      vertex 28.8 -37.1035 11.3955
      vertex 35 -35.4631 10.3798
    endloop
  endfacet
  facet normal -1.88786e-016 -0.526432 -0.850217
    outer loop
      vertex 35 -35.4631 10.3798
      vertex 28.8 -37.1035 11.3955
      vertex 28.8 -35.4631 10.3798
    endloop
  endfacet
  facet normal -2.18264e-016 -0.18375 -0.982973
    outer loop
      vertex 35 -39 11.75
      vertex 28.8 -39 11.75
      vertex 35 -37.1035 11.3955
    endloop
  endfacet
  facet normal -2.18264e-016 -0.18375 -0.982973
    outer loop
      vertex 35 -37.1035 11.3955
      vertex 28.8 -39 11.75
      vertex 28.8 -37.1035 11.3955
    endloop
  endfacet
  facet normal -2.18264e-016 0.18375 -0.982973
    outer loop
      vertex 35 -39 11.75
      vertex 35 -40.8965 11.3955
      vertex 28.8 -39 11.75
    endloop
  endfacet
  facet normal -2.18264e-016 0.18375 -0.982973
    outer loop
      vertex 28.8 -39 11.75
      vertex 35 -40.8965 11.3955
      vertex 28.8 -40.8965 11.3955
    endloop
  endfacet
  facet normal -1.88786e-016 0.526432 -0.850217
    outer loop
      vertex 35 -40.8965 11.3955
      vertex 35 -42.5369 10.3798
      vertex 28.8 -40.8965 11.3955
    endloop
  endfacet
  facet normal -1.88786e-016 0.526432 -0.850217
    outer loop
      vertex 28.8 -40.8965 11.3955
      vertex 35 -42.5369 10.3798
      vertex 28.8 -42.5369 10.3798
    endloop
  endfacet
  facet normal -1.33812e-016 0.798017 -0.602634
    outer loop
      vertex 35 -42.5369 10.3798
      vertex 35 -43.6996 8.84013
      vertex 28.8 -42.5369 10.3798
    endloop
  endfacet
  facet normal -1.33812e-016 0.798017 -0.602634
    outer loop
      vertex 28.8 -42.5369 10.3798
      vertex 35 -43.6996 8.84013
      vertex 28.8 -43.6996 8.84013
    endloop
  endfacet
  facet normal -6.07654e-017 0.961826 -0.273663
    outer loop
      vertex 35 -43.6996 8.84013
      vertex 35 -44.2276 6.98441
      vertex 28.8 -43.6996 8.84013
    endloop
  endfacet
  facet normal -6.07654e-017 0.961826 -0.273663
    outer loop
      vertex 28.8 -43.6996 8.84013
      vertex 35 -44.2276 6.98441
      vertex 28.8 -44.2276 6.98441
    endloop
  endfacet
  facet normal -1.45408e-016 0.75575 -0.654861
    outer loop
      vertex 28.8 -40.7571 9.23407
      vertex 28.8 -41.9563 7.8501
      vertex 21 -40.7571 9.23407
    endloop
  endfacet
  facet normal -1.45408e-016 0.75575 -0.654861
    outer loop
      vertex 21 -40.7571 9.23407
      vertex 28.8 -41.9563 7.8501
      vertex 21 -41.9563 7.8501
    endloop
  endfacet
  facet normal -3.16003e-017 0.989821 -0.142315
    outer loop
      vertex 28.8 -41.9563 7.8501
      vertex 28.8 -42.2169 6.03748
      vertex 21 -41.9563 7.8501
    endloop
  endfacet
  facet normal -3.16003e-017 0.989821 -0.142315
    outer loop
      vertex 21 -41.9563 7.8501
      vertex 28.8 -42.2169 6.03748
      vertex 21 -42.2169 6.03748
    endloop
  endfacet
  facet normal -2.1305e-016 0.281732 -0.959493
    outer loop
      vertex 28.8 -39 9.75
      vertex 28.8 -40.7571 9.23407
      vertex 21 -39 9.75
    endloop
  endfacet
  facet normal -2.1305e-016 0.281732 -0.959493
    outer loop
      vertex 21 -39 9.75
      vertex 28.8 -40.7571 9.23407
      vertex 21 -40.7571 9.23407
    endloop
  endfacet
  facet normal -2.1305e-016 -0.281732 -0.959493
    outer loop
      vertex 28.8 -37.2429 9.23407
      vertex 28.8 -39 9.75
      vertex 21 -37.2429 9.23407
    endloop
  endfacet
  facet normal -2.1305e-016 -0.281732 -0.959493
    outer loop
      vertex 21 -37.2429 9.23407
      vertex 28.8 -39 9.75
      vertex 21 -39 9.75
    endloop
  endfacet
  facet normal -1.45408e-016 -0.75575 -0.654861
    outer loop
      vertex 21 -36.0437 7.8501
      vertex 28.8 -36.0437 7.8501
      vertex 28.8 -37.2429 9.23407
    endloop
  endfacet
  facet normal -1.45408e-016 -0.75575 -0.654861
    outer loop
      vertex 21 -37.2429 9.23407
      vertex 21 -36.0437 7.8501
      vertex 28.8 -37.2429 9.23407
    endloop
  endfacet
  facet normal -3.16003e-017 -0.989821 -0.142315
    outer loop
      vertex 21 -35.7831 6.03748
      vertex 28.8 -35.7831 6.03748
      vertex 28.8 -36.0437 7.8501
    endloop
  endfacet
  facet normal -3.16003e-017 -0.989821 -0.142315
    outer loop
      vertex 21 -36.0437 7.8501
      vertex 21 -35.7831 6.03748
      vertex 28.8 -36.0437 7.8501
    endloop
  endfacet
  facet normal 9.22407e-017 -0.909632 0.415415
    outer loop
      vertex 28.8 -36.5438 4.3717
      vertex 28.8 -35.7831 6.03748
      vertex 21 -35.7831 6.03748
    endloop
  endfacet
  facet normal 9.22407e-017 -0.909632 0.415415
    outer loop
      vertex 21 -36.5438 4.3717
      vertex 28.8 -36.5438 4.3717
      vertex 21 -35.7831 6.03748
    endloop
  endfacet
  facet normal 1.86796e-016 -0.540641 0.841253
    outer loop
      vertex 28.8 -38.0844 3.38165
      vertex 28.8 -36.5438 4.3717
      vertex 21 -36.5438 4.3717
    endloop
  endfacet
  facet normal 1.86796e-016 -0.540641 0.841253
    outer loop
      vertex 21 -38.0844 3.38165
      vertex 28.8 -38.0844 3.38165
      vertex 21 -36.5438 4.3717
    endloop
  endfacet
  facet normal 2.22045e-016 0 1
    outer loop
      vertex 28.8 -39.9156 3.38165
      vertex 28.8 -38.0844 3.38165
      vertex 21 -38.0844 3.38165
    endloop
  endfacet
  facet normal 2.22045e-016 0 1
    outer loop
      vertex 21 -39.9156 3.38165
      vertex 28.8 -39.9156 3.38165
      vertex 21 -38.0844 3.38165
    endloop
  endfacet
  facet normal 1.86796e-016 0.540641 0.841253
    outer loop
      vertex 28.8 -41.4562 4.3717
      vertex 28.8 -39.9156 3.38165
      vertex 21 -39.9156 3.38165
    endloop
  endfacet
  facet normal 1.86796e-016 0.540641 0.841253
    outer loop
      vertex 21 -41.4562 4.3717
      vertex 28.8 -41.4562 4.3717
      vertex 21 -39.9156 3.38165
    endloop
  endfacet
  facet normal 9.22407e-017 0.909632 0.415415
    outer loop
      vertex 28.8 -41.4562 4.3717
      vertex 21 -41.4562 4.3717
      vertex 28.8 -42.2169 6.03748
    endloop
  endfacet
  facet normal 9.22407e-017 0.909632 0.415415
    outer loop
      vertex 28.8 -42.2169 6.03748
      vertex 21 -41.4562 4.3717
      vertex 21 -42.2169 6.03748
    endloop
  endfacet
  facet normal 0.841253 1.20046e-016 -0.540641
    outer loop
      vertex 2.88165 -54 7.41563
      vertex 3.8717 -54 8.95619
      vertex 3.8717 -57.8 8.95619
    endloop
  endfacet
  facet normal 0.841253 1.20046e-016 -0.540641
    outer loop
      vertex 2.88165 -57.8 7.41563
      vertex 2.88165 -54 7.41563
      vertex 3.8717 -57.8 8.95619
    endloop
  endfacet
  facet normal 1 0 0
    outer loop
      vertex 2.88165 -57.8 5.58437
      vertex 2.88165 -54 5.58437
      vertex 2.88165 -54 7.41563
    endloop
  endfacet
  facet normal 1 0 0
    outer loop
      vertex 2.88165 -57.8 7.41563
      vertex 2.88165 -57.8 5.58437
      vertex 2.88165 -54 7.41563
    endloop
  endfacet
  facet normal 0.415415 2.01979e-016 -0.909632
    outer loop
      vertex 5.53748 -54 9.71692
      vertex 5.53748 -57.8 9.71692
      vertex 3.8717 -54 8.95619
    endloop
  endfacet
  facet normal 0.415415 2.01979e-016 -0.909632
    outer loop
      vertex 3.8717 -54 8.95619
      vertex 5.53748 -57.8 9.71692
      vertex 3.8717 -57.8 8.95619
    endloop
  endfacet
  facet normal -0.142315 2.19785e-016 -0.989821
    outer loop
      vertex 7.3501 -54 9.4563
      vertex 7.3501 -57.8 9.4563
      vertex 5.53748 -54 9.71692
    endloop
  endfacet
  facet normal -0.142315 2.19785e-016 -0.989821
    outer loop
      vertex 5.53748 -54 9.71692
      vertex 7.3501 -57.8 9.4563
      vertex 5.53748 -57.8 9.71692
    endloop
  endfacet
  facet normal -0.654861 1.6781e-016 -0.75575
    outer loop
      vertex 8.73407 -54 8.25708
      vertex 8.73407 -57.8 8.25708
      vertex 7.3501 -54 9.4563
    endloop
  endfacet
  facet normal -0.654861 1.6781e-016 -0.75575
    outer loop
      vertex 7.3501 -54 9.4563
      vertex 8.73407 -57.8 8.25708
      vertex 7.3501 -57.8 9.4563
    endloop
  endfacet
  facet normal -0.959493 6.25572e-017 -0.281732
    outer loop
      vertex 9.25 -54 6.5
      vertex 9.25 -57.8 6.5
      vertex 8.73407 -54 8.25708
    endloop
  endfacet
  facet normal -0.959493 6.25572e-017 -0.281732
    outer loop
      vertex 8.73407 -54 8.25708
      vertex 9.25 -57.8 6.5
      vertex 8.73407 -57.8 8.25708
    endloop
  endfacet
  facet normal -0.959493 -6.25572e-017 0.281732
    outer loop
      vertex 9.25 -54 6.5
      vertex 8.73407 -54 4.74292
      vertex 9.25 -57.8 6.5
    endloop
  endfacet
  facet normal -0.959493 -6.25572e-017 0.281732
    outer loop
      vertex 9.25 -57.8 6.5
      vertex 8.73407 -54 4.74292
      vertex 8.73407 -57.8 4.74292
    endloop
  endfacet
  facet normal -0.654861 -1.6781e-016 0.75575
    outer loop
      vertex 8.73407 -57.8 4.74292
      vertex 8.73407 -54 4.74292
      vertex 7.3501 -54 3.5437
    endloop
  endfacet
  facet normal -0.654861 -1.6781e-016 0.75575
    outer loop
      vertex 7.3501 -57.8 3.5437
      vertex 8.73407 -57.8 4.74292
      vertex 7.3501 -54 3.5437
    endloop
  endfacet
  facet normal -0.142315 -2.19785e-016 0.989821
    outer loop
      vertex 7.3501 -57.8 3.5437
      vertex 7.3501 -54 3.5437
      vertex 5.53748 -54 3.28308
    endloop
  endfacet
  facet normal -0.142315 -2.19785e-016 0.989821
    outer loop
      vertex 5.53748 -57.8 3.28308
      vertex 7.3501 -57.8 3.5437
      vertex 5.53748 -54 3.28308
    endloop
  endfacet
  facet normal 0.415415 -2.01979e-016 0.909632
    outer loop
      vertex 5.53748 -57.8 3.28308
      vertex 5.53748 -54 3.28308
      vertex 3.8717 -54 4.04381
    endloop
  endfacet
  facet normal 0.415415 -2.01979e-016 0.909632
    outer loop
      vertex 3.8717 -57.8 4.04381
      vertex 5.53748 -57.8 3.28308
      vertex 3.8717 -54 4.04381
    endloop
  endfacet
  facet normal 0.841253 -1.20046e-016 0.540641
    outer loop
      vertex 3.8717 -57.8 4.04381
      vertex 3.8717 -54 4.04381
      vertex 2.88165 -54 5.58437
    endloop
  endfacet
  facet normal 0.841253 -1.20046e-016 0.540641
    outer loop
      vertex 2.88165 -57.8 5.58437
      vertex 3.8717 -57.8 4.04381
      vertex 2.88165 -54 5.58437
    endloop
  endfacet
  facet normal 0 -1 -2.22045e-016
    outer loop
      vertex 0.839391 -57.8 5.53532
      vertex 1.53636 -57.8 3.73623
      vertex 2.83617 -57.8 2.31041
    endloop
  endfacet
  facet normal 0 -1 -2.22045e-016
    outer loop
      vertex 6.48441 -57.8 1.2724
      vertex 0.839391 -57.8 5.53532
      vertex 4.56327 -57.8 1.45042
    endloop
  endfacet
  facet normal 0 -1 -2.22045e-016
    outer loop
      vertex 4.56327 -57.8 1.45042
      vertex 0.839391 -57.8 5.53532
      vertex 2.83617 -57.8 2.31041
    endloop
  endfacet
  facet normal 0 -1 -2.22045e-016
    outer loop
      vertex 8.34013 -57.8 1.80039
      vertex 0.839391 -57.8 5.53532
      vertex 6.48441 -57.8 1.2724
    endloop
  endfacet
  facet normal 0 -1 -2.22045e-016
    outer loop
      vertex 3.8717 -57.8 4.04381
      vertex 0.839391 -57.8 5.53532
      vertex 8.34013 -57.8 1.80039
    endloop
  endfacet
  facet normal 0 -1 -2.22045e-016
    outer loop
      vertex 8.73407 -57.8 4.74292
      vertex 7.3501 -57.8 3.5437
      vertex 9.8798 -57.8 2.9631
    endloop
  endfacet
  facet normal 0 -1 -2.22045e-016
    outer loop
      vertex 9.25 -57.8 6.5
      vertex 10.8955 -57.8 4.60348
      vertex 11.25 -57.8 6.5
    endloop
  endfacet
  facet normal 0 -1 -2.22045e-016
    outer loop
      vertex 5.53748 -57.8 9.71692
      vertex 7.3501 -57.8 9.4563
      vertex 8.34013 -57.8 11.1996
    endloop
  endfacet
  facet normal 0 -1 -2.22045e-016
    outer loop
      vertex 2.83617 -57.8 10.6896
      vertex 0.839391 -57.8 5.53532
      vertex 4.56327 -57.8 11.5496
    endloop
  endfacet
  facet normal 0 -1 -2.22045e-016
    outer loop
      vertex 1.53636 -57.8 9.26377
      vertex 0.839391 -57.8 5.53532
      vertex 2.83617 -57.8 10.6896
    endloop
  endfacet
  facet normal 0 -1 -2.22045e-016
    outer loop
      vertex 0.839391 -57.8 7.46469
      vertex 0.839391 -57.8 5.53532
      vertex 1.53636 -57.8 9.26377
    endloop
  endfacet
  facet normal 0 -1 -2.22045e-016
    outer loop
      vertex 7.3501 -57.8 9.4563
      vertex 8.73407 -57.8 8.25708
      vertex 9.8798 -57.8 10.0369
    endloop
  endfacet
  facet normal 0 -1 -2.22045e-016
    outer loop
      vertex 3.8717 -57.8 8.95619
      vertex 5.53748 -57.8 9.71692
      vertex 6.48441 -57.8 11.7276
    endloop
  endfacet
  facet normal 0 -1 -2.22045e-016
    outer loop
      vertex 4.56327 -57.8 11.5496
      vertex 3.8717 -57.8 8.95619
      vertex 6.48441 -57.8 11.7276
    endloop
  endfacet
  facet normal 0 -1 -2.22045e-016
    outer loop
      vertex 4.56327 -57.8 11.5496
      vertex 0.839391 -57.8 5.53532
      vertex 3.8717 -57.8 8.95619
    endloop
  endfacet
  facet normal 0 -1 -2.22045e-016
    outer loop
      vertex 6.48441 -57.8 11.7276
      vertex 5.53748 -57.8 9.71692
      vertex 8.34013 -57.8 11.1996
    endloop
  endfacet
  facet normal 0 -1 -2.22045e-016
    outer loop
      vertex 8.34013 -57.8 11.1996
      vertex 7.3501 -57.8 9.4563
      vertex 9.8798 -57.8 10.0369
    endloop
  endfacet
  facet normal 0 -1 -2.22045e-016
    outer loop
      vertex 2.88165 -57.8 7.41563
      vertex 3.8717 -57.8 8.95619
      vertex 0.839391 -57.8 5.53532
    endloop
  endfacet
  facet normal 0 -1 -2.22045e-016
    outer loop
      vertex 9.8798 -57.8 10.0369
      vertex 8.73407 -57.8 8.25708
      vertex 10.8955 -57.8 8.39652
    endloop
  endfacet
  facet normal 0 -1 -2.22045e-016
    outer loop
      vertex 9.25 -57.8 6.5
      vertex 8.73407 -57.8 4.74292
      vertex 10.8955 -57.8 4.60348
    endloop
  endfacet
  facet normal 0 -1 -2.22045e-016
    outer loop
      vertex 10.8955 -57.8 8.39652
      vertex 9.25 -57.8 6.5
      vertex 11.25 -57.8 6.5
    endloop
  endfacet
  facet normal 0 -1 -2.22045e-016
    outer loop
      vertex 10.8955 -57.8 4.60348
      vertex 8.73407 -57.8 4.74292
      vertex 9.8798 -57.8 2.9631
    endloop
  endfacet
  facet normal 0 -1 -2.22045e-016
    outer loop
      vertex 9.8798 -57.8 2.9631
      vertex 7.3501 -57.8 3.5437
      vertex 8.34013 -57.8 1.80039
    endloop
  endfacet
  facet normal 0 -1 -2.22045e-016
    outer loop
      vertex 7.3501 -57.8 3.5437
      vertex 5.53748 -57.8 3.28308
      vertex 8.34013 -57.8 1.80039
    endloop
  endfacet
  facet normal 0 -1 -2.22045e-016
    outer loop
      vertex 5.53748 -57.8 3.28308
      vertex 3.8717 -57.8 4.04381
      vertex 8.34013 -57.8 1.80039
    endloop
  endfacet
  facet normal 0 -1 -2.22045e-016
    outer loop
      vertex 8.73407 -57.8 8.25708
      vertex 9.25 -57.8 6.5
      vertex 10.8955 -57.8 8.39652
    endloop
  endfacet
  facet normal 0 -1 -2.22045e-016
    outer loop
      vertex 3.8717 -57.8 4.04381
      vertex 2.88165 -57.8 5.58437
      vertex 0.839391 -57.8 5.53532
    endloop
  endfacet
  facet normal 0 -1 -2.22045e-016
    outer loop
      vertex 2.88165 -57.8 5.58437
      vertex 2.88165 -57.8 7.41563
      vertex 0.839391 -57.8 5.53532
    endloop
  endfacet
  facet normal 1 0 -1.77321e-016
    outer loop
      vertex 28.8 -38.0353 1.33939
      vertex 28.8 -36.2362 2.03636
      vertex 28.8 -34.8104 3.33617
    endloop
  endfacet
  facet normal 1 0 -1.77321e-016
    outer loop
      vertex 28.8 -33.7724 6.98441
      vertex 28.8 -38.0353 1.33939
      vertex 28.8 -33.9504 5.06327
    endloop
  endfacet
  facet normal 1 0 -1.77321e-016
    outer loop
      vertex 28.8 -33.9504 5.06327
      vertex 28.8 -38.0353 1.33939
      vertex 28.8 -34.8104 3.33617
    endloop
  endfacet
  facet normal 1 0 -1.77321e-016
    outer loop
      vertex 28.8 -34.3004 8.84013
      vertex 28.8 -38.0353 1.33939
      vertex 28.8 -33.7724 6.98441
    endloop
  endfacet
  facet normal 1 0 -1.77321e-016
    outer loop
      vertex 28.8 -36.5438 4.3717
      vertex 28.8 -38.0353 1.33939
      vertex 28.8 -34.3004 8.84013
    endloop
  endfacet
  facet normal 1 0 -1.77321e-016
    outer loop
      vertex 28.8 -37.2429 9.23407
      vertex 28.8 -36.0437 7.8501
      vertex 28.8 -35.4631 10.3798
    endloop
  endfacet
  facet normal 1 0 -1.77321e-016
    outer loop
      vertex 28.8 -39 9.75
      vertex 28.8 -37.1035 11.3955
      vertex 28.8 -39 11.75
    endloop
  endfacet
  facet normal 1 0 -1.77321e-016
    outer loop
      vertex 28.8 -42.2169 6.03748
      vertex 28.8 -41.9563 7.8501
      vertex 28.8 -43.6996 8.84013
    endloop
  endfacet
  facet normal 1 0 -1.77321e-016
    outer loop
      vertex 28.8 -43.1896 3.33617
      vertex 28.8 -38.0353 1.33939
      vertex 28.8 -44.0496 5.06327
    endloop
  endfacet
  facet normal 1 0 -1.77321e-016
    outer loop
      vertex 28.8 -41.7638 2.03636
      vertex 28.8 -38.0353 1.33939
      vertex 28.8 -43.1896 3.33617
    endloop
  endfacet
  facet normal 1 0 -1.77321e-016
    outer loop
      vertex 28.8 -39.9647 1.33939
      vertex 28.8 -38.0353 1.33939
      vertex 28.8 -41.7638 2.03636
    endloop
  endfacet
  facet normal 1 0 -1.77321e-016
    outer loop
      vertex 28.8 -41.9563 7.8501
      vertex 28.8 -40.7571 9.23407
      vertex 28.8 -42.5369 10.3798
    endloop
  endfacet
  facet normal 1 0 -1.77321e-016
    outer loop
      vertex 28.8 -41.4562 4.3717
      vertex 28.8 -42.2169 6.03748
      vertex 28.8 -44.2276 6.98441
    endloop
  endfacet
  facet normal 1 0 -1.77321e-016
    outer loop
      vertex 28.8 -44.0496 5.06327
      vertex 28.8 -41.4562 4.3717
      vertex 28.8 -44.2276 6.98441
    endloop
  endfacet
  facet normal 1 0 -1.77321e-016
    outer loop
      vertex 28.8 -44.0496 5.06327
      vertex 28.8 -38.0353 1.33939
      vertex 28.8 -41.4562 4.3717
    endloop
  endfacet
  facet normal 1 0 -1.77321e-016
    outer loop
      vertex 28.8 -44.2276 6.98441
      vertex 28.8 -42.2169 6.03748
      vertex 28.8 -43.6996 8.84013
    endloop
  endfacet
  facet normal 1 0 -1.77321e-016
    outer loop
      vertex 28.8 -43.6996 8.84013
      vertex 28.8 -41.9563 7.8501
      vertex 28.8 -42.5369 10.3798
    endloop
  endfacet
  facet normal 1 0 -1.77321e-016
    outer loop
      vertex 28.8 -39.9156 3.38165
      vertex 28.8 -41.4562 4.3717
      vertex 28.8 -38.0353 1.33939
    endloop
  endfacet
  facet normal 1 0 -1.77321e-016
    outer loop
      vertex 28.8 -42.5369 10.3798
      vertex 28.8 -40.7571 9.23407
      vertex 28.8 -40.8965 11.3955
    endloop
  endfacet
  facet normal 1 0 -1.77321e-016
    outer loop
      vertex 28.8 -39 9.75
      vertex 28.8 -37.2429 9.23407
      vertex 28.8 -37.1035 11.3955
    endloop
  endfacet
  facet normal 1 0 -1.77321e-016
    outer loop
      vertex 28.8 -40.8965 11.3955
      vertex 28.8 -39 9.75
      vertex 28.8 -39 11.75
    endloop
  endfacet
  facet normal 1 0 -1.77321e-016
    outer loop
      vertex 28.8 -37.1035 11.3955
      vertex 28.8 -37.2429 9.23407
      vertex 28.8 -35.4631 10.3798
    endloop
  endfacet
  facet normal 1 0 -1.77321e-016
    outer loop
      vertex 28.8 -35.4631 10.3798
      vertex 28.8 -36.0437 7.8501
      vertex 28.8 -34.3004 8.84013
    endloop
  endfacet
  facet normal 1 0 -1.77321e-016
    outer loop
      vertex 28.8 -36.0437 7.8501
      vertex 28.8 -35.7831 6.03748
      vertex 28.8 -34.3004 8.84013
    endloop
  endfacet
  facet normal 1 0 -1.77321e-016
    outer loop
      vertex 28.8 -35.7831 6.03748
      vertex 28.8 -36.5438 4.3717
      vertex 28.8 -34.3004 8.84013
    endloop
  endfacet
  facet normal 1 0 -1.77321e-016
    outer loop
      vertex 28.8 -40.7571 9.23407
      vertex 28.8 -39 9.75
      vertex 28.8 -40.8965 11.3955
    endloop
  endfacet
  facet normal 1 0 -1.77321e-016
    outer loop
      vertex 28.8 -36.5438 4.3717
      vertex 28.8 -38.0844 3.38165
      vertex 28.8 -38.0353 1.33939
    endloop
  endfacet
  facet normal 1 0 -1.77321e-016
    outer loop
      vertex 28.8 -38.0844 3.38165
      vertex 28.8 -39.9156 3.38165
      vertex 28.8 -38.0353 1.33939
    endloop
  endfacet
endsolid OpenSCAD_Model
